<?xml version="1.0" encoding="UTF-8" standalone="no"?>
<!DOCTYPE svg PUBLIC "-//W3C//DTD SVG 1.1//EN"
 "http://www.w3.org/Graphics/SVG/1.1/DTD/svg11.dtd">
<!-- Generated by graphviz version 11.0.0 (20240428.1522)
 -->
<!-- Pages: 1 -->
<svg width="1684pt" height="854pt"
 viewBox="0.00 0.00 1684.10 854.00" xmlns="http://www.w3.org/2000/svg" xmlns:xlink="http://www.w3.org/1999/xlink">
<g id="graph0" class="graph" transform="scale(1 1) rotate(0) translate(4 850)">
<polygon fill="white" stroke="none" points="-4,4 -4,-850 1680.1,-850 1680.1,4 -4,4"/>
<!-- 0 -->
<g id="node1" class="node">
<title>0</title>
<ellipse fill="none" stroke="black" cx="116.43" cy="-430" rx="116.43" ry="18"/>
<text text-anchor="middle" x="116.43" y="-424.57" font-family="Times New Roman,serif" font-size="14.00">Industry_Computing or tech</text>
</g>
<!-- 1 -->
<g id="node2" class="node">
<title>1</title>
<ellipse fill="none" stroke="black" cx="545.35" cy="-531" rx="212.74" ry="18"/>
<text text-anchor="middle" x="545.35" y="-525.58" font-family="Times New Roman,serif" font-size="14.00">Highest Education_Professional degree (MD, JD, etc.)</text>
</g>
<!-- 0&#45;&gt;1 -->
<g id="edge1" class="edge">
<title>0&#45;&gt;1</title>
<path fill="none" stroke="#ff0000" d="M181.81,-445.23C256.08,-462.8 378.45,-491.75 460.2,-511.09"/>
<polygon fill="#ff0000" stroke="#ff0000" points="459.2,-514.45 469.74,-513.35 460.81,-507.64 459.2,-514.45"/>
<text text-anchor="middle" x="282.74" y="-476.45" font-family="Times New Roman,serif" font-size="14.00">yes</text>
</g>
<!-- 2 -->
<g id="node3" class="node">
<title>2</title>
<ellipse fill="none" stroke="black" cx="545.35" cy="-315" rx="90.48" ry="18"/>
<text text-anchor="middle" x="545.35" y="-309.57" font-family="Times New Roman,serif" font-size="14.00">Years job_2 &#45; 4 years</text>
</g>
<!-- 0&#45;&gt;2 -->
<g id="edge2" class="edge">
<title>0&#45;&gt;2</title>
<path fill="none" stroke="#0000ff" d="M176.35,-414.13C255.73,-392.75 396.58,-354.81 479.09,-332.58"/>
<polygon fill="#0000ff" stroke="#0000ff" points="479.88,-335.99 488.63,-330.01 478.06,-329.23 479.88,-335.99"/>
<text text-anchor="middle" x="282.74" y="-394.45" font-family="Times New Roman,serif" font-size="14.00">no, missing</text>
</g>
<!-- 3 -->
<g id="node4" class="node">
<title>3</title>
<ellipse fill="none" stroke="black" cx="937.85" cy="-693" rx="35.6" ry="18"/>
<text text-anchor="middle" x="937.85" y="-687.58" font-family="Times New Roman,serif" font-size="14.00">Age&lt;3</text>
</g>
<!-- 1&#45;&gt;3 -->
<g id="edge3" class="edge">
<title>1&#45;&gt;3</title>
<path fill="none" stroke="#ff0000" d="M589.63,-548.96C666.7,-580.93 826.42,-647.19 899.22,-677.39"/>
<polygon fill="#ff0000" stroke="#ff0000" points="897.74,-680.57 908.32,-681.17 900.42,-674.1 897.74,-680.57"/>
<text text-anchor="middle" x="807.97" y="-651.45" font-family="Times New Roman,serif" font-size="14.00">yes</text>
</g>
<!-- 4 -->
<g id="node5" class="node">
<title>4</title>
<ellipse fill="none" stroke="black" cx="937.85" cy="-531" rx="62.54" ry="18"/>
<text text-anchor="middle" x="937.85" y="-525.58" font-family="Times New Roman,serif" font-size="14.00">Industry_Law</text>
</g>
<!-- 1&#45;&gt;4 -->
<g id="edge4" class="edge">
<title>1&#45;&gt;4</title>
<path fill="none" stroke="#0000ff" d="M758.46,-531C796.25,-531 833.2,-531 863.57,-531"/>
<polygon fill="#0000ff" stroke="#0000ff" points="863.37,-534.5 873.37,-531 863.37,-527.5 863.37,-534.5"/>
<text text-anchor="middle" x="807.97" y="-533.45" font-family="Times New Roman,serif" font-size="14.00">no, missing</text>
</g>
<!-- 5 -->
<g id="node18" class="node">
<title>5</title>
<ellipse fill="none" stroke="black" cx="937.85" cy="-315" rx="80.01" ry="18"/>
<text text-anchor="middle" x="937.85" y="-309.57" font-family="Times New Roman,serif" font-size="14.00">Category_Medium</text>
</g>
<!-- 2&#45;&gt;5 -->
<g id="edge17" class="edge">
<title>2&#45;&gt;5</title>
<path fill="none" stroke="#ff0000" d="M635.94,-315C699.03,-315 783.18,-315 846.45,-315"/>
<polygon fill="#ff0000" stroke="#ff0000" points="846.09,-318.5 856.09,-315 846.09,-311.5 846.09,-318.5"/>
<text text-anchor="middle" x="807.97" y="-317.45" font-family="Times New Roman,serif" font-size="14.00">yes</text>
</g>
<!-- 6 -->
<g id="node19" class="node">
<title>6</title>
<ellipse fill="none" stroke="black" cx="937.85" cy="-153" rx="80.01" ry="18"/>
<text text-anchor="middle" x="937.85" y="-147.57" font-family="Times New Roman,serif" font-size="14.00">Category_Medium</text>
</g>
<!-- 2&#45;&gt;6 -->
<g id="edge18" class="edge">
<title>2&#45;&gt;6</title>
<path fill="none" stroke="#0000ff" d="M585.94,-298.58C657.8,-268.77 809.46,-205.85 887.76,-173.36"/>
<polygon fill="#0000ff" stroke="#0000ff" points="889.01,-176.63 896.91,-169.57 886.33,-170.17 889.01,-176.63"/>
<text text-anchor="middle" x="807.97" y="-221.45" font-family="Times New Roman,serif" font-size="14.00">no, missing</text>
</g>
<!-- 7 -->
<g id="node6" class="node">
<title>7</title>
<ellipse fill="none" stroke="black" cx="1271.96" cy="-774" rx="94.98" ry="18"/>
<text text-anchor="middle" x="1271.96" y="-768.58" font-family="Times New Roman,serif" font-size="14.00">Years job_8 &#45; 10 years</text>
</g>
<!-- 3&#45;&gt;7 -->
<g id="edge5" class="edge">
<title>3&#45;&gt;7</title>
<path fill="none" stroke="#ff0000" d="M970.39,-700.69C1023.03,-713.53 1130.01,-739.62 1201.09,-756.96"/>
<polygon fill="#ff0000" stroke="#ff0000" points="1200.16,-760.34 1210.71,-759.31 1201.82,-753.54 1200.16,-760.34"/>
<text text-anchor="middle" x="1067.73" y="-733.45" font-family="Times New Roman,serif" font-size="14.00">yes</text>
</g>
<!-- 8 -->
<g id="node7" class="node">
<title>8</title>
<ellipse fill="none" stroke="black" cx="1271.96" cy="-693" rx="72.52" ry="18"/>
<text text-anchor="middle" x="1271.96" y="-687.58" font-family="Times New Roman,serif" font-size="14.00">Gender_Woman</text>
</g>
<!-- 3&#45;&gt;8 -->
<g id="edge6" class="edge">
<title>3&#45;&gt;8</title>
<path fill="none" stroke="#0000ff" d="M973.76,-693C1024.16,-693 1118.83,-693 1187.81,-693"/>
<polygon fill="#0000ff" stroke="#0000ff" points="1187.57,-696.5 1197.57,-693 1187.57,-689.5 1187.57,-696.5"/>
<text text-anchor="middle" x="1067.73" y="-695.45" font-family="Times New Roman,serif" font-size="14.00">no, missing</text>
</g>
<!-- 9 -->
<g id="node12" class="node">
<title>9</title>
<ellipse fill="none" stroke="black" cx="1271.96" cy="-558" rx="87.99" ry="18"/>
<text text-anchor="middle" x="1271.96" y="-552.58" font-family="Times New Roman,serif" font-size="14.00">Industry_Health care</text>
</g>
<!-- 4&#45;&gt;9 -->
<g id="edge11" class="edge">
<title>4&#45;&gt;9</title>
<path fill="none" stroke="#ff0000" d="M998.61,-535.86C1048.59,-539.92 1120.74,-545.79 1178.23,-550.46"/>
<polygon fill="#ff0000" stroke="#ff0000" points="1177.76,-553.93 1188.01,-551.26 1178.33,-546.96 1177.76,-553.93"/>
<text text-anchor="middle" x="1067.73" y="-545.45" font-family="Times New Roman,serif" font-size="14.00">yes</text>
</g>
<!-- 10 -->
<g id="node13" class="node">
<title>10</title>
<ellipse fill="none" stroke="black" cx="1271.96" cy="-504" rx="80.01" ry="18"/>
<text text-anchor="middle" x="1271.96" y="-498.57" font-family="Times New Roman,serif" font-size="14.00">Category_Medium</text>
</g>
<!-- 4&#45;&gt;10 -->
<g id="edge12" class="edge">
<title>4&#45;&gt;10</title>
<path fill="none" stroke="#0000ff" d="M994.43,-523.01C1007.96,-521.26 1022.41,-519.54 1035.85,-518.25 1083.97,-513.64 1137.78,-510.24 1181.77,-507.93"/>
<polygon fill="#0000ff" stroke="#0000ff" points="1181.7,-511.44 1191.51,-507.43 1181.34,-504.45 1181.7,-511.44"/>
<text text-anchor="middle" x="1067.73" y="-520.45" font-family="Times New Roman,serif" font-size="14.00">no, missing</text>
</g>
<!-- 15 -->
<g id="node8" class="node">
<title>15</title>
<ellipse fill="none" stroke="black" cx="1601.08" cy="-828" rx="75.02" ry="18"/>
<text text-anchor="middle" x="1601.08" y="-822.58" font-family="Times New Roman,serif" font-size="14.00">leaf=&#45;6622.47803</text>
</g>
<!-- 7&#45;&gt;15 -->
<g id="edge7" class="edge">
<title>7&#45;&gt;15</title>
<path fill="none" stroke="#ff0000" d="M1344.75,-785.85C1398.83,-794.78 1472.7,-806.97 1527.07,-815.95"/>
<polygon fill="#ff0000" stroke="#ff0000" points="1526.44,-819.39 1536.87,-817.57 1527.58,-812.48 1526.44,-819.39"/>
<text text-anchor="middle" x="1476.19" y="-814.45" font-family="Times New Roman,serif" font-size="14.00">yes</text>
</g>
<!-- 16 -->
<g id="node9" class="node">
<title>16</title>
<ellipse fill="none" stroke="black" cx="1601.08" cy="-774" rx="75.02" ry="18"/>
<text text-anchor="middle" x="1601.08" y="-768.58" font-family="Times New Roman,serif" font-size="14.00">leaf=&#45;1557.56995</text>
</g>
<!-- 7&#45;&gt;16 -->
<g id="edge8" class="edge">
<title>7&#45;&gt;16</title>
<path fill="none" stroke="#0000ff" d="M1367.14,-774C1413.6,-774 1469.22,-774 1514.46,-774"/>
<polygon fill="#0000ff" stroke="#0000ff" points="1514.22,-777.5 1524.22,-774 1514.22,-770.5 1514.22,-777.5"/>
<text text-anchor="middle" x="1476.19" y="-776.45" font-family="Times New Roman,serif" font-size="14.00">no, missing</text>
</g>
<!-- 17 -->
<g id="node10" class="node">
<title>17</title>
<ellipse fill="none" stroke="black" cx="1601.08" cy="-720" rx="72.02" ry="18"/>
<text text-anchor="middle" x="1601.08" y="-714.58" font-family="Times New Roman,serif" font-size="14.00">leaf=4878.94922</text>
</g>
<!-- 8&#45;&gt;17 -->
<g id="edge9" class="edge">
<title>8&#45;&gt;17</title>
<path fill="none" stroke="#ff0000" d="M1341.14,-698.63C1393.4,-702.94 1465.65,-708.9 1520.55,-713.44"/>
<polygon fill="#ff0000" stroke="#ff0000" points="1520.23,-716.92 1530.48,-714.26 1520.8,-709.94 1520.23,-716.92"/>
<text text-anchor="middle" x="1476.19" y="-714.45" font-family="Times New Roman,serif" font-size="14.00">yes</text>
</g>
<!-- 18 -->
<g id="node11" class="node">
<title>18</title>
<ellipse fill="none" stroke="black" cx="1601.08" cy="-666" rx="75.02" ry="18"/>
<text text-anchor="middle" x="1601.08" y="-660.58" font-family="Times New Roman,serif" font-size="14.00">leaf=&#45;1251.25745</text>
</g>
<!-- 8&#45;&gt;18 -->
<g id="edge10" class="edge">
<title>8&#45;&gt;18</title>
<path fill="none" stroke="#0000ff" d="M1341.14,-687.37C1392.62,-683.12 1463.48,-677.27 1518.06,-672.77"/>
<polygon fill="#0000ff" stroke="#0000ff" points="1518.26,-676.27 1527.94,-671.95 1517.69,-669.29 1518.26,-676.27"/>
<text text-anchor="middle" x="1476.19" y="-680.45" font-family="Times New Roman,serif" font-size="14.00">no, missing</text>
</g>
<!-- 19 -->
<g id="node14" class="node">
<title>19</title>
<ellipse fill="none" stroke="black" cx="1601.08" cy="-612" rx="72.02" ry="18"/>
<text text-anchor="middle" x="1601.08" y="-606.58" font-family="Times New Roman,serif" font-size="14.00">leaf=4840.27148</text>
</g>
<!-- 9&#45;&gt;19 -->
<g id="edge13" class="edge">
<title>9&#45;&gt;19</title>
<path fill="none" stroke="#ff0000" d="M1341.53,-569.32C1396.48,-578.39 1473.32,-591.07 1528.93,-600.26"/>
<polygon fill="#ff0000" stroke="#ff0000" points="1528.18,-603.68 1538.62,-601.85 1529.32,-596.77 1528.18,-603.68"/>
<text text-anchor="middle" x="1476.19" y="-598.45" font-family="Times New Roman,serif" font-size="14.00">yes</text>
</g>
<!-- 20 -->
<g id="node15" class="node">
<title>20</title>
<ellipse fill="none" stroke="black" cx="1601.08" cy="-558" rx="72.02" ry="18"/>
<text text-anchor="middle" x="1601.08" y="-552.58" font-family="Times New Roman,serif" font-size="14.00">leaf=14789.2217</text>
</g>
<!-- 9&#45;&gt;20 -->
<g id="edge14" class="edge">
<title>9&#45;&gt;20</title>
<path fill="none" stroke="#0000ff" d="M1360.19,-558C1408.99,-558 1469.47,-558 1517.5,-558"/>
<polygon fill="#0000ff" stroke="#0000ff" points="1517.28,-561.5 1527.28,-558 1517.28,-554.5 1517.28,-561.5"/>
<text text-anchor="middle" x="1476.19" y="-560.45" font-family="Times New Roman,serif" font-size="14.00">no, missing</text>
</g>
<!-- 21 -->
<g id="node16" class="node">
<title>21</title>
<ellipse fill="none" stroke="black" cx="1601.08" cy="-504" rx="72.02" ry="18"/>
<text text-anchor="middle" x="1601.08" y="-498.57" font-family="Times New Roman,serif" font-size="14.00">leaf=16601.5977</text>
</g>
<!-- 10&#45;&gt;21 -->
<g id="edge15" class="edge">
<title>10&#45;&gt;21</title>
<path fill="none" stroke="#ff0000" d="M1352.15,-504C1402.16,-504 1466.67,-504 1517.34,-504"/>
<polygon fill="#ff0000" stroke="#ff0000" points="1517.08,-507.5 1527.08,-504 1517.08,-500.5 1517.08,-507.5"/>
<text text-anchor="middle" x="1476.19" y="-506.45" font-family="Times New Roman,serif" font-size="14.00">yes</text>
</g>
<!-- 22 -->
<g id="node17" class="node">
<title>22</title>
<ellipse fill="none" stroke="black" cx="1601.08" cy="-450" rx="72.02" ry="18"/>
<text text-anchor="middle" x="1601.08" y="-444.57" font-family="Times New Roman,serif" font-size="14.00">leaf=1078.39294</text>
</g>
<!-- 10&#45;&gt;22 -->
<g id="edge16" class="edge">
<title>10&#45;&gt;22</title>
<path fill="none" stroke="#0000ff" d="M1337.59,-493.33C1392.75,-484.23 1471.96,-471.15 1528.92,-461.75"/>
<polygon fill="#0000ff" stroke="#0000ff" points="1529.21,-465.25 1538.5,-460.16 1528.07,-458.34 1529.21,-465.25"/>
<text text-anchor="middle" x="1476.19" y="-477.45" font-family="Times New Roman,serif" font-size="14.00">no, missing</text>
</g>
<!-- 11 -->
<g id="node20" class="node">
<title>11</title>
<ellipse fill="none" stroke="black" cx="1271.96" cy="-342" rx="78.51" ry="18"/>
<text text-anchor="middle" x="1271.96" y="-336.57" font-family="Times New Roman,serif" font-size="14.00">Category_Poverty</text>
</g>
<!-- 5&#45;&gt;11 -->
<g id="edge19" class="edge">
<title>5&#45;&gt;11</title>
<path fill="none" stroke="#ff0000" d="M1013.79,-321.09C1064.95,-325.25 1132.81,-330.77 1185.98,-335.09"/>
<polygon fill="#ff0000" stroke="#ff0000" points="1185.67,-338.58 1195.92,-335.9 1186.24,-331.6 1185.67,-338.58"/>
<text text-anchor="middle" x="1067.73" y="-329.45" font-family="Times New Roman,serif" font-size="14.00">yes</text>
</g>
<!-- 12 -->
<g id="node21" class="node">
<title>12</title>
<ellipse fill="none" stroke="black" cx="1271.96" cy="-288" rx="72.52" ry="18"/>
<text text-anchor="middle" x="1271.96" y="-282.57" font-family="Times New Roman,serif" font-size="14.00">Gender_Woman</text>
</g>
<!-- 5&#45;&gt;12 -->
<g id="edge20" class="edge">
<title>5&#45;&gt;12</title>
<path fill="none" stroke="#0000ff" d="M1006.62,-305.48C1016.42,-304.28 1026.38,-303.16 1035.85,-302.25 1086.61,-297.38 1143.69,-293.88 1188.9,-291.56"/>
<polygon fill="#0000ff" stroke="#0000ff" points="1188.8,-295.07 1198.62,-291.07 1188.45,-288.08 1188.8,-295.07"/>
<text text-anchor="middle" x="1067.73" y="-304.45" font-family="Times New Roman,serif" font-size="14.00">no, missing</text>
</g>
<!-- 13 -->
<g id="node26" class="node">
<title>13</title>
<ellipse fill="none" stroke="black" cx="1271.96" cy="-153" rx="78.51" ry="18"/>
<text text-anchor="middle" x="1271.96" y="-147.57" font-family="Times New Roman,serif" font-size="14.00">Category_Poverty</text>
</g>
<!-- 6&#45;&gt;13 -->
<g id="edge25" class="edge">
<title>6&#45;&gt;13</title>
<path fill="none" stroke="#ff0000" d="M1017.97,-153C1067.2,-153 1130.63,-153 1181.66,-153"/>
<polygon fill="#ff0000" stroke="#ff0000" points="1181.5,-156.5 1191.5,-153 1181.5,-149.5 1181.5,-156.5"/>
<text text-anchor="middle" x="1067.73" y="-155.45" font-family="Times New Roman,serif" font-size="14.00">yes</text>
</g>
<!-- 14 -->
<g id="node27" class="node">
<title>14</title>
<ellipse fill="none" stroke="black" cx="1271.96" cy="-72" rx="154.36" ry="18"/>
<text text-anchor="middle" x="1271.96" y="-66.58" font-family="Times New Roman,serif" font-size="14.00">Race_Asian or Asian American, White</text>
</g>
<!-- 6&#45;&gt;14 -->
<g id="edge26" class="edge">
<title>6&#45;&gt;14</title>
<path fill="none" stroke="#0000ff" d="M993.32,-139.72C1047.37,-126.53 1130.77,-106.19 1192.07,-91.24"/>
<polygon fill="#0000ff" stroke="#0000ff" points="1192.89,-94.64 1201.77,-88.87 1191.23,-87.84 1192.89,-94.64"/>
<text text-anchor="middle" x="1067.73" y="-131.45" font-family="Times New Roman,serif" font-size="14.00">no, missing</text>
</g>
<!-- 23 -->
<g id="node22" class="node">
<title>23</title>
<ellipse fill="none" stroke="black" cx="1601.08" cy="-396" rx="72.02" ry="18"/>
<text text-anchor="middle" x="1601.08" y="-390.57" font-family="Times New Roman,serif" font-size="14.00">leaf=16055.4814</text>
</g>
<!-- 11&#45;&gt;23 -->
<g id="edge21" class="edge">
<title>11&#45;&gt;23</title>
<path fill="none" stroke="#ff0000" d="M1336.81,-352.54C1391.98,-361.65 1471.62,-374.79 1528.85,-384.24"/>
<polygon fill="#ff0000" stroke="#ff0000" points="1528.05,-387.66 1538.49,-385.83 1529.19,-380.75 1528.05,-387.66"/>
<text text-anchor="middle" x="1476.19" y="-382.45" font-family="Times New Roman,serif" font-size="14.00">yes</text>
</g>
<!-- 24 -->
<g id="node23" class="node">
<title>24</title>
<ellipse fill="none" stroke="black" cx="1601.08" cy="-342" rx="67.53" ry="18"/>
<text text-anchor="middle" x="1601.08" y="-336.57" font-family="Times New Roman,serif" font-size="14.00">leaf=2295.8457</text>
</g>
<!-- 11&#45;&gt;24 -->
<g id="edge22" class="edge">
<title>11&#45;&gt;24</title>
<path fill="none" stroke="#0000ff" d="M1350.9,-342C1402.55,-342 1470.07,-342 1521.79,-342"/>
<polygon fill="#0000ff" stroke="#0000ff" points="1521.73,-345.5 1531.73,-342 1521.73,-338.5 1521.73,-345.5"/>
<text text-anchor="middle" x="1476.19" y="-344.45" font-family="Times New Roman,serif" font-size="14.00">no, missing</text>
</g>
<!-- 25 -->
<g id="node24" class="node">
<title>25</title>
<ellipse fill="none" stroke="black" cx="1601.08" cy="-288" rx="72.02" ry="18"/>
<text text-anchor="middle" x="1601.08" y="-282.57" font-family="Times New Roman,serif" font-size="14.00">leaf=6270.65723</text>
</g>
<!-- 12&#45;&gt;25 -->
<g id="edge23" class="edge">
<title>12&#45;&gt;25</title>
<path fill="none" stroke="#ff0000" d="M1344.75,-288C1395.65,-288 1464.08,-288 1517.29,-288"/>
<polygon fill="#ff0000" stroke="#ff0000" points="1517.23,-291.5 1527.23,-288 1517.23,-284.5 1517.23,-291.5"/>
<text text-anchor="middle" x="1476.19" y="-290.45" font-family="Times New Roman,serif" font-size="14.00">yes</text>
</g>
<!-- 26 -->
<g id="node25" class="node">
<title>26</title>
<ellipse fill="none" stroke="black" cx="1601.08" cy="-234" rx="75.02" ry="18"/>
<text text-anchor="middle" x="1601.08" y="-228.57" font-family="Times New Roman,serif" font-size="14.00">leaf=&#45;1761.11682</text>
</g>
<!-- 12&#45;&gt;26 -->
<g id="edge24" class="edge">
<title>12&#45;&gt;26</title>
<path fill="none" stroke="#0000ff" d="M1333.34,-278.03C1388.03,-269 1468.73,-255.68 1527.04,-246.06"/>
<polygon fill="#0000ff" stroke="#0000ff" points="1527.6,-249.51 1536.89,-244.43 1526.46,-242.61 1527.6,-249.51"/>
<text text-anchor="middle" x="1476.19" y="-261.45" font-family="Times New Roman,serif" font-size="14.00">no, missing</text>
</g>
<!-- 27 -->
<g id="node28" class="node">
<title>27</title>
<ellipse fill="none" stroke="black" cx="1601.08" cy="-180" rx="67.53" ry="18"/>
<text text-anchor="middle" x="1601.08" y="-174.57" font-family="Times New Roman,serif" font-size="14.00">leaf=5983.1626</text>
</g>
<!-- 13&#45;&gt;27 -->
<g id="edge27" class="edge">
<title>13&#45;&gt;27</title>
<path fill="none" stroke="#ff0000" d="M1346.37,-159.06C1399.57,-163.45 1471.27,-169.37 1524.88,-173.79"/>
<polygon fill="#ff0000" stroke="#ff0000" points="1524.27,-177.25 1534.52,-174.59 1524.84,-170.28 1524.27,-177.25"/>
<text text-anchor="middle" x="1476.19" y="-174.45" font-family="Times New Roman,serif" font-size="14.00">yes</text>
</g>
<!-- 28 -->
<g id="node29" class="node">
<title>28</title>
<ellipse fill="none" stroke="black" cx="1601.08" cy="-126" rx="70.52" ry="18"/>
<text text-anchor="middle" x="1601.08" y="-120.58" font-family="Times New Roman,serif" font-size="14.00">leaf=&#45;8555.2793</text>
</g>
<!-- 13&#45;&gt;28 -->
<g id="edge28" class="edge">
<title>13&#45;&gt;28</title>
<path fill="none" stroke="#0000ff" d="M1346.37,-146.94C1398.58,-142.63 1468.61,-136.85 1521.87,-132.46"/>
<polygon fill="#0000ff" stroke="#0000ff" points="1522.12,-135.95 1531.8,-131.64 1521.55,-128.97 1522.12,-135.95"/>
<text text-anchor="middle" x="1476.19" y="-140.45" font-family="Times New Roman,serif" font-size="14.00">no, missing</text>
</g>
<!-- 29 -->
<g id="node30" class="node">
<title>29</title>
<ellipse fill="none" stroke="black" cx="1601.08" cy="-72" rx="75.02" ry="18"/>
<text text-anchor="middle" x="1601.08" y="-66.58" font-family="Times New Roman,serif" font-size="14.00">leaf=&#45;7848.03564</text>
</g>
<!-- 14&#45;&gt;29 -->
<g id="edge29" class="edge">
<title>14&#45;&gt;29</title>
<path fill="none" stroke="#ff0000" d="M1426.46,-72C1456.67,-72 1487.35,-72 1514.33,-72"/>
<polygon fill="#ff0000" stroke="#ff0000" points="1514.15,-75.5 1524.15,-72 1514.15,-68.5 1514.15,-75.5"/>
<text text-anchor="middle" x="1476.19" y="-74.45" font-family="Times New Roman,serif" font-size="14.00">yes</text>
</g>
<!-- 30 -->
<g id="node31" class="node">
<title>30</title>
<ellipse fill="none" stroke="black" cx="1601.08" cy="-18" rx="72.02" ry="18"/>
<text text-anchor="middle" x="1601.08" y="-12.57" font-family="Times New Roman,serif" font-size="14.00">leaf=2051.56958</text>
</g>
<!-- 14&#45;&gt;30 -->
<g id="edge30" class="edge">
<title>14&#45;&gt;30</title>
<path fill="none" stroke="#0000ff" d="M1363.21,-57.1C1415.5,-48.47 1480.38,-37.76 1529.01,-29.73"/>
<polygon fill="#0000ff" stroke="#0000ff" points="1529.28,-33.24 1538.57,-28.15 1528.14,-26.33 1529.28,-33.24"/>
<text text-anchor="middle" x="1476.19" y="-45.45" font-family="Times New Roman,serif" font-size="14.00">no, missing</text>
</g>
</g>
</svg>
