<?xml version="1.0" encoding="UTF-8" standalone="no"?>
<!DOCTYPE svg PUBLIC "-//W3C//DTD SVG 1.1//EN"
 "http://www.w3.org/Graphics/SVG/1.1/DTD/svg11.dtd">
<!-- Generated by graphviz version 11.0.0 (20240428.1522)
 -->
<!-- Pages: 1 -->
<svg width="2126pt" height="1718pt"
 viewBox="0.00 0.00 2126.49 1718.00" xmlns="http://www.w3.org/2000/svg" xmlns:xlink="http://www.w3.org/1999/xlink">
<g id="graph0" class="graph" transform="scale(1 1) rotate(0) translate(4 1714)">
<polygon fill="white" stroke="none" points="-4,4 -4,-1714 2122.49,-1714 2122.49,4 -4,4"/>
<!-- 0 -->
<g id="node1" class="node">
<title>0</title>
<ellipse fill="none" stroke="black" cx="116.43" cy="-882" rx="116.43" ry="18"/>
<text text-anchor="middle" x="116.43" y="-876.58" font-family="Times New Roman,serif" font-size="14.00">Industry_Computing or tech</text>
</g>
<!-- 1 -->
<g id="node2" class="node">
<title>1</title>
<ellipse fill="none" stroke="black" cx="545.35" cy="-1058" rx="212.74" ry="18"/>
<text text-anchor="middle" x="545.35" y="-1052.58" font-family="Times New Roman,serif" font-size="14.00">Highest Education_Professional degree (MD, JD, etc.)</text>
</g>
<!-- 0&#45;&gt;1 -->
<g id="edge1" class="edge">
<title>0&#45;&gt;1</title>
<path fill="none" stroke="#ff0000" d="M159.14,-899.2C236.81,-931.21 403.52,-999.94 489.93,-1035.56"/>
<polygon fill="#ff0000" stroke="#ff0000" points="488.58,-1038.79 499.16,-1039.37 491.25,-1032.32 488.58,-1038.79"/>
<text text-anchor="middle" x="282.74" y="-961.45" font-family="Times New Roman,serif" font-size="14.00">yes</text>
</g>
<!-- 2 -->
<g id="node3" class="node">
<title>2</title>
<ellipse fill="none" stroke="black" cx="545.35" cy="-640" rx="90.48" ry="18"/>
<text text-anchor="middle" x="545.35" y="-634.58" font-family="Times New Roman,serif" font-size="14.00">Years job_2 &#45; 4 years</text>
</g>
<!-- 0&#45;&gt;2 -->
<g id="edge2" class="edge">
<title>0&#45;&gt;2</title>
<path fill="none" stroke="#0000ff" d="M148.48,-864.4C224.37,-821.38 419.23,-710.92 503.98,-662.88"/>
<polygon fill="#0000ff" stroke="#0000ff" points="505.7,-665.93 512.68,-657.95 502.25,-659.84 505.7,-665.93"/>
<text text-anchor="middle" x="282.74" y="-805.45" font-family="Times New Roman,serif" font-size="14.00">no, missing</text>
</g>
<!-- 3 -->
<g id="node4" class="node">
<title>3</title>
<ellipse fill="none" stroke="black" cx="957.81" cy="-1395" rx="35.6" ry="18"/>
<text text-anchor="middle" x="957.81" y="-1389.58" font-family="Times New Roman,serif" font-size="14.00">Age&lt;3</text>
</g>
<!-- 1&#45;&gt;3 -->
<g id="edge3" class="edge">
<title>1&#45;&gt;3</title>
<path fill="none" stroke="#ff0000" d="M568.71,-1076.36C638.64,-1133.77 853.07,-1309.83 929.44,-1372.53"/>
<polygon fill="#ff0000" stroke="#ff0000" points="926.93,-1375 936.88,-1378.64 931.37,-1369.59 926.93,-1375"/>
<text text-anchor="middle" x="807.97" y="-1297.45" font-family="Times New Roman,serif" font-size="14.00">yes</text>
</g>
<!-- 4 -->
<g id="node5" class="node">
<title>4</title>
<ellipse fill="none" stroke="black" cx="957.81" cy="-1058" rx="62.54" ry="18"/>
<text text-anchor="middle" x="957.81" y="-1052.58" font-family="Times New Roman,serif" font-size="14.00">Industry_Law</text>
</g>
<!-- 1&#45;&gt;4 -->
<g id="edge4" class="edge">
<title>1&#45;&gt;4</title>
<path fill="none" stroke="#0000ff" d="M758.49,-1058C803.55,-1058 848.16,-1058 883.63,-1058"/>
<polygon fill="#0000ff" stroke="#0000ff" points="883.3,-1061.5 893.3,-1058 883.3,-1054.5 883.3,-1061.5"/>
<text text-anchor="middle" x="807.97" y="-1060.45" font-family="Times New Roman,serif" font-size="14.00">no, missing</text>
</g>
<!-- 5 -->
<g id="node34" class="node">
<title>5</title>
<ellipse fill="none" stroke="black" cx="957.81" cy="-640" rx="72.52" ry="18"/>
<text text-anchor="middle" x="957.81" y="-634.58" font-family="Times New Roman,serif" font-size="14.00">Gender_Woman</text>
</g>
<!-- 2&#45;&gt;5 -->
<g id="edge33" class="edge">
<title>2&#45;&gt;5</title>
<path fill="none" stroke="#ff0000" d="M636.18,-640C706.91,-640 804.75,-640 873.69,-640"/>
<polygon fill="#ff0000" stroke="#ff0000" points="873.41,-643.5 883.41,-640 873.41,-636.5 873.41,-643.5"/>
<text text-anchor="middle" x="807.97" y="-642.45" font-family="Times New Roman,serif" font-size="14.00">yes</text>
</g>
<!-- 6 -->
<g id="node35" class="node">
<title>6</title>
<ellipse fill="none" stroke="black" cx="957.81" cy="-318" rx="99.97" ry="18"/>
<text text-anchor="middle" x="957.81" y="-312.57" font-family="Times New Roman,serif" font-size="14.00">Highest Education_PhD</text>
</g>
<!-- 2&#45;&gt;6 -->
<g id="edge34" class="edge">
<title>2&#45;&gt;6</title>
<path fill="none" stroke="#0000ff" d="M569.01,-622.23C638.02,-568.08 845.82,-405.07 925.36,-342.67"/>
<polygon fill="#0000ff" stroke="#0000ff" points="927.07,-345.77 932.78,-336.85 922.75,-340.27 927.07,-345.77"/>
<text text-anchor="middle" x="807.97" y="-461.45" font-family="Times New Roman,serif" font-size="14.00">no, missing</text>
</g>
<!-- 7 -->
<g id="node6" class="node">
<title>7</title>
<ellipse fill="none" stroke="black" cx="1299.4" cy="-1547" rx="94.98" ry="18"/>
<text text-anchor="middle" x="1299.4" y="-1541.58" font-family="Times New Roman,serif" font-size="14.00">Years job_8 &#45; 10 years</text>
</g>
<!-- 3&#45;&gt;7 -->
<g id="edge5" class="edge">
<title>3&#45;&gt;7</title>
<path fill="none" stroke="#ff0000" d="M985.17,-1406.8C1042.21,-1432.33 1177.76,-1493 1250.43,-1525.53"/>
<polygon fill="#ff0000" stroke="#ff0000" points="1248.74,-1528.61 1259.3,-1529.5 1251.6,-1522.22 1248.74,-1528.61"/>
<text text-anchor="middle" x="1107.65" y="-1477.45" font-family="Times New Roman,serif" font-size="14.00">yes</text>
</g>
<!-- 8 -->
<g id="node7" class="node">
<title>8</title>
<ellipse fill="none" stroke="black" cx="1299.4" cy="-1395" rx="72.52" ry="18"/>
<text text-anchor="middle" x="1299.4" y="-1389.58" font-family="Times New Roman,serif" font-size="14.00">Gender_Woman</text>
</g>
<!-- 3&#45;&gt;8 -->
<g id="edge6" class="edge">
<title>3&#45;&gt;8</title>
<path fill="none" stroke="#0000ff" d="M993.87,-1395C1045.75,-1395 1144.46,-1395 1215.45,-1395"/>
<polygon fill="#0000ff" stroke="#0000ff" points="1215.08,-1398.5 1225.08,-1395 1215.08,-1391.5 1215.08,-1398.5"/>
<text text-anchor="middle" x="1107.65" y="-1397.45" font-family="Times New Roman,serif" font-size="14.00">no, missing</text>
</g>
<!-- 9 -->
<g id="node20" class="node">
<title>9</title>
<ellipse fill="none" stroke="black" cx="1299.4" cy="-1125" rx="87.99" ry="18"/>
<text text-anchor="middle" x="1299.4" y="-1119.58" font-family="Times New Roman,serif" font-size="14.00">Industry_Health care</text>
</g>
<!-- 4&#45;&gt;9 -->
<g id="edge19" class="edge">
<title>4&#45;&gt;9</title>
<path fill="none" stroke="#ff0000" d="M1010.38,-1068.18C1067.21,-1079.39 1159.12,-1097.52 1223.8,-1110.28"/>
<polygon fill="#ff0000" stroke="#ff0000" points="1222.77,-1113.64 1233.25,-1112.15 1224.12,-1106.78 1222.77,-1113.64"/>
<text text-anchor="middle" x="1107.65" y="-1095.45" font-family="Times New Roman,serif" font-size="14.00">yes</text>
</g>
<!-- 10 -->
<g id="node21" class="node">
<title>10</title>
<ellipse fill="none" stroke="black" cx="1299.4" cy="-999" rx="35.6" ry="18"/>
<text text-anchor="middle" x="1299.4" y="-993.58" font-family="Times New Roman,serif" font-size="14.00">Age&lt;3</text>
</g>
<!-- 4&#45;&gt;10 -->
<g id="edge20" class="edge">
<title>4&#45;&gt;10</title>
<path fill="none" stroke="#0000ff" d="M1012.24,-1048.72C1079.06,-1037.11 1192.21,-1017.45 1254.32,-1006.66"/>
<polygon fill="#0000ff" stroke="#0000ff" points="1254.56,-1010.17 1263.81,-1005.01 1253.36,-1003.27 1254.56,-1010.17"/>
<text text-anchor="middle" x="1107.65" y="-1039.45" font-family="Times New Roman,serif" font-size="14.00">no, missing</text>
</g>
<!-- 15 -->
<g id="node8" class="node">
<title>15</title>
<ellipse fill="none" stroke="black" cx="1695.89" cy="-1638" rx="154.85" ry="18"/>
<text text-anchor="middle" x="1695.89" y="-1632.58" font-family="Times New Roman,serif" font-size="14.00">Industry_Engineering or manufacturing</text>
</g>
<!-- 7&#45;&gt;15 -->
<g id="edge7" class="edge">
<title>7&#45;&gt;15</title>
<path fill="none" stroke="#ff0000" d="M1361.18,-1561.02C1428.74,-1576.61 1538.22,-1601.86 1613.23,-1619.16"/>
<polygon fill="#ff0000" stroke="#ff0000" points="1612.03,-1622.48 1622.56,-1621.32 1613.6,-1615.66 1612.03,-1622.48"/>
<text text-anchor="middle" x="1491.16" y="-1599.45" font-family="Times New Roman,serif" font-size="14.00">yes</text>
</g>
<!-- 16 -->
<g id="node9" class="node">
<title>16</title>
<ellipse fill="none" stroke="black" cx="1695.89" cy="-1547" rx="130.4" ry="18"/>
<text text-anchor="middle" x="1695.89" y="-1541.58" font-family="Times New Roman,serif" font-size="14.00">Industry_Business or consulting</text>
</g>
<!-- 7&#45;&gt;16 -->
<g id="edge8" class="edge">
<title>7&#45;&gt;16</title>
<path fill="none" stroke="#0000ff" d="M1394.64,-1547C1442.31,-1547 1501.12,-1547 1554.03,-1547"/>
<polygon fill="#0000ff" stroke="#0000ff" points="1553.71,-1550.5 1563.71,-1547 1553.71,-1543.5 1553.71,-1550.5"/>
<text text-anchor="middle" x="1491.16" y="-1549.45" font-family="Times New Roman,serif" font-size="14.00">no, missing</text>
</g>
<!-- 17 -->
<g id="node14" class="node">
<title>17</title>
<ellipse fill="none" stroke="black" cx="1695.89" cy="-1422" rx="153.36" ry="18"/>
<text text-anchor="middle" x="1695.89" y="-1416.58" font-family="Times New Roman,serif" font-size="14.00">Industry_Education (higher education)</text>
</g>
<!-- 8&#45;&gt;17 -->
<g id="edge13" class="edge">
<title>8&#45;&gt;17</title>
<path fill="none" stroke="#ff0000" d="M1369.57,-1399.73C1419.6,-1403.16 1489,-1407.91 1550.85,-1412.14"/>
<polygon fill="#ff0000" stroke="#ff0000" points="1550.58,-1415.63 1560.79,-1412.82 1551.06,-1408.65 1550.58,-1415.63"/>
<text text-anchor="middle" x="1491.16" y="-1412.45" font-family="Times New Roman,serif" font-size="14.00">yes</text>
</g>
<!-- 18 -->
<g id="node15" class="node">
<title>18</title>
<ellipse fill="none" stroke="black" cx="1695.89" cy="-1368" rx="90.48" ry="18"/>
<text text-anchor="middle" x="1695.89" y="-1362.58" font-family="Times New Roman,serif" font-size="14.00">Years job_2 &#45; 4 years</text>
</g>
<!-- 8&#45;&gt;18 -->
<g id="edge14" class="edge">
<title>8&#45;&gt;18</title>
<path fill="none" stroke="#0000ff" d="M1369.57,-1390.27C1433.02,-1385.92 1527.62,-1379.45 1598.48,-1374.6"/>
<polygon fill="#0000ff" stroke="#0000ff" points="1598.39,-1378.11 1608.13,-1373.94 1597.91,-1371.13 1598.39,-1378.11"/>
<text text-anchor="middle" x="1491.16" y="-1385.45" font-family="Times New Roman,serif" font-size="14.00">no, missing</text>
</g>
<!-- 31 -->
<g id="node10" class="node">
<title>31</title>
<ellipse fill="none" stroke="black" cx="2034.49" cy="-1692" rx="84" ry="18"/>
<text text-anchor="middle" x="2034.49" y="-1686.58" font-family="Times New Roman,serif" font-size="14.00">leaf=&#45;0.0741442144</text>
</g>
<!-- 15&#45;&gt;31 -->
<g id="edge9" class="edge">
<title>15&#45;&gt;31</title>
<path fill="none" stroke="#ff0000" d="M1788.87,-1652.76C1840.88,-1661.1 1905.22,-1671.42 1954.86,-1679.39"/>
<polygon fill="#ff0000" stroke="#ff0000" points="1954.26,-1682.83 1964.69,-1680.96 1955.37,-1675.92 1954.26,-1682.83"/>
<text text-anchor="middle" x="1900.62" y="-1676.45" font-family="Times New Roman,serif" font-size="14.00">yes</text>
</g>
<!-- 32 -->
<g id="node11" class="node">
<title>32</title>
<ellipse fill="none" stroke="black" cx="2034.49" cy="-1638" rx="84" ry="18"/>
<text text-anchor="middle" x="2034.49" y="-1632.58" font-family="Times New Roman,serif" font-size="14.00">leaf=&#45;0.0122100664</text>
</g>
<!-- 15&#45;&gt;32 -->
<g id="edge10" class="edge">
<title>15&#45;&gt;32</title>
<path fill="none" stroke="#0000ff" d="M1850.91,-1638C1881.03,-1638 1911.77,-1638 1939.23,-1638"/>
<polygon fill="#0000ff" stroke="#0000ff" points="1938.87,-1641.5 1948.87,-1638 1938.87,-1634.5 1938.87,-1641.5"/>
<text text-anchor="middle" x="1900.62" y="-1640.45" font-family="Times New Roman,serif" font-size="14.00">no, missing</text>
</g>
<!-- 33 -->
<g id="node12" class="node">
<title>33</title>
<ellipse fill="none" stroke="black" cx="2034.49" cy="-1584" rx="79.51" ry="18"/>
<text text-anchor="middle" x="2034.49" y="-1578.58" font-family="Times New Roman,serif" font-size="14.00">leaf=&#45;0.022322895</text>
</g>
<!-- 16&#45;&gt;33 -->
<g id="edge11" class="edge">
<title>16&#45;&gt;33</title>
<path fill="none" stroke="#ff0000" d="M1799.25,-1558.25C1847.84,-1563.59 1905.14,-1569.89 1950.9,-1574.92"/>
<polygon fill="#ff0000" stroke="#ff0000" points="1950.45,-1578.39 1960.77,-1576.01 1951.22,-1571.43 1950.45,-1578.39"/>
<text text-anchor="middle" x="1900.62" y="-1574.45" font-family="Times New Roman,serif" font-size="14.00">yes</text>
</g>
<!-- 34 -->
<g id="node13" class="node">
<title>34</title>
<ellipse fill="none" stroke="black" cx="2034.49" cy="-1530" rx="76.51" ry="18"/>
<text text-anchor="middle" x="2034.49" y="-1524.58" font-family="Times New Roman,serif" font-size="14.00">leaf=0.113669768</text>
</g>
<!-- 16&#45;&gt;34 -->
<g id="edge12" class="edge">
<title>16&#45;&gt;34</title>
<path fill="none" stroke="#0000ff" d="M1818.89,-1540.84C1861.7,-1538.68 1908.84,-1536.3 1948.01,-1534.32"/>
<polygon fill="#0000ff" stroke="#0000ff" points="1948.05,-1537.82 1957.86,-1533.82 1947.69,-1530.83 1948.05,-1537.82"/>
<text text-anchor="middle" x="1900.62" y="-1539.45" font-family="Times New Roman,serif" font-size="14.00">no, missing</text>
</g>
<!-- 35 -->
<g id="node16" class="node">
<title>35</title>
<ellipse fill="none" stroke="black" cx="2034.49" cy="-1476" rx="76.51" ry="18"/>
<text text-anchor="middle" x="2034.49" y="-1470.58" font-family="Times New Roman,serif" font-size="14.00">leaf=0.061149817</text>
</g>
<!-- 17&#45;&gt;35 -->
<g id="edge15" class="edge">
<title>17&#45;&gt;35</title>
<path fill="none" stroke="#ff0000" d="M1788.42,-1436.68C1842,-1445.28 1908.78,-1455.99 1959.09,-1464.06"/>
<polygon fill="#ff0000" stroke="#ff0000" points="1958.29,-1467.48 1968.72,-1465.61 1959.4,-1460.57 1958.29,-1467.48"/>
<text text-anchor="middle" x="1900.62" y="-1460.45" font-family="Times New Roman,serif" font-size="14.00">yes</text>
</g>
<!-- 36 -->
<g id="node17" class="node">
<title>36</title>
<ellipse fill="none" stroke="black" cx="2034.49" cy="-1422" rx="84" ry="18"/>
<text text-anchor="middle" x="2034.49" y="-1416.58" font-family="Times New Roman,serif" font-size="14.00">leaf=&#45;0.0181810874</text>
</g>
<!-- 17&#45;&gt;36 -->
<g id="edge16" class="edge">
<title>17&#45;&gt;36</title>
<path fill="none" stroke="#0000ff" d="M1849.43,-1422C1879.86,-1422 1910.97,-1422 1938.76,-1422"/>
<polygon fill="#0000ff" stroke="#0000ff" points="1938.53,-1425.5 1948.53,-1422 1938.53,-1418.5 1938.53,-1425.5"/>
<text text-anchor="middle" x="1900.62" y="-1424.45" font-family="Times New Roman,serif" font-size="14.00">no, missing</text>
</g>
<!-- 37 -->
<g id="node18" class="node">
<title>37</title>
<ellipse fill="none" stroke="black" cx="2034.49" cy="-1368" rx="84" ry="18"/>
<text text-anchor="middle" x="2034.49" y="-1362.58" font-family="Times New Roman,serif" font-size="14.00">leaf=&#45;0.0102764573</text>
</g>
<!-- 18&#45;&gt;37 -->
<g id="edge17" class="edge">
<title>18&#45;&gt;37</title>
<path fill="none" stroke="#ff0000" d="M1786.65,-1368C1833.62,-1368 1891.11,-1368 1938.78,-1368"/>
<polygon fill="#ff0000" stroke="#ff0000" points="1938.54,-1371.5 1948.54,-1368 1938.54,-1364.5 1938.54,-1371.5"/>
<text text-anchor="middle" x="1900.62" y="-1370.45" font-family="Times New Roman,serif" font-size="14.00">yes</text>
</g>
<!-- 38 -->
<g id="node19" class="node">
<title>38</title>
<ellipse fill="none" stroke="black" cx="2034.49" cy="-1314" rx="84" ry="18"/>
<text text-anchor="middle" x="2034.49" y="-1308.58" font-family="Times New Roman,serif" font-size="14.00">leaf=&#45;0.0826539025</text>
</g>
<!-- 18&#45;&gt;38 -->
<g id="edge18" class="edge">
<title>18&#45;&gt;38</title>
<path fill="none" stroke="#0000ff" d="M1767.45,-1356.68C1822.3,-1347.88 1898.35,-1335.68 1955.1,-1326.58"/>
<polygon fill="#0000ff" stroke="#0000ff" points="1955.36,-1330.08 1964.68,-1325.04 1954.26,-1323.17 1955.36,-1330.08"/>
<text text-anchor="middle" x="1900.62" y="-1341.45" font-family="Times New Roman,serif" font-size="14.00">no, missing</text>
</g>
<!-- 19 -->
<g id="node22" class="node">
<title>19</title>
<ellipse fill="none" stroke="black" cx="1695.89" cy="-1206" rx="90.48" ry="18"/>
<text text-anchor="middle" x="1695.89" y="-1200.58" font-family="Times New Roman,serif" font-size="14.00">Years job_2 &#45; 4 years</text>
</g>
<!-- 9&#45;&gt;19 -->
<g id="edge21" class="edge">
<title>9&#45;&gt;19</title>
<path fill="none" stroke="#ff0000" d="M1362.91,-1137.83C1432.76,-1152.18 1545.78,-1175.38 1620.22,-1190.67"/>
<polygon fill="#ff0000" stroke="#ff0000" points="1619.39,-1194.07 1629.89,-1192.65 1620.79,-1187.21 1619.39,-1194.07"/>
<text text-anchor="middle" x="1491.16" y="-1172.45" font-family="Times New Roman,serif" font-size="14.00">yes</text>
</g>
<!-- 20 -->
<g id="node23" class="node">
<title>20</title>
<ellipse fill="none" stroke="black" cx="1695.89" cy="-1125" rx="35.6" ry="18"/>
<text text-anchor="middle" x="1695.89" y="-1119.58" font-family="Times New Roman,serif" font-size="14.00">Age&lt;3</text>
</g>
<!-- 9&#45;&gt;20 -->
<g id="edge22" class="edge">
<title>9&#45;&gt;20</title>
<path fill="none" stroke="#0000ff" d="M1387.46,-1125C1467.99,-1125 1584.6,-1125 1648.57,-1125"/>
<polygon fill="#0000ff" stroke="#0000ff" points="1648.37,-1128.5 1658.37,-1125 1648.37,-1121.5 1648.37,-1128.5"/>
<text text-anchor="middle" x="1491.16" y="-1127.45" font-family="Times New Roman,serif" font-size="14.00">no, missing</text>
</g>
<!-- 21 -->
<g id="node28" class="node">
<title>21</title>
<ellipse fill="none" stroke="black" cx="1695.89" cy="-999" rx="94.98" ry="18"/>
<text text-anchor="middle" x="1695.89" y="-993.58" font-family="Times New Roman,serif" font-size="14.00">Years job_8 &#45; 10 years</text>
</g>
<!-- 10&#45;&gt;21 -->
<g id="edge27" class="edge">
<title>10&#45;&gt;21</title>
<path fill="none" stroke="#ff0000" d="M1335.41,-999C1391.75,-999 1504.74,-999 1589.09,-999"/>
<polygon fill="#ff0000" stroke="#ff0000" points="1589.01,-1002.5 1599.01,-999 1589.01,-995.5 1589.01,-1002.5"/>
<text text-anchor="middle" x="1491.16" y="-1001.45" font-family="Times New Roman,serif" font-size="14.00">yes</text>
</g>
<!-- 22 -->
<g id="node29" class="node">
<title>22</title>
<ellipse fill="none" stroke="black" cx="1695.89" cy="-936" rx="56.55" ry="18"/>
<text text-anchor="middle" x="1695.89" y="-930.58" font-family="Times New Roman,serif" font-size="14.00">Race_White</text>
</g>
<!-- 10&#45;&gt;22 -->
<g id="edge28" class="edge">
<title>10&#45;&gt;22</title>
<path fill="none" stroke="#0000ff" d="M1333.7,-993.68C1399.94,-983.1 1549.12,-959.28 1633.58,-945.79"/>
<polygon fill="#0000ff" stroke="#0000ff" points="1633.98,-949.27 1643.31,-944.24 1632.88,-942.36 1633.98,-949.27"/>
<text text-anchor="middle" x="1491.16" y="-975.45" font-family="Times New Roman,serif" font-size="14.00">no, missing</text>
</g>
<!-- 39 -->
<g id="node24" class="node">
<title>39</title>
<ellipse fill="none" stroke="black" cx="2034.49" cy="-1260" rx="81" ry="18"/>
<text text-anchor="middle" x="2034.49" y="-1254.58" font-family="Times New Roman,serif" font-size="14.00">leaf=0.0722253621</text>
</g>
<!-- 19&#45;&gt;39 -->
<g id="edge23" class="edge">
<title>19&#45;&gt;39</title>
<path fill="none" stroke="#ff0000" d="M1767.45,-1217.32C1822.85,-1226.21 1899.86,-1238.56 1956.77,-1247.69"/>
<polygon fill="#ff0000" stroke="#ff0000" points="1955.96,-1251.11 1966.38,-1249.23 1957.06,-1244.19 1955.96,-1251.11"/>
<text text-anchor="middle" x="1900.62" y="-1244.45" font-family="Times New Roman,serif" font-size="14.00">yes</text>
</g>
<!-- 40 -->
<g id="node25" class="node">
<title>40</title>
<ellipse fill="none" stroke="black" cx="2034.49" cy="-1206" rx="84" ry="18"/>
<text text-anchor="middle" x="2034.49" y="-1200.58" font-family="Times New Roman,serif" font-size="14.00">leaf=&#45;0.0188872106</text>
</g>
<!-- 19&#45;&gt;40 -->
<g id="edge24" class="edge">
<title>19&#45;&gt;40</title>
<path fill="none" stroke="#0000ff" d="M1786.65,-1206C1833.62,-1206 1891.11,-1206 1938.78,-1206"/>
<polygon fill="#0000ff" stroke="#0000ff" points="1938.54,-1209.5 1948.54,-1206 1938.54,-1202.5 1938.54,-1209.5"/>
<text text-anchor="middle" x="1900.62" y="-1208.45" font-family="Times New Roman,serif" font-size="14.00">no, missing</text>
</g>
<!-- 41 -->
<g id="node26" class="node">
<title>41</title>
<ellipse fill="none" stroke="black" cx="2034.49" cy="-1152" rx="76.51" ry="18"/>
<text text-anchor="middle" x="2034.49" y="-1146.58" font-family="Times New Roman,serif" font-size="14.00">leaf=0.093634434</text>
</g>
<!-- 20&#45;&gt;41 -->
<g id="edge25" class="edge">
<title>20&#45;&gt;41</title>
<path fill="none" stroke="#ff0000" d="M1731.33,-1127.76C1782.46,-1131.86 1879.99,-1139.69 1950.44,-1145.34"/>
<polygon fill="#ff0000" stroke="#ff0000" points="1949.75,-1148.79 1959.99,-1146.1 1950.3,-1141.82 1949.75,-1148.79"/>
<text text-anchor="middle" x="1900.62" y="-1145.45" font-family="Times New Roman,serif" font-size="14.00">yes</text>
</g>
<!-- 42 -->
<g id="node27" class="node">
<title>42</title>
<ellipse fill="none" stroke="black" cx="2034.49" cy="-1098" rx="76.51" ry="18"/>
<text text-anchor="middle" x="2034.49" y="-1092.58" font-family="Times New Roman,serif" font-size="14.00">leaf=0.207298204</text>
</g>
<!-- 20&#45;&gt;42 -->
<g id="edge26" class="edge">
<title>20&#45;&gt;42</title>
<path fill="none" stroke="#0000ff" d="M1731.33,-1122.24C1782.46,-1118.14 1879.99,-1110.31 1950.44,-1104.66"/>
<polygon fill="#0000ff" stroke="#0000ff" points="1950.3,-1108.18 1959.99,-1103.9 1949.75,-1101.21 1950.3,-1108.18"/>
<text text-anchor="middle" x="1900.62" y="-1112.45" font-family="Times New Roman,serif" font-size="14.00">no, missing</text>
</g>
<!-- 43 -->
<g id="node30" class="node">
<title>43</title>
<ellipse fill="none" stroke="black" cx="2034.49" cy="-1044" rx="81" ry="18"/>
<text text-anchor="middle" x="2034.49" y="-1038.58" font-family="Times New Roman,serif" font-size="14.00">leaf=0.0935023353</text>
</g>
<!-- 21&#45;&gt;43 -->
<g id="edge29" class="edge">
<title>21&#45;&gt;43</title>
<path fill="none" stroke="#ff0000" d="M1774.54,-1009.38C1828.01,-1016.53 1898.88,-1026 1952.96,-1033.23"/>
<polygon fill="#ff0000" stroke="#ff0000" points="1952.36,-1036.68 1962.74,-1034.54 1953.29,-1029.75 1952.36,-1036.68"/>
<text text-anchor="middle" x="1900.62" y="-1031.45" font-family="Times New Roman,serif" font-size="14.00">yes</text>
</g>
<!-- 44 -->
<g id="node31" class="node">
<title>44</title>
<ellipse fill="none" stroke="black" cx="2034.49" cy="-990" rx="76.51" ry="18"/>
<text text-anchor="middle" x="2034.49" y="-984.58" font-family="Times New Roman,serif" font-size="14.00">leaf=0.246793583</text>
</g>
<!-- 21&#45;&gt;44 -->
<g id="edge30" class="edge">
<title>21&#45;&gt;44</title>
<path fill="none" stroke="#0000ff" d="M1790.21,-996.5C1839.2,-995.19 1898.85,-993.6 1946.82,-992.32"/>
<polygon fill="#0000ff" stroke="#0000ff" points="1946.71,-995.82 1956.61,-992.06 1946.52,-988.82 1946.71,-995.82"/>
<text text-anchor="middle" x="1900.62" y="-996.45" font-family="Times New Roman,serif" font-size="14.00">no, missing</text>
</g>
<!-- 45 -->
<g id="node32" class="node">
<title>45</title>
<ellipse fill="none" stroke="black" cx="2034.49" cy="-936" rx="76.51" ry="18"/>
<text text-anchor="middle" x="2034.49" y="-930.58" font-family="Times New Roman,serif" font-size="14.00">leaf=0.280211061</text>
</g>
<!-- 22&#45;&gt;45 -->
<g id="edge31" class="edge">
<title>22&#45;&gt;45</title>
<path fill="none" stroke="#ff0000" d="M1752.85,-936C1805.56,-936 1885.32,-936 1946.36,-936"/>
<polygon fill="#ff0000" stroke="#ff0000" points="1946.01,-939.5 1956.01,-936 1946.01,-932.5 1946.01,-939.5"/>
<text text-anchor="middle" x="1900.62" y="-938.45" font-family="Times New Roman,serif" font-size="14.00">yes</text>
</g>
<!-- 46 -->
<g id="node33" class="node">
<title>46</title>
<ellipse fill="none" stroke="black" cx="2034.49" cy="-882" rx="76.51" ry="18"/>
<text text-anchor="middle" x="2034.49" y="-876.58" font-family="Times New Roman,serif" font-size="14.00">leaf=0.175130442</text>
</g>
<!-- 22&#45;&gt;46 -->
<g id="edge32" class="edge">
<title>22&#45;&gt;46</title>
<path fill="none" stroke="#0000ff" d="M1746.92,-927.97C1802.98,-918.98 1894.45,-904.31 1958.94,-893.96"/>
<polygon fill="#0000ff" stroke="#0000ff" points="1959.44,-897.42 1968.76,-892.38 1958.33,-890.51 1959.44,-897.42"/>
<text text-anchor="middle" x="1900.62" y="-909.45" font-family="Times New Roman,serif" font-size="14.00">no, missing</text>
</g>
<!-- 11 -->
<g id="node36" class="node">
<title>11</title>
<ellipse fill="none" stroke="black" cx="1299.4" cy="-675" rx="85.49" ry="18"/>
<text text-anchor="middle" x="1299.4" y="-669.58" font-family="Times New Roman,serif" font-size="14.00">Years job_5&#45;7 years</text>
</g>
<!-- 5&#45;&gt;11 -->
<g id="edge35" class="edge">
<title>5&#45;&gt;11</title>
<path fill="none" stroke="#ff0000" d="M1025.5,-646.87C1078.37,-652.32 1152.72,-659.99 1210.47,-665.94"/>
<polygon fill="#ff0000" stroke="#ff0000" points="1209.97,-669.4 1220.28,-666.95 1210.69,-662.44 1209.97,-669.4"/>
<text text-anchor="middle" x="1107.65" y="-660.45" font-family="Times New Roman,serif" font-size="14.00">yes</text>
</g>
<!-- 12 -->
<g id="node37" class="node">
<title>12</title>
<ellipse fill="none" stroke="black" cx="1299.4" cy="-604" rx="141.88" ry="18"/>
<text text-anchor="middle" x="1299.4" y="-598.58" font-family="Times New Roman,serif" font-size="14.00">Highest Education_Master&#39;s degree</text>
</g>
<!-- 5&#45;&gt;12 -->
<g id="edge36" class="edge">
<title>5&#45;&gt;12</title>
<path fill="none" stroke="#0000ff" d="M1025.09,-632.97C1068.43,-628.38 1126.32,-622.24 1177.66,-616.8"/>
<polygon fill="#0000ff" stroke="#0000ff" points="1177.77,-620.31 1187.34,-615.77 1177.03,-613.35 1177.77,-620.31"/>
<text text-anchor="middle" x="1107.65" y="-629.45" font-family="Times New Roman,serif" font-size="14.00">no, missing</text>
</g>
<!-- 13 -->
<g id="node50" class="node">
<title>13</title>
<ellipse fill="none" stroke="black" cx="1299.4" cy="-318" rx="82" ry="18"/>
<text text-anchor="middle" x="1299.4" y="-312.57" font-family="Times New Roman,serif" font-size="14.00">Job Title Cluster&lt;1</text>
</g>
<!-- 6&#45;&gt;13 -->
<g id="edge49" class="edge">
<title>6&#45;&gt;13</title>
<path fill="none" stroke="#ff0000" d="M1057.95,-318C1104.6,-318 1159.92,-318 1205.72,-318"/>
<polygon fill="#ff0000" stroke="#ff0000" points="1205.64,-321.5 1215.64,-318 1205.64,-314.5 1205.64,-321.5"/>
<text text-anchor="middle" x="1107.65" y="-320.45" font-family="Times New Roman,serif" font-size="14.00">yes</text>
</g>
<!-- 14 -->
<g id="node51" class="node">
<title>14</title>
<ellipse fill="none" stroke="black" cx="1299.4" cy="-163" rx="64.54" ry="18"/>
<text text-anchor="middle" x="1299.4" y="-157.57" font-family="Times New Roman,serif" font-size="14.00">Country_USA</text>
</g>
<!-- 6&#45;&gt;14 -->
<g id="edge50" class="edge">
<title>6&#45;&gt;14</title>
<path fill="none" stroke="#0000ff" d="M996.12,-300.97C1059.25,-272.15 1186.83,-213.92 1254.29,-183.14"/>
<polygon fill="#0000ff" stroke="#0000ff" points="1255.56,-186.4 1263.2,-179.07 1252.65,-180.04 1255.56,-186.4"/>
<text text-anchor="middle" x="1107.65" y="-265.45" font-family="Times New Roman,serif" font-size="14.00">no, missing</text>
</g>
<!-- 23 -->
<g id="node38" class="node">
<title>23</title>
<ellipse fill="none" stroke="black" cx="1695.89" cy="-774" rx="35.6" ry="18"/>
<text text-anchor="middle" x="1695.89" y="-768.58" font-family="Times New Roman,serif" font-size="14.00">Age&lt;2</text>
</g>
<!-- 11&#45;&gt;23 -->
<g id="edge37" class="edge">
<title>11&#45;&gt;23</title>
<path fill="none" stroke="#ff0000" d="M1355.67,-688.87C1435.38,-708.87 1580.89,-745.39 1652.62,-763.39"/>
<polygon fill="#ff0000" stroke="#ff0000" points="1651.45,-766.71 1662.01,-765.75 1653.16,-759.92 1651.45,-766.71"/>
<text text-anchor="middle" x="1491.16" y="-732.45" font-family="Times New Roman,serif" font-size="14.00">yes</text>
</g>
<!-- 24 -->
<g id="node39" class="node">
<title>24</title>
<ellipse fill="none" stroke="black" cx="1695.89" cy="-675" rx="82" ry="18"/>
<text text-anchor="middle" x="1695.89" y="-669.58" font-family="Times New Roman,serif" font-size="14.00">Job Title Cluster&lt;1</text>
</g>
<!-- 11&#45;&gt;24 -->
<g id="edge38" class="edge">
<title>11&#45;&gt;24</title>
<path fill="none" stroke="#0000ff" d="M1385.03,-675C1448.91,-675 1536.5,-675 1602.25,-675"/>
<polygon fill="#0000ff" stroke="#0000ff" points="1601.93,-678.5 1611.93,-675 1601.93,-671.5 1601.93,-678.5"/>
<text text-anchor="middle" x="1491.16" y="-677.45" font-family="Times New Roman,serif" font-size="14.00">no, missing</text>
</g>
<!-- 25 -->
<g id="node44" class="node">
<title>25</title>
<ellipse fill="none" stroke="black" cx="1695.89" cy="-604" rx="114.44" ry="18"/>
<text text-anchor="middle" x="1695.89" y="-598.58" font-family="Times New Roman,serif" font-size="14.00">Job Title_Software engineer</text>
</g>
<!-- 12&#45;&gt;25 -->
<g id="edge43" class="edge">
<title>12&#45;&gt;25</title>
<path fill="none" stroke="#ff0000" d="M1441.71,-604C1483.54,-604 1529.03,-604 1569.76,-604"/>
<polygon fill="#ff0000" stroke="#ff0000" points="1569.6,-607.5 1579.6,-604 1569.6,-600.5 1569.6,-607.5"/>
<text text-anchor="middle" x="1491.16" y="-606.45" font-family="Times New Roman,serif" font-size="14.00">yes</text>
</g>
<!-- 26 -->
<g id="node45" class="node">
<title>26</title>
<ellipse fill="none" stroke="black" cx="1695.89" cy="-504" rx="64.54" ry="18"/>
<text text-anchor="middle" x="1695.89" y="-498.57" font-family="Times New Roman,serif" font-size="14.00">Country_USA</text>
</g>
<!-- 12&#45;&gt;26 -->
<g id="edge44" class="edge">
<title>12&#45;&gt;26</title>
<path fill="none" stroke="#0000ff" d="M1365.1,-587.6C1440.37,-568.52 1563.55,-537.29 1636.16,-518.89"/>
<polygon fill="#0000ff" stroke="#0000ff" points="1636.63,-522.38 1645.47,-516.53 1634.91,-515.59 1636.63,-522.38"/>
<text text-anchor="middle" x="1491.16" y="-564.45" font-family="Times New Roman,serif" font-size="14.00">no, missing</text>
</g>
<!-- 47 -->
<g id="node40" class="node">
<title>47</title>
<ellipse fill="none" stroke="black" cx="2034.49" cy="-828" rx="84" ry="18"/>
<text text-anchor="middle" x="2034.49" y="-822.58" font-family="Times New Roman,serif" font-size="14.00">leaf=&#45;0.0405252837</text>
</g>
<!-- 23&#45;&gt;47 -->
<g id="edge39" class="edge">
<title>23&#45;&gt;47</title>
<path fill="none" stroke="#ff0000" d="M1730.4,-779.38C1782.4,-787.72 1883.98,-804.01 1955.15,-815.43"/>
<polygon fill="#ff0000" stroke="#ff0000" points="1954.38,-818.85 1964.81,-816.98 1955.49,-811.94 1954.38,-818.85"/>
<text text-anchor="middle" x="1900.62" y="-812.45" font-family="Times New Roman,serif" font-size="14.00">yes</text>
</g>
<!-- 48 -->
<g id="node41" class="node">
<title>48</title>
<ellipse fill="none" stroke="black" cx="2034.49" cy="-774" rx="76.51" ry="18"/>
<text text-anchor="middle" x="2034.49" y="-768.58" font-family="Times New Roman,serif" font-size="14.00">leaf=0.221172556</text>
</g>
<!-- 23&#45;&gt;48 -->
<g id="edge40" class="edge">
<title>23&#45;&gt;48</title>
<path fill="none" stroke="#0000ff" d="M1731.96,-774C1782.2,-774 1876.3,-774 1946.07,-774"/>
<polygon fill="#0000ff" stroke="#0000ff" points="1945.97,-777.5 1955.97,-774 1945.97,-770.5 1945.97,-777.5"/>
<text text-anchor="middle" x="1900.62" y="-776.45" font-family="Times New Roman,serif" font-size="14.00">no, missing</text>
</g>
<!-- 49 -->
<g id="node42" class="node">
<title>49</title>
<ellipse fill="none" stroke="black" cx="2034.49" cy="-720" rx="81" ry="18"/>
<text text-anchor="middle" x="2034.49" y="-714.58" font-family="Times New Roman,serif" font-size="14.00">leaf=0.0986635312</text>
</g>
<!-- 24&#45;&gt;49 -->
<g id="edge41" class="edge">
<title>24&#45;&gt;49</title>
<path fill="none" stroke="#ff0000" d="M1766.63,-684.32C1820.88,-691.58 1896.23,-701.65 1953.03,-709.24"/>
<polygon fill="#ff0000" stroke="#ff0000" points="1952.25,-712.67 1962.63,-710.53 1953.18,-705.73 1952.25,-712.67"/>
<text text-anchor="middle" x="1900.62" y="-707.45" font-family="Times New Roman,serif" font-size="14.00">yes</text>
</g>
<!-- 50 -->
<g id="node43" class="node">
<title>50</title>
<ellipse fill="none" stroke="black" cx="2034.49" cy="-666" rx="76.51" ry="18"/>
<text text-anchor="middle" x="2034.49" y="-660.58" font-family="Times New Roman,serif" font-size="14.00">leaf=0.185883999</text>
</g>
<!-- 24&#45;&gt;50 -->
<g id="edge42" class="edge">
<title>24&#45;&gt;50</title>
<path fill="none" stroke="#0000ff" d="M1777.51,-672.84C1828.61,-671.48 1894.67,-669.71 1946.88,-668.32"/>
<polygon fill="#0000ff" stroke="#0000ff" points="1946.72,-671.82 1956.63,-668.06 1946.54,-664.82 1946.72,-671.82"/>
<text text-anchor="middle" x="1900.62" y="-672.45" font-family="Times New Roman,serif" font-size="14.00">no, missing</text>
</g>
<!-- 51 -->
<g id="node46" class="node">
<title>51</title>
<ellipse fill="none" stroke="black" cx="2034.49" cy="-612" rx="81" ry="18"/>
<text text-anchor="middle" x="2034.49" y="-606.58" font-family="Times New Roman,serif" font-size="14.00">leaf=0.0969537571</text>
</g>
<!-- 25&#45;&gt;51 -->
<g id="edge45" class="edge">
<title>25&#45;&gt;51</title>
<path fill="none" stroke="#ff0000" d="M1809.44,-606.68C1852.59,-607.7 1901.25,-608.86 1942.17,-609.83"/>
<polygon fill="#ff0000" stroke="#ff0000" points="1941.91,-613.32 1951.99,-610.06 1942.07,-606.33 1941.91,-613.32"/>
<text text-anchor="middle" x="1900.62" y="-611.45" font-family="Times New Roman,serif" font-size="14.00">yes</text>
</g>
<!-- 52 -->
<g id="node47" class="node">
<title>52</title>
<ellipse fill="none" stroke="black" cx="2034.49" cy="-558" rx="76.51" ry="18"/>
<text text-anchor="middle" x="2034.49" y="-552.58" font-family="Times New Roman,serif" font-size="14.00">leaf=0.200631544</text>
</g>
<!-- 25&#45;&gt;52 -->
<g id="edge46" class="edge">
<title>25&#45;&gt;52</title>
<path fill="none" stroke="#0000ff" d="M1783.57,-592.15C1836.91,-584.87 1904.67,-575.61 1956.17,-568.57"/>
<polygon fill="#0000ff" stroke="#0000ff" points="1956.63,-572.04 1966.07,-567.21 1955.68,-565.1 1956.63,-572.04"/>
<text text-anchor="middle" x="1900.62" y="-581.45" font-family="Times New Roman,serif" font-size="14.00">no, missing</text>
</g>
<!-- 53 -->
<g id="node48" class="node">
<title>53</title>
<ellipse fill="none" stroke="black" cx="2034.49" cy="-504" rx="84" ry="18"/>
<text text-anchor="middle" x="2034.49" y="-498.57" font-family="Times New Roman,serif" font-size="14.00">leaf=&#45;0.0105827749</text>
</g>
<!-- 26&#45;&gt;53 -->
<g id="edge47" class="edge">
<title>26&#45;&gt;53</title>
<path fill="none" stroke="#ff0000" d="M1760.6,-504C1810.99,-504 1882.1,-504 1939.1,-504"/>
<polygon fill="#ff0000" stroke="#ff0000" points="1938.79,-507.5 1948.79,-504 1938.79,-500.5 1938.79,-507.5"/>
<text text-anchor="middle" x="1900.62" y="-506.45" font-family="Times New Roman,serif" font-size="14.00">yes</text>
</g>
<!-- 54 -->
<g id="node49" class="node">
<title>54</title>
<ellipse fill="none" stroke="black" cx="2034.49" cy="-450" rx="76.51" ry="18"/>
<text text-anchor="middle" x="2034.49" y="-444.57" font-family="Times New Roman,serif" font-size="14.00">leaf=0.150783837</text>
</g>
<!-- 26&#45;&gt;54 -->
<g id="edge48" class="edge">
<title>26&#45;&gt;54</title>
<path fill="none" stroke="#0000ff" d="M1752.47,-495.08C1808.9,-486.03 1896.61,-471.96 1959.03,-461.95"/>
<polygon fill="#0000ff" stroke="#0000ff" points="1959.56,-465.41 1968.88,-460.37 1958.45,-458.49 1959.56,-465.41"/>
<text text-anchor="middle" x="1900.62" y="-477.45" font-family="Times New Roman,serif" font-size="14.00">no, missing</text>
</g>
<!-- 27 -->
<g id="node52" class="node">
<title>27</title>
<ellipse fill="none" stroke="black" cx="1695.89" cy="-342" rx="133.4" ry="18"/>
<text text-anchor="middle" x="1695.89" y="-336.57" font-family="Times New Roman,serif" font-size="14.00">Highest Education_Some college</text>
</g>
<!-- 13&#45;&gt;27 -->
<g id="edge51" class="edge">
<title>13&#45;&gt;27</title>
<path fill="none" stroke="#ff0000" d="M1378.81,-322.77C1431.17,-325.96 1501.33,-330.22 1562.25,-333.93"/>
<polygon fill="#ff0000" stroke="#ff0000" points="1561.8,-337.41 1572,-334.52 1562.23,-330.42 1561.8,-337.41"/>
<text text-anchor="middle" x="1491.16" y="-333.45" font-family="Times New Roman,serif" font-size="14.00">yes</text>
</g>
<!-- 28 -->
<g id="node53" class="node">
<title>28</title>
<ellipse fill="none" stroke="black" cx="1695.89" cy="-288" rx="92.98" ry="18"/>
<text text-anchor="middle" x="1695.89" y="-282.57" font-family="Times New Roman,serif" font-size="14.00">Job Title_Data analyst</text>
</g>
<!-- 13&#45;&gt;28 -->
<g id="edge52" class="edge">
<title>13&#45;&gt;28</title>
<path fill="none" stroke="#0000ff" d="M1377.4,-312.14C1440.38,-307.36 1529.8,-300.55 1597.7,-295.39"/>
<polygon fill="#0000ff" stroke="#0000ff" points="1597.62,-298.91 1607.33,-294.66 1597.09,-291.93 1597.62,-298.91"/>
<text text-anchor="middle" x="1491.16" y="-307.45" font-family="Times New Roman,serif" font-size="14.00">no, missing</text>
</g>
<!-- 29 -->
<g id="node58" class="node">
<title>29</title>
<ellipse fill="none" stroke="black" cx="1695.89" cy="-163" rx="82" ry="18"/>
<text text-anchor="middle" x="1695.89" y="-157.57" font-family="Times New Roman,serif" font-size="14.00">Job Title Cluster&lt;1</text>
</g>
<!-- 14&#45;&gt;29 -->
<g id="edge57" class="edge">
<title>14&#45;&gt;29</title>
<path fill="none" stroke="#ff0000" d="M1364.22,-163C1428.7,-163 1528.99,-163 1602.22,-163"/>
<polygon fill="#ff0000" stroke="#ff0000" points="1602.22,-166.5 1612.22,-163 1602.22,-159.5 1602.22,-166.5"/>
<text text-anchor="middle" x="1491.16" y="-165.45" font-family="Times New Roman,serif" font-size="14.00">yes</text>
</g>
<!-- 30 -->
<g id="node59" class="node">
<title>30</title>
<ellipse fill="none" stroke="black" cx="1695.89" cy="-72" rx="72.52" ry="18"/>
<text text-anchor="middle" x="1695.89" y="-66.58" font-family="Times New Roman,serif" font-size="14.00">Gender_Woman</text>
</g>
<!-- 14&#45;&gt;30 -->
<g id="edge58" class="edge">
<title>14&#45;&gt;30</title>
<path fill="none" stroke="#0000ff" d="M1349.97,-151.57C1421.07,-135.16 1552.08,-104.94 1630.57,-86.84"/>
<polygon fill="#0000ff" stroke="#0000ff" points="1631.32,-90.26 1640.28,-84.6 1629.75,-83.43 1631.32,-90.26"/>
<text text-anchor="middle" x="1491.16" y="-127.45" font-family="Times New Roman,serif" font-size="14.00">no, missing</text>
</g>
<!-- 55 -->
<g id="node54" class="node">
<title>55</title>
<ellipse fill="none" stroke="black" cx="2034.49" cy="-396" rx="81" ry="18"/>
<text text-anchor="middle" x="2034.49" y="-390.57" font-family="Times New Roman,serif" font-size="14.00">leaf=0.0268686414</text>
</g>
<!-- 27&#45;&gt;55 -->
<g id="edge53" class="edge">
<title>27&#45;&gt;55</title>
<path fill="none" stroke="#ff0000" d="M1783.57,-355.91C1837.11,-364.49 1905.18,-375.42 1956.76,-383.69"/>
<polygon fill="#ff0000" stroke="#ff0000" points="1955.91,-387.1 1966.34,-385.23 1957.02,-380.19 1955.91,-387.1"/>
<text text-anchor="middle" x="1900.62" y="-380.45" font-family="Times New Roman,serif" font-size="14.00">yes</text>
</g>
<!-- 56 -->
<g id="node55" class="node">
<title>56</title>
<ellipse fill="none" stroke="black" cx="2034.49" cy="-342" rx="84" ry="18"/>
<text text-anchor="middle" x="2034.49" y="-336.57" font-family="Times New Roman,serif" font-size="14.00">leaf=&#45;0.0597020648</text>
</g>
<!-- 27&#45;&gt;56 -->
<g id="edge54" class="edge">
<title>27&#45;&gt;56</title>
<path fill="none" stroke="#0000ff" d="M1829.44,-342C1865.97,-342 1904.85,-342 1938.77,-342"/>
<polygon fill="#0000ff" stroke="#0000ff" points="1938.56,-345.5 1948.56,-342 1938.56,-338.5 1938.56,-345.5"/>
<text text-anchor="middle" x="1900.62" y="-344.45" font-family="Times New Roman,serif" font-size="14.00">no, missing</text>
</g>
<!-- 57 -->
<g id="node56" class="node">
<title>57</title>
<ellipse fill="none" stroke="black" cx="2034.49" cy="-288" rx="76.51" ry="18"/>
<text text-anchor="middle" x="2034.49" y="-282.57" font-family="Times New Roman,serif" font-size="14.00">leaf=0.103140384</text>
</g>
<!-- 28&#45;&gt;57 -->
<g id="edge55" class="edge">
<title>28&#45;&gt;57</title>
<path fill="none" stroke="#ff0000" d="M1789.31,-288C1838.32,-288 1898.19,-288 1946.38,-288"/>
<polygon fill="#ff0000" stroke="#ff0000" points="1946.22,-291.5 1956.22,-288 1946.22,-284.5 1946.22,-291.5"/>
<text text-anchor="middle" x="1900.62" y="-290.45" font-family="Times New Roman,serif" font-size="14.00">yes</text>
</g>
<!-- 58 -->
<g id="node57" class="node">
<title>58</title>
<ellipse fill="none" stroke="black" cx="2034.49" cy="-234" rx="84" ry="18"/>
<text text-anchor="middle" x="2034.49" y="-228.57" font-family="Times New Roman,serif" font-size="14.00">leaf=&#45;0.0222564451</text>
</g>
<!-- 28&#45;&gt;58 -->
<g id="edge56" class="edge">
<title>28&#45;&gt;58</title>
<path fill="none" stroke="#0000ff" d="M1768.69,-276.48C1823.33,-267.72 1898.47,-255.66 1954.75,-246.63"/>
<polygon fill="#0000ff" stroke="#0000ff" points="1955.29,-250.09 1964.61,-245.05 1954.18,-243.18 1955.29,-250.09"/>
<text text-anchor="middle" x="1900.62" y="-261.45" font-family="Times New Roman,serif" font-size="14.00">no, missing</text>
</g>
<!-- 59 -->
<g id="node60" class="node">
<title>59</title>
<ellipse fill="none" stroke="black" cx="2034.49" cy="-180" rx="76.51" ry="18"/>
<text text-anchor="middle" x="2034.49" y="-174.57" font-family="Times New Roman,serif" font-size="14.00">leaf=0.085139513</text>
</g>
<!-- 29&#45;&gt;59 -->
<g id="edge59" class="edge">
<title>29&#45;&gt;59</title>
<path fill="none" stroke="#ff0000" d="M1776.23,-167.01C1827.84,-169.61 1895.11,-173.01 1947.91,-175.68"/>
<polygon fill="#ff0000" stroke="#ff0000" points="1947.62,-179.17 1957.78,-176.18 1947.97,-172.18 1947.62,-179.17"/>
<text text-anchor="middle" x="1900.62" y="-176.45" font-family="Times New Roman,serif" font-size="14.00">yes</text>
</g>
<!-- 60 -->
<g id="node61" class="node">
<title>60</title>
<ellipse fill="none" stroke="black" cx="2034.49" cy="-126" rx="81" ry="18"/>
<text text-anchor="middle" x="2034.49" y="-120.58" font-family="Times New Roman,serif" font-size="14.00">leaf=0.0161090437</text>
</g>
<!-- 29&#45;&gt;60 -->
<g id="edge60" class="edge">
<title>29&#45;&gt;60</title>
<path fill="none" stroke="#0000ff" d="M1769.93,-154.97C1822.93,-149.15 1894.72,-141.25 1950,-135.18"/>
<polygon fill="#0000ff" stroke="#0000ff" points="1950.11,-138.69 1959.67,-134.11 1949.35,-131.73 1950.11,-138.69"/>
<text text-anchor="middle" x="1900.62" y="-145.45" font-family="Times New Roman,serif" font-size="14.00">no, missing</text>
</g>
<!-- 61 -->
<g id="node62" class="node">
<title>61</title>
<ellipse fill="none" stroke="black" cx="2034.49" cy="-72" rx="76.51" ry="18"/>
<text text-anchor="middle" x="2034.49" y="-66.58" font-family="Times New Roman,serif" font-size="14.00">leaf=0.265440106</text>
</g>
<!-- 30&#45;&gt;61 -->
<g id="edge61" class="edge">
<title>30&#45;&gt;61</title>
<path fill="none" stroke="#ff0000" d="M1768.69,-72C1820.71,-72 1891.31,-72 1946.53,-72"/>
<polygon fill="#ff0000" stroke="#ff0000" points="1946.2,-75.5 1956.2,-72 1946.2,-68.5 1946.2,-75.5"/>
<text text-anchor="middle" x="1900.62" y="-74.45" font-family="Times New Roman,serif" font-size="14.00">yes</text>
</g>
<!-- 62 -->
<g id="node63" class="node">
<title>62</title>
<ellipse fill="none" stroke="black" cx="2034.49" cy="-18" rx="76.51" ry="18"/>
<text text-anchor="middle" x="2034.49" y="-12.57" font-family="Times New Roman,serif" font-size="14.00">leaf=0.174980074</text>
</g>
<!-- 30&#45;&gt;62 -->
<g id="edge62" class="edge">
<title>30&#45;&gt;62</title>
<path fill="none" stroke="#0000ff" d="M1757.85,-62.22C1814.47,-53.14 1898.92,-39.59 1959.42,-29.88"/>
<polygon fill="#0000ff" stroke="#0000ff" points="1959.61,-33.4 1968.93,-28.36 1958.5,-26.49 1959.61,-33.4"/>
<text text-anchor="middle" x="1900.62" y="-45.45" font-family="Times New Roman,serif" font-size="14.00">no, missing</text>
</g>
</g>
</svg>
