<?xml version="1.0" encoding="UTF-8" standalone="no"?>
<!DOCTYPE svg PUBLIC "-//W3C//DTD SVG 1.1//EN"
 "http://www.w3.org/Graphics/SVG/1.1/DTD/svg11.dtd">
<!-- Generated by graphviz version 11.0.0 (20240428.1522)
 -->
<!-- Pages: 1 -->
<svg width="1106pt" height="314pt"
 viewBox="0.00 0.00 1105.98 314.00" xmlns="http://www.w3.org/2000/svg" xmlns:xlink="http://www.w3.org/1999/xlink">
<g id="graph0" class="graph" transform="scale(1 1) rotate(0) translate(4 310)">
<polygon fill="white" stroke="none" points="-4,4 -4,-310 1101.98,-310 1101.98,4 -4,4"/>
<!-- 0 -->
<g id="node1" class="node">
<title>0</title>
<ellipse fill="none" stroke="black" cx="116.43" cy="-125" rx="116.43" ry="18"/>
<text text-anchor="middle" x="116.43" y="-119.58" font-family="Times New Roman,serif" font-size="14.00">Industry_Computing or tech</text>
</g>
<!-- 1 -->
<g id="node2" class="node">
<title>1</title>
<ellipse fill="none" stroke="black" cx="423.1" cy="-171" rx="62.54" ry="18"/>
<text text-anchor="middle" x="423.1" y="-165.57" font-family="Times New Roman,serif" font-size="14.00">Industry_Law</text>
</g>
<!-- 0&#45;&gt;1 -->
<g id="edge1" class="edge">
<title>0&#45;&gt;1</title>
<path fill="none" stroke="#ff0000" d="M201.49,-137.69C250.2,-145.05 310.66,-154.17 355.96,-161.01"/>
<polygon fill="#ff0000" stroke="#ff0000" points="355.22,-164.44 365.63,-162.47 356.27,-157.52 355.22,-164.44"/>
<text text-anchor="middle" x="282.74" y="-155.45" font-family="Times New Roman,serif" font-size="14.00">yes</text>
</g>
<!-- 2 -->
<g id="node3" class="node">
<title>2</title>
<ellipse fill="none" stroke="black" cx="423.1" cy="-72" rx="90.48" ry="18"/>
<text text-anchor="middle" x="423.1" y="-66.58" font-family="Times New Roman,serif" font-size="14.00">Years job_2 &#45; 4 years</text>
</g>
<!-- 0&#45;&gt;2 -->
<g id="edge2" class="edge">
<title>0&#45;&gt;2</title>
<path fill="none" stroke="#0000ff" d="M195.5,-111.42C240.52,-103.59 297,-93.76 342.31,-85.88"/>
<polygon fill="#0000ff" stroke="#0000ff" points="342.83,-89.34 352.08,-84.18 341.63,-82.45 342.83,-89.34"/>
<text text-anchor="middle" x="282.74" y="-103.45" font-family="Times New Roman,serif" font-size="14.00">no, missing</text>
</g>
<!-- 3 -->
<g id="node4" class="node">
<title>3</title>
<ellipse fill="none" stroke="black" cx="712.8" cy="-234" rx="99.47" ry="18"/>
<text text-anchor="middle" x="712.8" y="-228.57" font-family="Times New Roman,serif" font-size="14.00">Years job_21 &#45; 30 years</text>
</g>
<!-- 1&#45;&gt;3 -->
<g id="edge3" class="edge">
<title>1&#45;&gt;3</title>
<path fill="none" stroke="#ff0000" d="M473.88,-181.9C518.76,-191.73 585.38,-206.32 636.72,-217.56"/>
<polygon fill="#ff0000" stroke="#ff0000" points="635.77,-220.93 646.28,-219.65 637.26,-214.1 635.77,-220.93"/>
<text text-anchor="middle" x="563.46" y="-210.45" font-family="Times New Roman,serif" font-size="14.00">yes</text>
</g>
<!-- 4 -->
<g id="node5" class="node">
<title>4</title>
<ellipse fill="none" stroke="black" cx="712.8" cy="-171" rx="35.6" ry="18"/>
<text text-anchor="middle" x="712.8" y="-165.57" font-family="Times New Roman,serif" font-size="14.00">Age&lt;3</text>
</g>
<!-- 1&#45;&gt;4 -->
<g id="edge4" class="edge">
<title>1&#45;&gt;4</title>
<path fill="none" stroke="#0000ff" d="M485.82,-171C539.66,-171 616.59,-171 665.36,-171"/>
<polygon fill="#0000ff" stroke="#0000ff" points="665.3,-174.5 675.3,-171 665.3,-167.5 665.3,-174.5"/>
<text text-anchor="middle" x="563.46" y="-173.45" font-family="Times New Roman,serif" font-size="14.00">no, missing</text>
</g>
<!-- 5 -->
<g id="node10" class="node">
<title>5</title>
<ellipse fill="none" stroke="black" cx="712.8" cy="-72" rx="35.6" ry="18"/>
<text text-anchor="middle" x="712.8" y="-66.58" font-family="Times New Roman,serif" font-size="14.00">Age&lt;2</text>
</g>
<!-- 2&#45;&gt;5 -->
<g id="edge9" class="edge">
<title>2&#45;&gt;5</title>
<path fill="none" stroke="#ff0000" d="M513.95,-72C564.22,-72 624.78,-72 665.55,-72"/>
<polygon fill="#ff0000" stroke="#ff0000" points="665.5,-75.5 675.5,-72 665.5,-68.5 665.5,-75.5"/>
<text text-anchor="middle" x="563.46" y="-74.45" font-family="Times New Roman,serif" font-size="14.00">yes</text>
</g>
<!-- 6 -->
<g id="node11" class="node">
<title>6</title>
<ellipse fill="none" stroke="black" cx="712.8" cy="-18" rx="84" ry="18"/>
<text text-anchor="middle" x="712.8" y="-12.57" font-family="Times New Roman,serif" font-size="14.00">leaf=&#45;0.0468602851</text>
</g>
<!-- 2&#45;&gt;6 -->
<g id="edge10" class="edge">
<title>2&#45;&gt;6</title>
<path fill="none" stroke="#0000ff" d="M490.1,-59.61C534,-51.37 591.73,-40.54 637.27,-31.99"/>
<polygon fill="#0000ff" stroke="#0000ff" points="637.9,-35.43 647.09,-30.15 636.61,-28.55 637.9,-35.43"/>
<text text-anchor="middle" x="563.46" y="-53.45" font-family="Times New Roman,serif" font-size="14.00">no, missing</text>
</g>
<!-- 7 -->
<g id="node6" class="node">
<title>7</title>
<ellipse fill="none" stroke="black" cx="1005" cy="-288" rx="84" ry="18"/>
<text text-anchor="middle" x="1005" y="-282.57" font-family="Times New Roman,serif" font-size="14.00">leaf=&#45;0.0626646057</text>
</g>
<!-- 3&#45;&gt;7 -->
<g id="edge5" class="edge">
<title>3&#45;&gt;7</title>
<path fill="none" stroke="#ff0000" d="M783.68,-247C827.74,-255.2 884.6,-265.78 929.52,-274.14"/>
<polygon fill="#ff0000" stroke="#ff0000" points="928.7,-277.55 939.17,-275.94 929.98,-270.67 928.7,-277.55"/>
<text text-anchor="middle" x="862.14" y="-269.45" font-family="Times New Roman,serif" font-size="14.00">yes</text>
</g>
<!-- 8 -->
<g id="node7" class="node">
<title>8</title>
<ellipse fill="none" stroke="black" cx="1005" cy="-234" rx="88.49" ry="18"/>
<text text-anchor="middle" x="1005" y="-228.57" font-family="Times New Roman,serif" font-size="14.00">leaf=&#45;0.00976384897</text>
</g>
<!-- 3&#45;&gt;8 -->
<g id="edge6" class="edge">
<title>3&#45;&gt;8</title>
<path fill="none" stroke="#0000ff" d="M812.45,-234C842.32,-234 875.12,-234 905.01,-234"/>
<polygon fill="#0000ff" stroke="#0000ff" points="904.8,-237.5 914.8,-234 904.8,-230.5 904.8,-237.5"/>
<text text-anchor="middle" x="862.14" y="-236.45" font-family="Times New Roman,serif" font-size="14.00">no, missing</text>
</g>
<!-- 9 -->
<g id="node8" class="node">
<title>9</title>
<ellipse fill="none" stroke="black" cx="1005" cy="-180" rx="92.98" ry="18"/>
<text text-anchor="middle" x="1005" y="-174.57" font-family="Times New Roman,serif" font-size="14.00">leaf=&#45;0.000922930252</text>
</g>
<!-- 4&#45;&gt;9 -->
<g id="edge7" class="edge">
<title>4&#45;&gt;9</title>
<path fill="none" stroke="#ff0000" d="M748.8,-172.09C786.52,-173.26 848.32,-175.17 901.65,-176.83"/>
<polygon fill="#ff0000" stroke="#ff0000" points="901.28,-180.32 911.38,-177.13 901.49,-173.32 901.28,-180.32"/>
<text text-anchor="middle" x="862.14" y="-178.45" font-family="Times New Roman,serif" font-size="14.00">yes</text>
</g>
<!-- 10 -->
<g id="node9" class="node">
<title>10</title>
<ellipse fill="none" stroke="black" cx="1005" cy="-126" rx="85.49" ry="18"/>
<text text-anchor="middle" x="1005" y="-120.58" font-family="Times New Roman,serif" font-size="14.00">leaf=0.00906107482</text>
</g>
<!-- 4&#45;&gt;10 -->
<g id="edge8" class="edge">
<title>4&#45;&gt;10</title>
<path fill="none" stroke="#0000ff" d="M747.37,-165.79C790.17,-159.16 865.58,-147.46 923.61,-138.47"/>
<polygon fill="#0000ff" stroke="#0000ff" points="924.13,-141.93 933.47,-136.94 923.06,-135.01 924.13,-141.93"/>
<text text-anchor="middle" x="862.14" y="-154.45" font-family="Times New Roman,serif" font-size="14.00">no, missing</text>
</g>
<!-- 11 -->
<g id="node12" class="node">
<title>11</title>
<ellipse fill="none" stroke="black" cx="1005" cy="-72" rx="84" ry="18"/>
<text text-anchor="middle" x="1005" y="-66.58" font-family="Times New Roman,serif" font-size="14.00">leaf=&#45;0.0555320345</text>
</g>
<!-- 5&#45;&gt;11 -->
<g id="edge11" class="edge">
<title>5&#45;&gt;11</title>
<path fill="none" stroke="#ff0000" d="M748.8,-72C788.36,-72 854.41,-72 909.4,-72"/>
<polygon fill="#ff0000" stroke="#ff0000" points="909.08,-75.5 919.08,-72 909.08,-68.5 909.08,-75.5"/>
<text text-anchor="middle" x="862.14" y="-74.45" font-family="Times New Roman,serif" font-size="14.00">yes</text>
</g>
<!-- 12 -->
<g id="node13" class="node">
<title>12</title>
<ellipse fill="none" stroke="black" cx="1005" cy="-18" rx="76.51" ry="18"/>
<text text-anchor="middle" x="1005" y="-12.57" font-family="Times New Roman,serif" font-size="14.00">leaf=0.111207686</text>
</g>
<!-- 5&#45;&gt;12 -->
<g id="edge12" class="edge">
<title>5&#45;&gt;12</title>
<path fill="none" stroke="#0000ff" d="M746.81,-65.86C791.75,-57.5 873.36,-42.31 932.63,-31.28"/>
<polygon fill="#0000ff" stroke="#0000ff" points="933.11,-34.75 942.3,-29.48 931.83,-27.87 933.11,-34.75"/>
<text text-anchor="middle" x="862.14" y="-51.45" font-family="Times New Roman,serif" font-size="14.00">no, missing</text>
</g>
</g>
</svg>
