<?xml version="1.0" encoding="UTF-8" standalone="no"?>
<!DOCTYPE svg PUBLIC "-//W3C//DTD SVG 1.1//EN"
 "http://www.w3.org/Graphics/SVG/1.1/DTD/svg11.dtd">
<!-- Generated by graphviz version 11.0.0 (20240428.1522)
 -->
<!-- Pages: 1 -->
<svg width="2007pt" height="1610pt"
 viewBox="0.00 0.00 2006.73 1610.00" xmlns="http://www.w3.org/2000/svg" xmlns:xlink="http://www.w3.org/1999/xlink">
<g id="graph0" class="graph" transform="scale(1 1) rotate(0) translate(4 1606)">
<polygon fill="white" stroke="none" points="-4,4 -4,-1606 2002.73,-1606 2002.73,4 -4,4"/>
<!-- 0 -->
<g id="node1" class="node">
<title>0</title>
<ellipse fill="none" stroke="black" cx="116.43" cy="-765" rx="116.43" ry="18"/>
<text text-anchor="middle" x="116.43" y="-759.58" font-family="Times New Roman,serif" font-size="14.00">Industry_Computing or tech</text>
</g>
<!-- 1 -->
<g id="node2" class="node">
<title>1</title>
<ellipse fill="none" stroke="black" cx="545.35" cy="-968" rx="212.74" ry="18"/>
<text text-anchor="middle" x="545.35" y="-962.58" font-family="Times New Roman,serif" font-size="14.00">Highest Education_Professional degree (MD, JD, etc.)</text>
</g>
<!-- 0&#45;&gt;1 -->
<g id="edge1" class="edge">
<title>0&#45;&gt;1</title>
<path fill="none" stroke="#ff0000" d="M154.2,-782.48C231.28,-819.14 409.78,-904.01 496,-945.01"/>
<polygon fill="#ff0000" stroke="#ff0000" points="494.4,-948.12 504.93,-949.26 497.4,-941.8 494.4,-948.12"/>
<text text-anchor="middle" x="282.74" y="-856.45" font-family="Times New Roman,serif" font-size="14.00">yes</text>
</g>
<!-- 2 -->
<g id="node3" class="node">
<title>2</title>
<ellipse fill="none" stroke="black" cx="545.35" cy="-550" rx="64.54" ry="18"/>
<text text-anchor="middle" x="545.35" y="-544.58" font-family="Times New Roman,serif" font-size="14.00">Country_USA</text>
</g>
<!-- 0&#45;&gt;2 -->
<g id="edge2" class="edge">
<title>0&#45;&gt;2</title>
<path fill="none" stroke="#0000ff" d="M152.37,-747.41C230.38,-708.12 418.49,-613.39 502.55,-571.05"/>
<polygon fill="#0000ff" stroke="#0000ff" points="504.04,-574.22 511.4,-566.6 500.89,-567.97 504.04,-574.22"/>
<text text-anchor="middle" x="282.74" y="-697.45" font-family="Times New Roman,serif" font-size="14.00">no, missing</text>
</g>
<!-- 3 -->
<g id="node4" class="node">
<title>3</title>
<ellipse fill="none" stroke="black" cx="948.33" cy="-1287" rx="35.6" ry="18"/>
<text text-anchor="middle" x="948.33" y="-1281.58" font-family="Times New Roman,serif" font-size="14.00">Age&lt;3</text>
</g>
<!-- 1&#45;&gt;3 -->
<g id="edge3" class="edge">
<title>1&#45;&gt;3</title>
<path fill="none" stroke="#ff0000" d="M569.35,-986.3C638.45,-1041.27 844.08,-1204.86 919.33,-1264.73"/>
<polygon fill="#ff0000" stroke="#ff0000" points="917.06,-1267.4 927.07,-1270.88 921.42,-1261.92 917.06,-1267.4"/>
<text text-anchor="middle" x="807.97" y="-1203.45" font-family="Times New Roman,serif" font-size="14.00">yes</text>
</g>
<!-- 4 -->
<g id="node5" class="node">
<title>4</title>
<ellipse fill="none" stroke="black" cx="948.33" cy="-968" rx="64.54" ry="18"/>
<text text-anchor="middle" x="948.33" y="-962.58" font-family="Times New Roman,serif" font-size="14.00">Country_USA</text>
</g>
<!-- 1&#45;&gt;4 -->
<g id="edge4" class="edge">
<title>1&#45;&gt;4</title>
<path fill="none" stroke="#0000ff" d="M758.58,-968C799.41,-968 839.6,-968 872.32,-968"/>
<polygon fill="#0000ff" stroke="#0000ff" points="872.06,-971.5 882.06,-968 872.06,-964.5 872.06,-971.5"/>
<text text-anchor="middle" x="807.97" y="-970.45" font-family="Times New Roman,serif" font-size="14.00">no, missing</text>
</g>
<!-- 5 -->
<g id="node34" class="node">
<title>5</title>
<ellipse fill="none" stroke="black" cx="948.33" cy="-550" rx="90.48" ry="18"/>
<text text-anchor="middle" x="948.33" y="-544.58" font-family="Times New Roman,serif" font-size="14.00">Years job_2 &#45; 4 years</text>
</g>
<!-- 2&#45;&gt;5 -->
<g id="edge33" class="edge">
<title>2&#45;&gt;5</title>
<path fill="none" stroke="#ff0000" d="M610.33,-550C673.85,-550 772.17,-550 846.25,-550"/>
<polygon fill="#ff0000" stroke="#ff0000" points="845.94,-553.5 855.94,-550 845.94,-546.5 845.94,-553.5"/>
<text text-anchor="middle" x="807.97" y="-552.45" font-family="Times New Roman,serif" font-size="14.00">yes</text>
</g>
<!-- 6 -->
<g id="node35" class="node">
<title>6</title>
<ellipse fill="none" stroke="black" cx="948.33" cy="-315" rx="90.48" ry="18"/>
<text text-anchor="middle" x="948.33" y="-309.57" font-family="Times New Roman,serif" font-size="14.00">Years job_2 &#45; 4 years</text>
</g>
<!-- 2&#45;&gt;6 -->
<g id="edge34" class="edge">
<title>2&#45;&gt;6</title>
<path fill="none" stroke="#0000ff" d="M574.55,-533.48C644.72,-492.35 827.36,-385.31 908.04,-338.03"/>
<polygon fill="#0000ff" stroke="#0000ff" points="909.65,-341.14 916.51,-333.06 906.11,-335.1 909.65,-341.14"/>
<text text-anchor="middle" x="807.97" y="-413.45" font-family="Times New Roman,serif" font-size="14.00">no, missing</text>
</g>
<!-- 7 -->
<g id="node6" class="node">
<title>7</title>
<ellipse fill="none" stroke="black" cx="1238.53" cy="-1449" rx="64.54" ry="18"/>
<text text-anchor="middle" x="1238.53" y="-1443.58" font-family="Times New Roman,serif" font-size="14.00">Country_USA</text>
</g>
<!-- 3&#45;&gt;7 -->
<g id="edge5" class="edge">
<title>3&#45;&gt;7</title>
<path fill="none" stroke="#ff0000" d="M972.91,-1300.26C1022.47,-1328.12 1137.86,-1392.98 1198.58,-1427.11"/>
<polygon fill="#ff0000" stroke="#ff0000" points="1196.79,-1430.12 1207.22,-1431.97 1200.22,-1424.02 1196.79,-1430.12"/>
<text text-anchor="middle" x="1088.69" y="-1384.45" font-family="Times New Roman,serif" font-size="14.00">yes</text>
</g>
<!-- 8 -->
<g id="node7" class="node">
<title>8</title>
<ellipse fill="none" stroke="black" cx="1238.53" cy="-1287" rx="72.52" ry="18"/>
<text text-anchor="middle" x="1238.53" y="-1281.58" font-family="Times New Roman,serif" font-size="14.00">Gender_Woman</text>
</g>
<!-- 3&#45;&gt;8 -->
<g id="edge6" class="edge">
<title>3&#45;&gt;8</title>
<path fill="none" stroke="#0000ff" d="M984.38,-1287C1026.27,-1287 1097.77,-1287 1154.12,-1287"/>
<polygon fill="#0000ff" stroke="#0000ff" points="1154.03,-1290.5 1164.03,-1287 1154.03,-1283.5 1154.03,-1290.5"/>
<text text-anchor="middle" x="1088.69" y="-1289.45" font-family="Times New Roman,serif" font-size="14.00">no, missing</text>
</g>
<!-- 9 -->
<g id="node20" class="node">
<title>9</title>
<ellipse fill="none" stroke="black" cx="1238.53" cy="-1027" rx="99.47" ry="18"/>
<text text-anchor="middle" x="1238.53" y="-1021.58" font-family="Times New Roman,serif" font-size="14.00">Years job_11 &#45; 20 years</text>
</g>
<!-- 4&#45;&gt;9 -->
<g id="edge19" class="edge">
<title>4&#45;&gt;9</title>
<path fill="none" stroke="#ff0000" d="M1001.18,-978.62C1045.4,-987.67 1109.62,-1000.81 1159.95,-1011.12"/>
<polygon fill="#ff0000" stroke="#ff0000" points="1159.14,-1014.53 1169.64,-1013.1 1160.54,-1007.67 1159.14,-1014.53"/>
<text text-anchor="middle" x="1088.69" y="-1004.45" font-family="Times New Roman,serif" font-size="14.00">yes</text>
</g>
<!-- 10 -->
<g id="node21" class="node">
<title>10</title>
<ellipse fill="none" stroke="black" cx="1238.53" cy="-909" rx="90.48" ry="18"/>
<text text-anchor="middle" x="1238.53" y="-903.58" font-family="Times New Roman,serif" font-size="14.00">Years job_2 &#45; 4 years</text>
</g>
<!-- 4&#45;&gt;10 -->
<g id="edge20" class="edge">
<title>4&#45;&gt;10</title>
<path fill="none" stroke="#0000ff" d="M1001.18,-957.38C1046.23,-948.16 1112.03,-934.69 1162.77,-924.3"/>
<polygon fill="#0000ff" stroke="#0000ff" points="1163.43,-927.74 1172.52,-922.31 1162.03,-920.88 1163.43,-927.74"/>
<text text-anchor="middle" x="1088.69" y="-947.45" font-family="Times New Roman,serif" font-size="14.00">no, missing</text>
</g>
<!-- 15 -->
<g id="node8" class="node">
<title>15</title>
<ellipse fill="none" stroke="black" cx="1580.12" cy="-1530" rx="90.48" ry="18"/>
<text text-anchor="middle" x="1580.12" y="-1524.58" font-family="Times New Roman,serif" font-size="14.00">Years job_2 &#45; 4 years</text>
</g>
<!-- 7&#45;&gt;15 -->
<g id="edge7" class="edge">
<title>7&#45;&gt;15</title>
<path fill="none" stroke="#ff0000" d="M1288.54,-1460.69C1346.62,-1474.55 1443.8,-1497.72 1509.62,-1513.42"/>
<polygon fill="#ff0000" stroke="#ff0000" points="1508.71,-1516.8 1519.25,-1515.72 1510.33,-1509.99 1508.71,-1516.8"/>
<text text-anchor="middle" x="1388.37" y="-1493.45" font-family="Times New Roman,serif" font-size="14.00">yes</text>
</g>
<!-- 16 -->
<g id="node9" class="node">
<title>16</title>
<ellipse fill="none" stroke="black" cx="1580.12" cy="-1449" rx="94.98" ry="18"/>
<text text-anchor="middle" x="1580.12" y="-1443.58" font-family="Times New Roman,serif" font-size="14.00">Years job_8 &#45; 10 years</text>
</g>
<!-- 7&#45;&gt;16 -->
<g id="edge8" class="edge">
<title>7&#45;&gt;16</title>
<path fill="none" stroke="#0000ff" d="M1303.4,-1449C1351.22,-1449 1417.69,-1449 1473.38,-1449"/>
<polygon fill="#0000ff" stroke="#0000ff" points="1473.22,-1452.5 1483.22,-1449 1473.22,-1445.5 1473.22,-1452.5"/>
<text text-anchor="middle" x="1388.37" y="-1451.45" font-family="Times New Roman,serif" font-size="14.00">no, missing</text>
</g>
<!-- 17 -->
<g id="node14" class="node">
<title>17</title>
<ellipse fill="none" stroke="black" cx="1580.12" cy="-1314" rx="64.54" ry="18"/>
<text text-anchor="middle" x="1580.12" y="-1308.58" font-family="Times New Roman,serif" font-size="14.00">Country_USA</text>
</g>
<!-- 8&#45;&gt;17 -->
<g id="edge13" class="edge">
<title>8&#45;&gt;17</title>
<path fill="none" stroke="#ff0000" d="M1308.25,-1292.46C1365.76,-1297.04 1447.58,-1303.54 1506.23,-1308.2"/>
<polygon fill="#ff0000" stroke="#ff0000" points="1505.88,-1311.69 1516.12,-1308.99 1506.43,-1304.71 1505.88,-1311.69"/>
<text text-anchor="middle" x="1388.37" y="-1303.45" font-family="Times New Roman,serif" font-size="14.00">yes</text>
</g>
<!-- 18 -->
<g id="node15" class="node">
<title>18</title>
<ellipse fill="none" stroke="black" cx="1580.12" cy="-1260" rx="64.54" ry="18"/>
<text text-anchor="middle" x="1580.12" y="-1254.58" font-family="Times New Roman,serif" font-size="14.00">Country_USA</text>
</g>
<!-- 8&#45;&gt;18 -->
<g id="edge14" class="edge">
<title>8&#45;&gt;18</title>
<path fill="none" stroke="#0000ff" d="M1306.93,-1280.59C1323.15,-1279.1 1340.44,-1277.57 1356.49,-1276.25 1406.31,-1272.14 1462.43,-1268.05 1505.87,-1265"/>
<polygon fill="#0000ff" stroke="#0000ff" points="1505.96,-1268.5 1515.69,-1264.31 1505.47,-1261.52 1505.96,-1268.5"/>
<text text-anchor="middle" x="1388.37" y="-1278.45" font-family="Times New Roman,serif" font-size="14.00">no, missing</text>
</g>
<!-- 31 -->
<g id="node10" class="node">
<title>31</title>
<ellipse fill="none" stroke="black" cx="1910.24" cy="-1584" rx="79.51" ry="18"/>
<text text-anchor="middle" x="1910.24" y="-1578.58" font-family="Times New Roman,serif" font-size="14.00">leaf=&#45;0.179368421</text>
</g>
<!-- 15&#45;&gt;31 -->
<g id="edge9" class="edge">
<title>15&#45;&gt;31</title>
<path fill="none" stroke="#ff0000" d="M1651.11,-1541.52C1704.82,-1550.36 1778.83,-1562.54 1833.84,-1571.59"/>
<polygon fill="#ff0000" stroke="#ff0000" points="1833,-1575 1843.44,-1573.17 1834.14,-1568.09 1833,-1575"/>
<text text-anchor="middle" x="1771.88" y="-1568.45" font-family="Times New Roman,serif" font-size="14.00">yes</text>
</g>
<!-- 32 -->
<g id="node11" class="node">
<title>32</title>
<ellipse fill="none" stroke="black" cx="1910.24" cy="-1530" rx="79.51" ry="18"/>
<text text-anchor="middle" x="1910.24" y="-1524.58" font-family="Times New Roman,serif" font-size="14.00">leaf=&#45;0.233316183</text>
</g>
<!-- 15&#45;&gt;32 -->
<g id="edge10" class="edge">
<title>15&#45;&gt;32</title>
<path fill="none" stroke="#0000ff" d="M1670.78,-1530C1716.79,-1530 1772.69,-1530 1818.81,-1530"/>
<polygon fill="#0000ff" stroke="#0000ff" points="1818.8,-1533.5 1828.8,-1530 1818.8,-1526.5 1818.8,-1533.5"/>
<text text-anchor="middle" x="1771.88" y="-1532.45" font-family="Times New Roman,serif" font-size="14.00">no, missing</text>
</g>
<!-- 33 -->
<g id="node12" class="node">
<title>33</title>
<ellipse fill="none" stroke="black" cx="1910.24" cy="-1476" rx="79.51" ry="18"/>
<text text-anchor="middle" x="1910.24" y="-1470.58" font-family="Times New Roman,serif" font-size="14.00">leaf=&#45;0.107843377</text>
</g>
<!-- 16&#45;&gt;33 -->
<g id="edge11" class="edge">
<title>16&#45;&gt;33</title>
<path fill="none" stroke="#ff0000" d="M1667.76,-1456.13C1715.92,-1460.09 1775.64,-1465.01 1823.63,-1468.96"/>
<polygon fill="#ff0000" stroke="#ff0000" points="1823.18,-1472.43 1833.43,-1469.76 1823.75,-1465.45 1823.18,-1472.43"/>
<text text-anchor="middle" x="1771.88" y="-1469.45" font-family="Times New Roman,serif" font-size="14.00">yes</text>
</g>
<!-- 34 -->
<g id="node13" class="node">
<title>34</title>
<ellipse fill="none" stroke="black" cx="1910.24" cy="-1422" rx="84" ry="18"/>
<text text-anchor="middle" x="1910.24" y="-1416.58" font-family="Times New Roman,serif" font-size="14.00">leaf=&#45;0.0101283947</text>
</g>
<!-- 16&#45;&gt;34 -->
<g id="edge12" class="edge">
<title>16&#45;&gt;34</title>
<path fill="none" stroke="#0000ff" d="M1667.76,-1441.87C1714.59,-1438.02 1772.35,-1433.26 1819.63,-1429.37"/>
<polygon fill="#0000ff" stroke="#0000ff" points="1819.92,-1432.86 1829.59,-1428.55 1819.34,-1425.89 1819.92,-1432.86"/>
<text text-anchor="middle" x="1771.88" y="-1437.45" font-family="Times New Roman,serif" font-size="14.00">no, missing</text>
</g>
<!-- 35 -->
<g id="node16" class="node">
<title>35</title>
<ellipse fill="none" stroke="black" cx="1910.24" cy="-1368" rx="84" ry="18"/>
<text text-anchor="middle" x="1910.24" y="-1362.58" font-family="Times New Roman,serif" font-size="14.00">leaf=&#45;0.0255459789</text>
</g>
<!-- 17&#45;&gt;35 -->
<g id="edge15" class="edge">
<title>17&#45;&gt;35</title>
<path fill="none" stroke="#ff0000" d="M1636.41,-1323.1C1689.77,-1331.88 1771.08,-1345.26 1831.06,-1355.13"/>
<polygon fill="#ff0000" stroke="#ff0000" points="1830.45,-1358.58 1840.88,-1356.75 1831.58,-1351.67 1830.45,-1358.58"/>
<text text-anchor="middle" x="1771.88" y="-1352.45" font-family="Times New Roman,serif" font-size="14.00">yes</text>
</g>
<!-- 36 -->
<g id="node17" class="node">
<title>36</title>
<ellipse fill="none" stroke="black" cx="1910.24" cy="-1314" rx="76.51" ry="18"/>
<text text-anchor="middle" x="1910.24" y="-1308.58" font-family="Times New Roman,serif" font-size="14.00">leaf=0.124887951</text>
</g>
<!-- 17&#45;&gt;36 -->
<g id="edge16" class="edge">
<title>17&#45;&gt;36</title>
<path fill="none" stroke="#0000ff" d="M1644.78,-1314C1695.25,-1314 1766.33,-1314 1822.09,-1314"/>
<polygon fill="#0000ff" stroke="#0000ff" points="1821.87,-1317.5 1831.87,-1314 1821.87,-1310.5 1821.87,-1317.5"/>
<text text-anchor="middle" x="1771.88" y="-1316.45" font-family="Times New Roman,serif" font-size="14.00">no, missing</text>
</g>
<!-- 37 -->
<g id="node18" class="node">
<title>37</title>
<ellipse fill="none" stroke="black" cx="1910.24" cy="-1260" rx="79.51" ry="18"/>
<text text-anchor="middle" x="1910.24" y="-1254.58" font-family="Times New Roman,serif" font-size="14.00">leaf=&#45;0.122149378</text>
</g>
<!-- 18&#45;&gt;37 -->
<g id="edge17" class="edge">
<title>18&#45;&gt;37</title>
<path fill="none" stroke="#ff0000" d="M1644.78,-1260C1694.38,-1260 1763.88,-1260 1819.19,-1260"/>
<polygon fill="#ff0000" stroke="#ff0000" points="1818.89,-1263.5 1828.89,-1260 1818.89,-1256.5 1818.89,-1263.5"/>
<text text-anchor="middle" x="1771.88" y="-1262.45" font-family="Times New Roman,serif" font-size="14.00">yes</text>
</g>
<!-- 38 -->
<g id="node19" class="node">
<title>38</title>
<ellipse fill="none" stroke="black" cx="1910.24" cy="-1206" rx="88.49" ry="18"/>
<text text-anchor="middle" x="1910.24" y="-1200.58" font-family="Times New Roman,serif" font-size="14.00">leaf=&#45;0.00815426279</text>
</g>
<!-- 18&#45;&gt;38 -->
<g id="edge18" class="edge">
<title>18&#45;&gt;38</title>
<path fill="none" stroke="#0000ff" d="M1636.41,-1250.9C1689.17,-1242.22 1769.25,-1229.04 1829.02,-1219.2"/>
<polygon fill="#0000ff" stroke="#0000ff" points="1829.52,-1222.67 1838.82,-1217.59 1828.39,-1215.76 1829.52,-1222.67"/>
<text text-anchor="middle" x="1771.88" y="-1235.45" font-family="Times New Roman,serif" font-size="14.00">no, missing</text>
</g>
<!-- 19 -->
<g id="node22" class="node">
<title>19</title>
<ellipse fill="none" stroke="black" cx="1580.12" cy="-1098" rx="62.54" ry="18"/>
<text text-anchor="middle" x="1580.12" y="-1092.58" font-family="Times New Roman,serif" font-size="14.00">Industry_Law</text>
</g>
<!-- 9&#45;&gt;19 -->
<g id="edge21" class="edge">
<title>9&#45;&gt;19</title>
<path fill="none" stroke="#ff0000" d="M1305,-1040.69C1366.3,-1053.5 1457.2,-1072.51 1517.28,-1085.07"/>
<polygon fill="#ff0000" stroke="#ff0000" points="1516.51,-1088.49 1527.02,-1087.11 1517.95,-1081.63 1516.51,-1088.49"/>
<text text-anchor="middle" x="1388.37" y="-1066.45" font-family="Times New Roman,serif" font-size="14.00">yes</text>
</g>
<!-- 20 -->
<g id="node23" class="node">
<title>20</title>
<ellipse fill="none" stroke="black" cx="1580.12" cy="-1027" rx="35.6" ry="18"/>
<text text-anchor="middle" x="1580.12" y="-1021.58" font-family="Times New Roman,serif" font-size="14.00">Age&lt;3</text>
</g>
<!-- 9&#45;&gt;20 -->
<g id="edge22" class="edge">
<title>9&#45;&gt;20</title>
<path fill="none" stroke="#0000ff" d="M1338.21,-1027C1402.39,-1027 1483.11,-1027 1532.91,-1027"/>
<polygon fill="#0000ff" stroke="#0000ff" points="1532.75,-1030.5 1542.75,-1027 1532.75,-1023.5 1532.75,-1030.5"/>
<text text-anchor="middle" x="1388.37" y="-1029.45" font-family="Times New Roman,serif" font-size="14.00">no, missing</text>
</g>
<!-- 21 -->
<g id="node28" class="node">
<title>21</title>
<ellipse fill="none" stroke="black" cx="1580.12" cy="-909" rx="62.54" ry="18"/>
<text text-anchor="middle" x="1580.12" y="-903.58" font-family="Times New Roman,serif" font-size="14.00">Industry_Law</text>
</g>
<!-- 10&#45;&gt;21 -->
<g id="edge27" class="edge">
<title>10&#45;&gt;21</title>
<path fill="none" stroke="#ff0000" d="M1329.2,-909C1384.28,-909 1453.96,-909 1505.74,-909"/>
<polygon fill="#ff0000" stroke="#ff0000" points="1505.65,-912.5 1515.65,-909 1505.65,-905.5 1505.65,-912.5"/>
<text text-anchor="middle" x="1388.37" y="-911.45" font-family="Times New Roman,serif" font-size="14.00">yes</text>
</g>
<!-- 22 -->
<g id="node29" class="node">
<title>22</title>
<ellipse fill="none" stroke="black" cx="1580.12" cy="-828" rx="62.54" ry="18"/>
<text text-anchor="middle" x="1580.12" y="-822.58" font-family="Times New Roman,serif" font-size="14.00">Industry_Law</text>
</g>
<!-- 10&#45;&gt;22 -->
<g id="edge28" class="edge">
<title>10&#45;&gt;22</title>
<path fill="none" stroke="#0000ff" d="M1297.9,-895.08C1359.98,-880.27 1457.63,-856.98 1520,-842.1"/>
<polygon fill="#0000ff" stroke="#0000ff" points="1520.44,-845.59 1529.36,-839.87 1518.82,-838.79 1520.44,-845.59"/>
<text text-anchor="middle" x="1388.37" y="-882.45" font-family="Times New Roman,serif" font-size="14.00">no, missing</text>
</g>
<!-- 39 -->
<g id="node24" class="node">
<title>39</title>
<ellipse fill="none" stroke="black" cx="1910.24" cy="-1152" rx="79.51" ry="18"/>
<text text-anchor="middle" x="1910.24" y="-1146.58" font-family="Times New Roman,serif" font-size="14.00">leaf=&#45;0.114550792</text>
</g>
<!-- 19&#45;&gt;39 -->
<g id="edge23" class="edge">
<title>19&#45;&gt;39</title>
<path fill="none" stroke="#ff0000" d="M1635.31,-1106.92C1689.45,-1115.83 1773.16,-1129.6 1833.79,-1139.58"/>
<polygon fill="#ff0000" stroke="#ff0000" points="1832.9,-1142.98 1843.34,-1141.15 1834.04,-1136.08 1832.9,-1142.98"/>
<text text-anchor="middle" x="1771.88" y="-1136.45" font-family="Times New Roman,serif" font-size="14.00">yes</text>
</g>
<!-- 40 -->
<g id="node25" class="node">
<title>40</title>
<ellipse fill="none" stroke="black" cx="1910.24" cy="-1098" rx="76.51" ry="18"/>
<text text-anchor="middle" x="1910.24" y="-1092.58" font-family="Times New Roman,serif" font-size="14.00">leaf=0.020376157</text>
</g>
<!-- 19&#45;&gt;40 -->
<g id="edge24" class="edge">
<title>19&#45;&gt;40</title>
<path fill="none" stroke="#0000ff" d="M1642.84,-1098C1693.38,-1098 1765.49,-1098 1821.95,-1098"/>
<polygon fill="#0000ff" stroke="#0000ff" points="1821.87,-1101.5 1831.87,-1098 1821.87,-1094.5 1821.87,-1101.5"/>
<text text-anchor="middle" x="1771.88" y="-1100.45" font-family="Times New Roman,serif" font-size="14.00">no, missing</text>
</g>
<!-- 41 -->
<g id="node26" class="node">
<title>41</title>
<ellipse fill="none" stroke="black" cx="1910.24" cy="-1044" rx="76.51" ry="18"/>
<text text-anchor="middle" x="1910.24" y="-1038.58" font-family="Times New Roman,serif" font-size="14.00">leaf=0.422815949</text>
</g>
<!-- 20&#45;&gt;41 -->
<g id="edge25" class="edge">
<title>20&#45;&gt;41</title>
<path fill="none" stroke="#ff0000" d="M1615.93,-1028.8C1665.06,-1031.35 1756.32,-1036.08 1824.05,-1039.59"/>
<polygon fill="#ff0000" stroke="#ff0000" points="1823.46,-1043.06 1833.62,-1040.08 1823.82,-1036.07 1823.46,-1043.06"/>
<text text-anchor="middle" x="1771.88" y="-1040.45" font-family="Times New Roman,serif" font-size="14.00">yes</text>
</g>
<!-- 42 -->
<g id="node27" class="node">
<title>42</title>
<ellipse fill="none" stroke="black" cx="1910.24" cy="-990" rx="76.51" ry="18"/>
<text text-anchor="middle" x="1910.24" y="-984.58" font-family="Times New Roman,serif" font-size="14.00">leaf=0.074288018</text>
</g>
<!-- 20&#45;&gt;42 -->
<g id="edge26" class="edge">
<title>20&#45;&gt;42</title>
<path fill="none" stroke="#0000ff" d="M1615.31,-1023.15C1665.61,-1017.47 1760.99,-1006.72 1829.47,-999"/>
<polygon fill="#0000ff" stroke="#0000ff" points="1829.6,-1002.5 1839.14,-997.9 1828.81,-995.55 1829.6,-1002.5"/>
<text text-anchor="middle" x="1771.88" y="-1010.45" font-family="Times New Roman,serif" font-size="14.00">no, missing</text>
</g>
<!-- 43 -->
<g id="node30" class="node">
<title>43</title>
<ellipse fill="none" stroke="black" cx="1910.24" cy="-936" rx="76.51" ry="18"/>
<text text-anchor="middle" x="1910.24" y="-930.58" font-family="Times New Roman,serif" font-size="14.00">leaf=0.228150696</text>
</g>
<!-- 21&#45;&gt;43 -->
<g id="edge29" class="edge">
<title>21&#45;&gt;43</title>
<path fill="none" stroke="#ff0000" d="M1640.54,-913.89C1692.4,-918.16 1768.19,-924.39 1826.07,-929.16"/>
<polygon fill="#ff0000" stroke="#ff0000" points="1825.63,-932.63 1835.88,-929.96 1826.2,-925.65 1825.63,-932.63"/>
<text text-anchor="middle" x="1771.88" y="-929.45" font-family="Times New Roman,serif" font-size="14.00">yes</text>
</g>
<!-- 44 -->
<g id="node31" class="node">
<title>44</title>
<ellipse fill="none" stroke="black" cx="1910.24" cy="-882" rx="76.51" ry="18"/>
<text text-anchor="middle" x="1910.24" y="-876.58" font-family="Times New Roman,serif" font-size="14.00">leaf=0.353280246</text>
</g>
<!-- 21&#45;&gt;44 -->
<g id="edge30" class="edge">
<title>21&#45;&gt;44</title>
<path fill="none" stroke="#0000ff" d="M1640.54,-904.11C1692.4,-899.84 1768.19,-893.61 1826.07,-888.84"/>
<polygon fill="#0000ff" stroke="#0000ff" points="1826.2,-892.35 1835.88,-888.04 1825.63,-885.37 1826.2,-892.35"/>
<text text-anchor="middle" x="1771.88" y="-897.45" font-family="Times New Roman,serif" font-size="14.00">no, missing</text>
</g>
<!-- 45 -->
<g id="node32" class="node">
<title>45</title>
<ellipse fill="none" stroke="black" cx="1910.24" cy="-828" rx="76.51" ry="18"/>
<text text-anchor="middle" x="1910.24" y="-822.58" font-family="Times New Roman,serif" font-size="14.00">leaf=0.065191716</text>
</g>
<!-- 22&#45;&gt;45 -->
<g id="edge31" class="edge">
<title>22&#45;&gt;45</title>
<path fill="none" stroke="#ff0000" d="M1642.84,-828C1693.38,-828 1765.49,-828 1821.95,-828"/>
<polygon fill="#ff0000" stroke="#ff0000" points="1821.87,-831.5 1831.87,-828 1821.87,-824.5 1821.87,-831.5"/>
<text text-anchor="middle" x="1771.88" y="-830.45" font-family="Times New Roman,serif" font-size="14.00">yes</text>
</g>
<!-- 46 -->
<g id="node33" class="node">
<title>46</title>
<ellipse fill="none" stroke="black" cx="1910.24" cy="-774" rx="76.51" ry="18"/>
<text text-anchor="middle" x="1910.24" y="-768.58" font-family="Times New Roman,serif" font-size="14.00">leaf=0.184955716</text>
</g>
<!-- 22&#45;&gt;46 -->
<g id="edge32" class="edge">
<title>22&#45;&gt;46</title>
<path fill="none" stroke="#0000ff" d="M1635.31,-819.08C1689.97,-810.09 1774.75,-796.13 1835.51,-786.13"/>
<polygon fill="#0000ff" stroke="#0000ff" points="1835.77,-789.64 1845.07,-784.56 1834.64,-782.73 1835.77,-789.64"/>
<text text-anchor="middle" x="1771.88" y="-803.45" font-family="Times New Roman,serif" font-size="14.00">no, missing</text>
</g>
<!-- 11 -->
<g id="node36" class="node">
<title>11</title>
<ellipse fill="none" stroke="black" cx="1238.53" cy="-595" rx="35.6" ry="18"/>
<text text-anchor="middle" x="1238.53" y="-589.58" font-family="Times New Roman,serif" font-size="14.00">Age&lt;3</text>
</g>
<!-- 5&#45;&gt;11 -->
<g id="edge35" class="edge">
<title>5&#45;&gt;11</title>
<path fill="none" stroke="#ff0000" d="M1020.57,-561.12C1074.5,-569.55 1146.92,-580.85 1192.92,-588.03"/>
<polygon fill="#ff0000" stroke="#ff0000" points="1192.1,-591.45 1202.52,-589.53 1193.18,-584.53 1192.1,-591.45"/>
<text text-anchor="middle" x="1088.69" y="-578.45" font-family="Times New Roman,serif" font-size="14.00">yes</text>
</g>
<!-- 12 -->
<g id="node37" class="node">
<title>12</title>
<ellipse fill="none" stroke="black" cx="1238.53" cy="-504" rx="64.54" ry="18"/>
<text text-anchor="middle" x="1238.53" y="-498.57" font-family="Times New Roman,serif" font-size="14.00">Country_India</text>
</g>
<!-- 5&#45;&gt;12 -->
<g id="edge36" class="edge">
<title>5&#45;&gt;12</title>
<path fill="none" stroke="#0000ff" d="M1020.2,-538.69C1066.14,-531.36 1125.6,-521.86 1170.71,-514.66"/>
<polygon fill="#0000ff" stroke="#0000ff" points="1171.04,-518.16 1180.36,-513.12 1169.93,-511.24 1171.04,-518.16"/>
<text text-anchor="middle" x="1088.69" y="-534.45" font-family="Times New Roman,serif" font-size="14.00">no, missing</text>
</g>
<!-- 13 -->
<g id="node48" class="node">
<title>13</title>
<ellipse fill="none" stroke="black" cx="1238.53" cy="-315" rx="72.52" ry="18"/>
<text text-anchor="middle" x="1238.53" y="-309.57" font-family="Times New Roman,serif" font-size="14.00">Gender_Woman</text>
</g>
<!-- 6&#45;&gt;13 -->
<g id="edge47" class="edge">
<title>6&#45;&gt;13</title>
<path fill="none" stroke="#ff0000" d="M1038.93,-315C1075.76,-315 1118.16,-315 1154.3,-315"/>
<polygon fill="#ff0000" stroke="#ff0000" points="1154.28,-318.5 1164.28,-315 1154.28,-311.5 1154.28,-318.5"/>
<text text-anchor="middle" x="1088.69" y="-317.45" font-family="Times New Roman,serif" font-size="14.00">yes</text>
</g>
<!-- 14 -->
<g id="node49" class="node">
<title>14</title>
<ellipse fill="none" stroke="black" cx="1238.53" cy="-153" rx="99.97" ry="18"/>
<text text-anchor="middle" x="1238.53" y="-147.57" font-family="Times New Roman,serif" font-size="14.00">Highest Education_PhD</text>
</g>
<!-- 6&#45;&gt;14 -->
<g id="edge48" class="edge">
<title>6&#45;&gt;14</title>
<path fill="none" stroke="#0000ff" d="M979.9,-297.82C1031.96,-268.55 1137.89,-209.01 1196.4,-176.12"/>
<polygon fill="#0000ff" stroke="#0000ff" points="1198.08,-179.19 1205.08,-171.24 1194.65,-173.09 1198.08,-179.19"/>
<text text-anchor="middle" x="1088.69" y="-255.45" font-family="Times New Roman,serif" font-size="14.00">no, missing</text>
</g>
<!-- 23 -->
<g id="node38" class="node">
<title>23</title>
<ellipse fill="none" stroke="black" cx="1580.12" cy="-666" rx="99.47" ry="18"/>
<text text-anchor="middle" x="1580.12" y="-660.58" font-family="Times New Roman,serif" font-size="14.00">Years job_11 &#45; 20 years</text>
</g>
<!-- 11&#45;&gt;23 -->
<g id="edge37" class="edge">
<title>11&#45;&gt;23</title>
<path fill="none" stroke="#ff0000" d="M1272.09,-601.81C1324.75,-612.82 1430.01,-634.83 1502.49,-649.98"/>
<polygon fill="#ff0000" stroke="#ff0000" points="1501.39,-653.32 1511.89,-651.94 1502.82,-646.47 1501.39,-653.32"/>
<text text-anchor="middle" x="1388.37" y="-634.45" font-family="Times New Roman,serif" font-size="14.00">yes</text>
</g>
<!-- 24 -->
<g id="node39" class="node">
<title>24</title>
<ellipse fill="none" stroke="black" cx="1580.12" cy="-595" rx="72.52" ry="18"/>
<text text-anchor="middle" x="1580.12" y="-589.58" font-family="Times New Roman,serif" font-size="14.00">Gender_Woman</text>
</g>
<!-- 11&#45;&gt;24 -->
<g id="edge38" class="edge">
<title>11&#45;&gt;24</title>
<path fill="none" stroke="#0000ff" d="M1274.59,-595C1326.47,-595 1425.17,-595 1496.17,-595"/>
<polygon fill="#0000ff" stroke="#0000ff" points="1495.8,-598.5 1505.8,-595 1495.8,-591.5 1495.8,-598.5"/>
<text text-anchor="middle" x="1388.37" y="-597.45" font-family="Times New Roman,serif" font-size="14.00">no, missing</text>
</g>
<!-- 25 -->
<g id="node44" class="node">
<title>25</title>
<ellipse fill="none" stroke="black" cx="1580.12" cy="-504" rx="99.97" ry="18"/>
<text text-anchor="middle" x="1580.12" y="-498.57" font-family="Times New Roman,serif" font-size="14.00">Highest Education_PhD</text>
</g>
<!-- 12&#45;&gt;25 -->
<g id="edge43" class="edge">
<title>12&#45;&gt;25</title>
<path fill="none" stroke="#ff0000" d="M1303.4,-504C1349.77,-504 1413.69,-504 1468.3,-504"/>
<polygon fill="#ff0000" stroke="#ff0000" points="1468.29,-507.5 1478.29,-504 1468.29,-500.5 1468.29,-507.5"/>
<text text-anchor="middle" x="1388.37" y="-506.45" font-family="Times New Roman,serif" font-size="14.00">yes</text>
</g>
<!-- 26 -->
<g id="node45" class="node">
<title>26</title>
<ellipse fill="none" stroke="black" cx="1580.12" cy="-450" rx="79.51" ry="18"/>
<text text-anchor="middle" x="1580.12" y="-444.57" font-family="Times New Roman,serif" font-size="14.00">leaf=&#45;0.379816264</text>
</g>
<!-- 12&#45;&gt;26 -->
<g id="edge44" class="edge">
<title>12&#45;&gt;26</title>
<path fill="none" stroke="#0000ff" d="M1294.24,-494.59C1313.87,-491.26 1336.16,-487.53 1356.49,-484.25 1404.69,-476.47 1458.82,-468.14 1501.64,-461.63"/>
<polygon fill="#0000ff" stroke="#0000ff" points="1501.98,-465.12 1511.34,-460.16 1500.93,-458.2 1501.98,-465.12"/>
<text text-anchor="middle" x="1388.37" y="-486.45" font-family="Times New Roman,serif" font-size="14.00">no, missing</text>
</g>
<!-- 47 -->
<g id="node40" class="node">
<title>47</title>
<ellipse fill="none" stroke="black" cx="1910.24" cy="-720" rx="84" ry="18"/>
<text text-anchor="middle" x="1910.24" y="-714.58" font-family="Times New Roman,serif" font-size="14.00">leaf=&#45;0.0483956225</text>
</g>
<!-- 23&#45;&gt;47 -->
<g id="edge39" class="edge">
<title>23&#45;&gt;47</title>
<path fill="none" stroke="#ff0000" d="M1655.17,-678.19C1707.67,-686.83 1777.97,-698.4 1831.32,-707.18"/>
<polygon fill="#ff0000" stroke="#ff0000" points="1830.51,-710.59 1840.94,-708.76 1831.64,-703.68 1830.51,-710.59"/>
<text text-anchor="middle" x="1771.88" y="-704.45" font-family="Times New Roman,serif" font-size="14.00">yes</text>
</g>
<!-- 48 -->
<g id="node41" class="node">
<title>48</title>
<ellipse fill="none" stroke="black" cx="1910.24" cy="-666" rx="76.51" ry="18"/>
<text text-anchor="middle" x="1910.24" y="-660.58" font-family="Times New Roman,serif" font-size="14.00">leaf=0.128619477</text>
</g>
<!-- 23&#45;&gt;48 -->
<g id="edge40" class="edge">
<title>23&#45;&gt;48</title>
<path fill="none" stroke="#0000ff" d="M1680.01,-666C1725.14,-666 1778.11,-666 1821.77,-666"/>
<polygon fill="#0000ff" stroke="#0000ff" points="1821.72,-669.5 1831.72,-666 1821.72,-662.5 1821.72,-669.5"/>
<text text-anchor="middle" x="1771.88" y="-668.45" font-family="Times New Roman,serif" font-size="14.00">no, missing</text>
</g>
<!-- 49 -->
<g id="node42" class="node">
<title>49</title>
<ellipse fill="none" stroke="black" cx="1910.24" cy="-612" rx="76.51" ry="18"/>
<text text-anchor="middle" x="1910.24" y="-606.58" font-family="Times New Roman,serif" font-size="14.00">leaf=0.150494769</text>
</g>
<!-- 24&#45;&gt;49 -->
<g id="edge41" class="edge">
<title>24&#45;&gt;49</title>
<path fill="none" stroke="#ff0000" d="M1651.51,-598.65C1701.97,-601.26 1770.2,-604.8 1823.78,-607.57"/>
<polygon fill="#ff0000" stroke="#ff0000" points="1823.3,-611.05 1833.47,-608.07 1823.66,-604.06 1823.3,-611.05"/>
<text text-anchor="middle" x="1771.88" y="-608.45" font-family="Times New Roman,serif" font-size="14.00">yes</text>
</g>
<!-- 50 -->
<g id="node43" class="node">
<title>50</title>
<ellipse fill="none" stroke="black" cx="1910.24" cy="-558" rx="81" ry="18"/>
<text text-anchor="middle" x="1910.24" y="-552.58" font-family="Times New Roman,serif" font-size="14.00">leaf=0.0167184211</text>
</g>
<!-- 24&#45;&gt;50 -->
<g id="edge42" class="edge">
<title>24&#45;&gt;50</title>
<path fill="none" stroke="#0000ff" d="M1646.73,-587.6C1698.26,-581.79 1770.35,-573.66 1825.95,-567.39"/>
<polygon fill="#0000ff" stroke="#0000ff" points="1826.14,-570.89 1835.69,-566.29 1825.36,-563.94 1826.14,-570.89"/>
<text text-anchor="middle" x="1771.88" y="-578.45" font-family="Times New Roman,serif" font-size="14.00">no, missing</text>
</g>
<!-- 51 -->
<g id="node46" class="node">
<title>51</title>
<ellipse fill="none" stroke="black" cx="1910.24" cy="-504" rx="79.51" ry="18"/>
<text text-anchor="middle" x="1910.24" y="-498.57" font-family="Times New Roman,serif" font-size="14.00">leaf=&#45;0.147274822</text>
</g>
<!-- 25&#45;&gt;51 -->
<g id="edge45" class="edge">
<title>25&#45;&gt;51</title>
<path fill="none" stroke="#ff0000" d="M1680.46,-504C1724.53,-504 1776.01,-504 1818.97,-504"/>
<polygon fill="#ff0000" stroke="#ff0000" points="1818.76,-507.5 1828.76,-504 1818.76,-500.5 1818.76,-507.5"/>
<text text-anchor="middle" x="1771.88" y="-506.45" font-family="Times New Roman,serif" font-size="14.00">yes</text>
</g>
<!-- 52 -->
<g id="node47" class="node">
<title>52</title>
<ellipse fill="none" stroke="black" cx="1910.24" cy="-450" rx="88.49" ry="18"/>
<text text-anchor="middle" x="1910.24" y="-444.57" font-family="Times New Roman,serif" font-size="14.00">leaf=&#45;0.00876253564</text>
</g>
<!-- 25&#45;&gt;52 -->
<g id="edge46" class="edge">
<title>25&#45;&gt;52</title>
<path fill="none" stroke="#0000ff" d="M1655.17,-491.81C1706.96,-483.29 1776.09,-471.91 1829.16,-463.18"/>
<polygon fill="#0000ff" stroke="#0000ff" points="1829.44,-466.68 1838.74,-461.6 1828.3,-459.77 1829.44,-466.68"/>
<text text-anchor="middle" x="1771.88" y="-479.45" font-family="Times New Roman,serif" font-size="14.00">no, missing</text>
</g>
<!-- 27 -->
<g id="node50" class="node">
<title>27</title>
<ellipse fill="none" stroke="black" cx="1580.12" cy="-342" rx="85.49" ry="18"/>
<text text-anchor="middle" x="1580.12" y="-336.57" font-family="Times New Roman,serif" font-size="14.00">Years job_5&#45;7 years</text>
</g>
<!-- 13&#45;&gt;27 -->
<g id="edge49" class="edge">
<title>13&#45;&gt;27</title>
<path fill="none" stroke="#ff0000" d="M1308.25,-320.46C1360.02,-324.58 1431.49,-330.26 1488.02,-334.76"/>
<polygon fill="#ff0000" stroke="#ff0000" points="1487.72,-338.24 1497.97,-335.55 1488.28,-331.27 1487.72,-338.24"/>
<text text-anchor="middle" x="1388.37" y="-331.45" font-family="Times New Roman,serif" font-size="14.00">yes</text>
</g>
<!-- 28 -->
<g id="node51" class="node">
<title>28</title>
<ellipse fill="none" stroke="black" cx="1580.12" cy="-288" rx="141.88" ry="18"/>
<text text-anchor="middle" x="1580.12" y="-282.57" font-family="Times New Roman,serif" font-size="14.00">Highest Education_Master&#39;s degree</text>
</g>
<!-- 13&#45;&gt;28 -->
<g id="edge50" class="edge">
<title>13&#45;&gt;28</title>
<path fill="none" stroke="#0000ff" d="M1306.93,-308.59C1323.15,-307.1 1340.44,-305.57 1356.49,-304.25 1384.54,-301.94 1414.58,-299.63 1443.24,-297.51"/>
<polygon fill="#0000ff" stroke="#0000ff" points="1443.34,-301.01 1453.06,-296.79 1442.83,-294.03 1443.34,-301.01"/>
<text text-anchor="middle" x="1388.37" y="-306.45" font-family="Times New Roman,serif" font-size="14.00">no, missing</text>
</g>
<!-- 29 -->
<g id="node56" class="node">
<title>29</title>
<ellipse fill="none" stroke="black" cx="1580.12" cy="-153" rx="82" ry="18"/>
<text text-anchor="middle" x="1580.12" y="-147.57" font-family="Times New Roman,serif" font-size="14.00">Job Title Cluster&lt;1</text>
</g>
<!-- 14&#45;&gt;29 -->
<g id="edge55" class="edge">
<title>14&#45;&gt;29</title>
<path fill="none" stroke="#ff0000" d="M1338.66,-153C1385.32,-153 1440.63,-153 1486.44,-153"/>
<polygon fill="#ff0000" stroke="#ff0000" points="1486.36,-156.5 1496.36,-153 1486.36,-149.5 1486.36,-156.5"/>
<text text-anchor="middle" x="1388.37" y="-155.45" font-family="Times New Roman,serif" font-size="14.00">yes</text>
</g>
<!-- 30 -->
<g id="node57" class="node">
<title>30</title>
<ellipse fill="none" stroke="black" cx="1580.12" cy="-72" rx="72.52" ry="18"/>
<text text-anchor="middle" x="1580.12" y="-66.58" font-family="Times New Roman,serif" font-size="14.00">Gender_Woman</text>
</g>
<!-- 14&#45;&gt;30 -->
<g id="edge56" class="edge">
<title>14&#45;&gt;30</title>
<path fill="none" stroke="#0000ff" d="M1300.24,-138.52C1360.94,-124.04 1453.91,-101.87 1515.59,-87.15"/>
<polygon fill="#0000ff" stroke="#0000ff" points="1516.34,-90.57 1525.26,-84.85 1514.72,-83.76 1516.34,-90.57"/>
<text text-anchor="middle" x="1388.37" y="-126.45" font-family="Times New Roman,serif" font-size="14.00">no, missing</text>
</g>
<!-- 53 -->
<g id="node52" class="node">
<title>53</title>
<ellipse fill="none" stroke="black" cx="1910.24" cy="-396" rx="76.51" ry="18"/>
<text text-anchor="middle" x="1910.24" y="-390.57" font-family="Times New Roman,serif" font-size="14.00">leaf=0.444515586</text>
</g>
<!-- 27&#45;&gt;53 -->
<g id="edge51" class="edge">
<title>27&#45;&gt;53</title>
<path fill="none" stroke="#ff0000" d="M1648.71,-353.12C1703.03,-362.06 1779.24,-374.6 1835.2,-383.81"/>
<polygon fill="#ff0000" stroke="#ff0000" points="1834.54,-387.25 1844.97,-385.42 1835.67,-380.35 1834.54,-387.25"/>
<text text-anchor="middle" x="1771.88" y="-380.45" font-family="Times New Roman,serif" font-size="14.00">yes</text>
</g>
<!-- 54 -->
<g id="node53" class="node">
<title>54</title>
<ellipse fill="none" stroke="black" cx="1910.24" cy="-342" rx="76.51" ry="18"/>
<text text-anchor="middle" x="1910.24" y="-336.57" font-family="Times New Roman,serif" font-size="14.00">leaf=0.256487101</text>
</g>
<!-- 27&#45;&gt;54 -->
<g id="edge52" class="edge">
<title>27&#45;&gt;54</title>
<path fill="none" stroke="#0000ff" d="M1666.05,-342C1713.95,-342 1773.69,-342 1821.97,-342"/>
<polygon fill="#0000ff" stroke="#0000ff" points="1821.84,-345.5 1831.84,-342 1821.84,-338.5 1821.84,-345.5"/>
<text text-anchor="middle" x="1771.88" y="-344.45" font-family="Times New Roman,serif" font-size="14.00">no, missing</text>
</g>
<!-- 55 -->
<g id="node54" class="node">
<title>55</title>
<ellipse fill="none" stroke="black" cx="1910.24" cy="-288" rx="76.51" ry="18"/>
<text text-anchor="middle" x="1910.24" y="-282.57" font-family="Times New Roman,serif" font-size="14.00">leaf=0.221297577</text>
</g>
<!-- 28&#45;&gt;55 -->
<g id="edge53" class="edge">
<title>28&#45;&gt;55</title>
<path fill="none" stroke="#ff0000" d="M1722.18,-288C1756.06,-288 1791.28,-288 1821.9,-288"/>
<polygon fill="#ff0000" stroke="#ff0000" points="1821.88,-291.5 1831.88,-288 1821.88,-284.5 1821.88,-291.5"/>
<text text-anchor="middle" x="1771.88" y="-290.45" font-family="Times New Roman,serif" font-size="14.00">yes</text>
</g>
<!-- 56 -->
<g id="node55" class="node">
<title>56</title>
<ellipse fill="none" stroke="black" cx="1910.24" cy="-234" rx="76.51" ry="18"/>
<text text-anchor="middle" x="1910.24" y="-228.57" font-family="Times New Roman,serif" font-size="14.00">leaf=0.312379271</text>
</g>
<!-- 28&#45;&gt;56 -->
<g id="edge54" class="edge">
<title>28&#45;&gt;56</title>
<path fill="none" stroke="#0000ff" d="M1668.62,-273.6C1720.58,-265.05 1785.74,-254.32 1835.15,-246.19"/>
<polygon fill="#0000ff" stroke="#0000ff" points="1835.6,-249.67 1844.9,-244.59 1834.46,-242.76 1835.6,-249.67"/>
<text text-anchor="middle" x="1771.88" y="-263.45" font-family="Times New Roman,serif" font-size="14.00">no, missing</text>
</g>
<!-- 57 -->
<g id="node58" class="node">
<title>57</title>
<ellipse fill="none" stroke="black" cx="1910.24" cy="-180" rx="76.51" ry="18"/>
<text text-anchor="middle" x="1910.24" y="-174.57" font-family="Times New Roman,serif" font-size="14.00">leaf=0.066862911</text>
</g>
<!-- 29&#45;&gt;57 -->
<g id="edge57" class="edge">
<title>29&#45;&gt;57</title>
<path fill="none" stroke="#ff0000" d="M1657.64,-159.3C1708.18,-163.46 1774.41,-168.9 1826.23,-173.17"/>
<polygon fill="#ff0000" stroke="#ff0000" points="1825.63,-176.63 1835.88,-173.96 1826.2,-169.65 1825.63,-176.63"/>
<text text-anchor="middle" x="1771.88" y="-173.45" font-family="Times New Roman,serif" font-size="14.00">yes</text>
</g>
<!-- 58 -->
<g id="node59" class="node">
<title>58</title>
<ellipse fill="none" stroke="black" cx="1910.24" cy="-126" rx="76.51" ry="18"/>
<text text-anchor="middle" x="1910.24" y="-120.58" font-family="Times New Roman,serif" font-size="14.00">leaf=0.208619118</text>
</g>
<!-- 29&#45;&gt;58 -->
<g id="edge58" class="edge">
<title>29&#45;&gt;58</title>
<path fill="none" stroke="#0000ff" d="M1657.64,-146.7C1708.18,-142.54 1774.41,-137.1 1826.23,-132.83"/>
<polygon fill="#0000ff" stroke="#0000ff" points="1826.2,-136.35 1835.88,-132.04 1825.63,-129.37 1826.2,-136.35"/>
<text text-anchor="middle" x="1771.88" y="-141.45" font-family="Times New Roman,serif" font-size="14.00">no, missing</text>
</g>
<!-- 59 -->
<g id="node60" class="node">
<title>59</title>
<ellipse fill="none" stroke="black" cx="1910.24" cy="-72" rx="76.51" ry="18"/>
<text text-anchor="middle" x="1910.24" y="-66.58" font-family="Times New Roman,serif" font-size="14.00">leaf=0.530459762</text>
</g>
<!-- 30&#45;&gt;59 -->
<g id="edge59" class="edge">
<title>30&#45;&gt;59</title>
<path fill="none" stroke="#ff0000" d="M1653.13,-72C1702.87,-72 1769.29,-72 1822.03,-72"/>
<polygon fill="#ff0000" stroke="#ff0000" points="1821.9,-75.5 1831.9,-72 1821.9,-68.5 1821.9,-75.5"/>
<text text-anchor="middle" x="1771.88" y="-74.45" font-family="Times New Roman,serif" font-size="14.00">yes</text>
</g>
<!-- 60 -->
<g id="node61" class="node">
<title>60</title>
<ellipse fill="none" stroke="black" cx="1910.24" cy="-18" rx="76.51" ry="18"/>
<text text-anchor="middle" x="1910.24" y="-12.57" font-family="Times New Roman,serif" font-size="14.00">leaf=0.357898921</text>
</g>
<!-- 30&#45;&gt;60 -->
<g id="edge60" class="edge">
<title>30&#45;&gt;60</title>
<path fill="none" stroke="#0000ff" d="M1641.3,-62.1C1696.05,-53.09 1777.02,-39.76 1835.61,-30.12"/>
<polygon fill="#0000ff" stroke="#0000ff" points="1835.86,-33.62 1845.16,-28.55 1834.72,-26.72 1835.86,-33.62"/>
<text text-anchor="middle" x="1771.88" y="-47.45" font-family="Times New Roman,serif" font-size="14.00">no, missing</text>
</g>
</g>
</svg>
