<?xml version="1.0" encoding="UTF-8" standalone="no"?>
<!DOCTYPE svg PUBLIC "-//W3C//DTD SVG 1.1//EN"
 "http://www.w3.org/Graphics/SVG/1.1/DTD/svg11.dtd">
<!-- Generated by graphviz version 11.0.0 (20240428.1522)
 -->
<!-- Pages: 1 -->
<svg width="2007pt" height="1610pt"
 viewBox="0.00 0.00 2006.73 1610.00" xmlns="http://www.w3.org/2000/svg" xmlns:xlink="http://www.w3.org/1999/xlink">
<g id="graph0" class="graph" transform="scale(1 1) rotate(0) translate(4 1606)">
<polygon fill="white" stroke="none" points="-4,4 -4,-1606 2002.73,-1606 2002.73,4 -4,4"/>
<!-- 0 -->
<g id="node1" class="node">
<title>0</title>
<ellipse fill="none" stroke="black" cx="116.43" cy="-765" rx="116.43" ry="18"/>
<text text-anchor="middle" x="116.43" y="-759.58" font-family="Times New Roman,serif" font-size="14.00">Industry_Computing or tech</text>
</g>
<!-- 1 -->
<g id="node2" class="node">
<title>1</title>
<ellipse fill="none" stroke="black" cx="545.35" cy="-968" rx="212.74" ry="18"/>
<text text-anchor="middle" x="545.35" y="-962.58" font-family="Times New Roman,serif" font-size="14.00">Highest Education_Professional degree (MD, JD, etc.)</text>
</g>
<!-- 0&#45;&gt;1 -->
<g id="edge1" class="edge">
<title>0&#45;&gt;1</title>
<path fill="none" stroke="#ff0000" d="M154.2,-782.48C231.28,-819.14 409.78,-904.01 496,-945.01"/>
<polygon fill="#ff0000" stroke="#ff0000" points="494.4,-948.12 504.93,-949.26 497.4,-941.8 494.4,-948.12"/>
<text text-anchor="middle" x="282.74" y="-856.45" font-family="Times New Roman,serif" font-size="14.00">yes</text>
</g>
<!-- 2 -->
<g id="node3" class="node">
<title>2</title>
<ellipse fill="none" stroke="black" cx="545.35" cy="-550" rx="64.54" ry="18"/>
<text text-anchor="middle" x="545.35" y="-544.58" font-family="Times New Roman,serif" font-size="14.00">Country_USA</text>
</g>
<!-- 0&#45;&gt;2 -->
<g id="edge2" class="edge">
<title>0&#45;&gt;2</title>
<path fill="none" stroke="#0000ff" d="M152.37,-747.41C230.38,-708.12 418.49,-613.39 502.55,-571.05"/>
<polygon fill="#0000ff" stroke="#0000ff" points="504.04,-574.22 511.4,-566.6 500.89,-567.97 504.04,-574.22"/>
<text text-anchor="middle" x="282.74" y="-697.45" font-family="Times New Roman,serif" font-size="14.00">no, missing</text>
</g>
<!-- 3 -->
<g id="node4" class="node">
<title>3</title>
<ellipse fill="none" stroke="black" cx="948.33" cy="-1287" rx="35.6" ry="18"/>
<text text-anchor="middle" x="948.33" y="-1281.58" font-family="Times New Roman,serif" font-size="14.00">Age&lt;3</text>
</g>
<!-- 1&#45;&gt;3 -->
<g id="edge3" class="edge">
<title>1&#45;&gt;3</title>
<path fill="none" stroke="#ff0000" d="M569.35,-986.3C638.45,-1041.27 844.08,-1204.86 919.33,-1264.73"/>
<polygon fill="#ff0000" stroke="#ff0000" points="917.06,-1267.4 927.07,-1270.88 921.42,-1261.92 917.06,-1267.4"/>
<text text-anchor="middle" x="807.97" y="-1203.45" font-family="Times New Roman,serif" font-size="14.00">yes</text>
</g>
<!-- 4 -->
<g id="node5" class="node">
<title>4</title>
<ellipse fill="none" stroke="black" cx="948.33" cy="-968" rx="64.54" ry="18"/>
<text text-anchor="middle" x="948.33" y="-962.58" font-family="Times New Roman,serif" font-size="14.00">Country_USA</text>
</g>
<!-- 1&#45;&gt;4 -->
<g id="edge4" class="edge">
<title>1&#45;&gt;4</title>
<path fill="none" stroke="#0000ff" d="M758.58,-968C799.41,-968 839.6,-968 872.32,-968"/>
<polygon fill="#0000ff" stroke="#0000ff" points="872.06,-971.5 882.06,-968 872.06,-964.5 872.06,-971.5"/>
<text text-anchor="middle" x="807.97" y="-970.45" font-family="Times New Roman,serif" font-size="14.00">no, missing</text>
</g>
<!-- 5 -->
<g id="node34" class="node">
<title>5</title>
<ellipse fill="none" stroke="black" cx="948.33" cy="-550" rx="90.48" ry="18"/>
<text text-anchor="middle" x="948.33" y="-544.58" font-family="Times New Roman,serif" font-size="14.00">Years job_2 &#45; 4 years</text>
</g>
<!-- 2&#45;&gt;5 -->
<g id="edge33" class="edge">
<title>2&#45;&gt;5</title>
<path fill="none" stroke="#ff0000" d="M610.33,-550C673.85,-550 772.17,-550 846.25,-550"/>
<polygon fill="#ff0000" stroke="#ff0000" points="845.94,-553.5 855.94,-550 845.94,-546.5 845.94,-553.5"/>
<text text-anchor="middle" x="807.97" y="-552.45" font-family="Times New Roman,serif" font-size="14.00">yes</text>
</g>
<!-- 6 -->
<g id="node35" class="node">
<title>6</title>
<ellipse fill="none" stroke="black" cx="948.33" cy="-315" rx="90.48" ry="18"/>
<text text-anchor="middle" x="948.33" y="-309.57" font-family="Times New Roman,serif" font-size="14.00">Years job_2 &#45; 4 years</text>
</g>
<!-- 2&#45;&gt;6 -->
<g id="edge34" class="edge">
<title>2&#45;&gt;6</title>
<path fill="none" stroke="#0000ff" d="M574.55,-533.48C644.72,-492.35 827.36,-385.31 908.04,-338.03"/>
<polygon fill="#0000ff" stroke="#0000ff" points="909.65,-341.14 916.51,-333.06 906.11,-335.1 909.65,-341.14"/>
<text text-anchor="middle" x="807.97" y="-413.45" font-family="Times New Roman,serif" font-size="14.00">no, missing</text>
</g>
<!-- 7 -->
<g id="node6" class="node">
<title>7</title>
<ellipse fill="none" stroke="black" cx="1238.53" cy="-1449" rx="64.54" ry="18"/>
<text text-anchor="middle" x="1238.53" y="-1443.58" font-family="Times New Roman,serif" font-size="14.00">Country_USA</text>
</g>
<!-- 3&#45;&gt;7 -->
<g id="edge5" class="edge">
<title>3&#45;&gt;7</title>
<path fill="none" stroke="#ff0000" d="M972.91,-1300.26C1022.47,-1328.12 1137.86,-1392.98 1198.58,-1427.11"/>
<polygon fill="#ff0000" stroke="#ff0000" points="1196.79,-1430.12 1207.22,-1431.97 1200.22,-1424.02 1196.79,-1430.12"/>
<text text-anchor="middle" x="1088.69" y="-1384.45" font-family="Times New Roman,serif" font-size="14.00">yes</text>
</g>
<!-- 8 -->
<g id="node7" class="node">
<title>8</title>
<ellipse fill="none" stroke="black" cx="1238.53" cy="-1287" rx="72.52" ry="18"/>
<text text-anchor="middle" x="1238.53" y="-1281.58" font-family="Times New Roman,serif" font-size="14.00">Gender_Woman</text>
</g>
<!-- 3&#45;&gt;8 -->
<g id="edge6" class="edge">
<title>3&#45;&gt;8</title>
<path fill="none" stroke="#0000ff" d="M984.38,-1287C1026.27,-1287 1097.77,-1287 1154.12,-1287"/>
<polygon fill="#0000ff" stroke="#0000ff" points="1154.03,-1290.5 1164.03,-1287 1154.03,-1283.5 1154.03,-1290.5"/>
<text text-anchor="middle" x="1088.69" y="-1289.45" font-family="Times New Roman,serif" font-size="14.00">no, missing</text>
</g>
<!-- 9 -->
<g id="node20" class="node">
<title>9</title>
<ellipse fill="none" stroke="black" cx="1238.53" cy="-1027" rx="99.47" ry="18"/>
<text text-anchor="middle" x="1238.53" y="-1021.58" font-family="Times New Roman,serif" font-size="14.00">Years job_11 &#45; 20 years</text>
</g>
<!-- 4&#45;&gt;9 -->
<g id="edge19" class="edge">
<title>4&#45;&gt;9</title>
<path fill="none" stroke="#ff0000" d="M1001.18,-978.62C1045.4,-987.67 1109.62,-1000.81 1159.95,-1011.12"/>
<polygon fill="#ff0000" stroke="#ff0000" points="1159.14,-1014.53 1169.64,-1013.1 1160.54,-1007.67 1159.14,-1014.53"/>
<text text-anchor="middle" x="1088.69" y="-1004.45" font-family="Times New Roman,serif" font-size="14.00">yes</text>
</g>
<!-- 10 -->
<g id="node21" class="node">
<title>10</title>
<ellipse fill="none" stroke="black" cx="1238.53" cy="-909" rx="90.48" ry="18"/>
<text text-anchor="middle" x="1238.53" y="-903.58" font-family="Times New Roman,serif" font-size="14.00">Years job_2 &#45; 4 years</text>
</g>
<!-- 4&#45;&gt;10 -->
<g id="edge20" class="edge">
<title>4&#45;&gt;10</title>
<path fill="none" stroke="#0000ff" d="M1001.18,-957.38C1046.23,-948.16 1112.03,-934.69 1162.77,-924.3"/>
<polygon fill="#0000ff" stroke="#0000ff" points="1163.43,-927.74 1172.52,-922.31 1162.03,-920.88 1163.43,-927.74"/>
<text text-anchor="middle" x="1088.69" y="-947.45" font-family="Times New Roman,serif" font-size="14.00">no, missing</text>
</g>
<!-- 15 -->
<g id="node8" class="node">
<title>15</title>
<ellipse fill="none" stroke="black" cx="1580.12" cy="-1530" rx="90.48" ry="18"/>
<text text-anchor="middle" x="1580.12" y="-1524.58" font-family="Times New Roman,serif" font-size="14.00">Years job_2 &#45; 4 years</text>
</g>
<!-- 7&#45;&gt;15 -->
<g id="edge7" class="edge">
<title>7&#45;&gt;15</title>
<path fill="none" stroke="#ff0000" d="M1288.54,-1460.69C1346.62,-1474.55 1443.8,-1497.72 1509.62,-1513.42"/>
<polygon fill="#ff0000" stroke="#ff0000" points="1508.71,-1516.8 1519.25,-1515.72 1510.33,-1509.99 1508.71,-1516.8"/>
<text text-anchor="middle" x="1388.37" y="-1493.45" font-family="Times New Roman,serif" font-size="14.00">yes</text>
</g>
<!-- 16 -->
<g id="node9" class="node">
<title>16</title>
<ellipse fill="none" stroke="black" cx="1580.12" cy="-1449" rx="94.98" ry="18"/>
<text text-anchor="middle" x="1580.12" y="-1443.58" font-family="Times New Roman,serif" font-size="14.00">Years job_8 &#45; 10 years</text>
</g>
<!-- 7&#45;&gt;16 -->
<g id="edge8" class="edge">
<title>7&#45;&gt;16</title>
<path fill="none" stroke="#0000ff" d="M1303.4,-1449C1351.22,-1449 1417.69,-1449 1473.38,-1449"/>
<polygon fill="#0000ff" stroke="#0000ff" points="1473.22,-1452.5 1483.22,-1449 1473.22,-1445.5 1473.22,-1452.5"/>
<text text-anchor="middle" x="1388.37" y="-1451.45" font-family="Times New Roman,serif" font-size="14.00">no, missing</text>
</g>
<!-- 17 -->
<g id="node14" class="node">
<title>17</title>
<ellipse fill="none" stroke="black" cx="1580.12" cy="-1314" rx="64.54" ry="18"/>
<text text-anchor="middle" x="1580.12" y="-1308.58" font-family="Times New Roman,serif" font-size="14.00">Country_USA</text>
</g>
<!-- 8&#45;&gt;17 -->
<g id="edge13" class="edge">
<title>8&#45;&gt;17</title>
<path fill="none" stroke="#ff0000" d="M1308.25,-1292.46C1365.76,-1297.04 1447.58,-1303.54 1506.23,-1308.2"/>
<polygon fill="#ff0000" stroke="#ff0000" points="1505.88,-1311.69 1516.12,-1308.99 1506.43,-1304.71 1505.88,-1311.69"/>
<text text-anchor="middle" x="1388.37" y="-1303.45" font-family="Times New Roman,serif" font-size="14.00">yes</text>
</g>
<!-- 18 -->
<g id="node15" class="node">
<title>18</title>
<ellipse fill="none" stroke="black" cx="1580.12" cy="-1260" rx="64.54" ry="18"/>
<text text-anchor="middle" x="1580.12" y="-1254.58" font-family="Times New Roman,serif" font-size="14.00">Country_USA</text>
</g>
<!-- 8&#45;&gt;18 -->
<g id="edge14" class="edge">
<title>8&#45;&gt;18</title>
<path fill="none" stroke="#0000ff" d="M1306.93,-1280.59C1323.15,-1279.1 1340.44,-1277.57 1356.49,-1276.25 1406.31,-1272.14 1462.43,-1268.05 1505.87,-1265"/>
<polygon fill="#0000ff" stroke="#0000ff" points="1505.96,-1268.5 1515.69,-1264.31 1505.47,-1261.52 1505.96,-1268.5"/>
<text text-anchor="middle" x="1388.37" y="-1278.45" font-family="Times New Roman,serif" font-size="14.00">no, missing</text>
</g>
<!-- 31 -->
<g id="node10" class="node">
<title>31</title>
<ellipse fill="none" stroke="black" cx="1910.24" cy="-1584" rx="84" ry="18"/>
<text text-anchor="middle" x="1910.24" y="-1578.58" font-family="Times New Roman,serif" font-size="14.00">leaf=&#45;0.0264433976</text>
</g>
<!-- 15&#45;&gt;31 -->
<g id="edge9" class="edge">
<title>15&#45;&gt;31</title>
<path fill="none" stroke="#ff0000" d="M1651.11,-1541.52C1704.02,-1550.23 1776.65,-1562.18 1831.4,-1571.19"/>
<polygon fill="#ff0000" stroke="#ff0000" points="1830.51,-1574.59 1840.95,-1572.76 1831.65,-1567.68 1830.51,-1574.59"/>
<text text-anchor="middle" x="1771.88" y="-1568.45" font-family="Times New Roman,serif" font-size="14.00">yes</text>
</g>
<!-- 32 -->
<g id="node11" class="node">
<title>32</title>
<ellipse fill="none" stroke="black" cx="1910.24" cy="-1530" rx="84" ry="18"/>
<text text-anchor="middle" x="1910.24" y="-1524.58" font-family="Times New Roman,serif" font-size="14.00">leaf=&#45;0.0343966484</text>
</g>
<!-- 15&#45;&gt;32 -->
<g id="edge10" class="edge">
<title>15&#45;&gt;32</title>
<path fill="none" stroke="#0000ff" d="M1670.78,-1530C1715.39,-1530 1769.3,-1530 1814.57,-1530"/>
<polygon fill="#0000ff" stroke="#0000ff" points="1814.37,-1533.5 1824.37,-1530 1814.37,-1526.5 1814.37,-1533.5"/>
<text text-anchor="middle" x="1771.88" y="-1532.45" font-family="Times New Roman,serif" font-size="14.00">no, missing</text>
</g>
<!-- 33 -->
<g id="node12" class="node">
<title>33</title>
<ellipse fill="none" stroke="black" cx="1910.24" cy="-1476" rx="84" ry="18"/>
<text text-anchor="middle" x="1910.24" y="-1470.58" font-family="Times New Roman,serif" font-size="14.00">leaf=&#45;0.0158988126</text>
</g>
<!-- 16&#45;&gt;33 -->
<g id="edge11" class="edge">
<title>16&#45;&gt;33</title>
<path fill="none" stroke="#ff0000" d="M1667.76,-1456.13C1714.59,-1459.98 1772.35,-1464.74 1819.63,-1468.63"/>
<polygon fill="#ff0000" stroke="#ff0000" points="1819.34,-1472.11 1829.59,-1469.45 1819.92,-1465.14 1819.34,-1472.11"/>
<text text-anchor="middle" x="1771.88" y="-1469.45" font-family="Times New Roman,serif" font-size="14.00">yes</text>
</g>
<!-- 34 -->
<g id="node13" class="node">
<title>34</title>
<ellipse fill="none" stroke="black" cx="1910.24" cy="-1422" rx="88.49" ry="18"/>
<text text-anchor="middle" x="1910.24" y="-1416.58" font-family="Times New Roman,serif" font-size="14.00">leaf=&#45;0.00149317505</text>
</g>
<!-- 16&#45;&gt;34 -->
<g id="edge12" class="edge">
<title>16&#45;&gt;34</title>
<path fill="none" stroke="#0000ff" d="M1667.76,-1441.87C1713.45,-1438.11 1769.54,-1433.5 1816.16,-1429.66"/>
<polygon fill="#0000ff" stroke="#0000ff" points="1816.3,-1433.16 1825.98,-1428.85 1815.73,-1426.18 1816.3,-1433.16"/>
<text text-anchor="middle" x="1771.88" y="-1437.45" font-family="Times New Roman,serif" font-size="14.00">no, missing</text>
</g>
<!-- 35 -->
<g id="node16" class="node">
<title>35</title>
<ellipse fill="none" stroke="black" cx="1910.24" cy="-1368" rx="88.49" ry="18"/>
<text text-anchor="middle" x="1910.24" y="-1362.58" font-family="Times New Roman,serif" font-size="14.00">leaf=&#45;0.00376611319</text>
</g>
<!-- 17&#45;&gt;35 -->
<g id="edge15" class="edge">
<title>17&#45;&gt;35</title>
<path fill="none" stroke="#ff0000" d="M1636.41,-1323.1C1689.17,-1331.78 1769.25,-1344.96 1829.02,-1354.8"/>
<polygon fill="#ff0000" stroke="#ff0000" points="1828.39,-1358.24 1838.82,-1356.41 1829.52,-1351.33 1828.39,-1358.24"/>
<text text-anchor="middle" x="1771.88" y="-1352.45" font-family="Times New Roman,serif" font-size="14.00">yes</text>
</g>
<!-- 36 -->
<g id="node17" class="node">
<title>36</title>
<ellipse fill="none" stroke="black" cx="1910.24" cy="-1314" rx="81" ry="18"/>
<text text-anchor="middle" x="1910.24" y="-1308.58" font-family="Times New Roman,serif" font-size="14.00">leaf=0.0184116177</text>
</g>
<!-- 17&#45;&gt;36 -->
<g id="edge16" class="edge">
<title>17&#45;&gt;36</title>
<path fill="none" stroke="#0000ff" d="M1644.78,-1314C1693.94,-1314 1762.66,-1314 1817.73,-1314"/>
<polygon fill="#0000ff" stroke="#0000ff" points="1817.39,-1317.5 1827.39,-1314 1817.39,-1310.5 1817.39,-1317.5"/>
<text text-anchor="middle" x="1771.88" y="-1316.45" font-family="Times New Roman,serif" font-size="14.00">no, missing</text>
</g>
<!-- 37 -->
<g id="node18" class="node">
<title>37</title>
<ellipse fill="none" stroke="black" cx="1910.24" cy="-1260" rx="84" ry="18"/>
<text text-anchor="middle" x="1910.24" y="-1254.58" font-family="Times New Roman,serif" font-size="14.00">leaf=&#45;0.0180078745</text>
</g>
<!-- 18&#45;&gt;37 -->
<g id="edge17" class="edge">
<title>18&#45;&gt;37</title>
<path fill="none" stroke="#ff0000" d="M1644.78,-1260C1692.97,-1260 1759.95,-1260 1814.44,-1260"/>
<polygon fill="#ff0000" stroke="#ff0000" points="1814.36,-1263.5 1824.36,-1260 1814.36,-1256.5 1814.36,-1263.5"/>
<text text-anchor="middle" x="1771.88" y="-1262.45" font-family="Times New Roman,serif" font-size="14.00">yes</text>
</g>
<!-- 38 -->
<g id="node19" class="node">
<title>38</title>
<ellipse fill="none" stroke="black" cx="1910.24" cy="-1206" rx="88.49" ry="18"/>
<text text-anchor="middle" x="1910.24" y="-1200.58" font-family="Times New Roman,serif" font-size="14.00">leaf=&#45;0.00120213837</text>
</g>
<!-- 18&#45;&gt;38 -->
<g id="edge18" class="edge">
<title>18&#45;&gt;38</title>
<path fill="none" stroke="#0000ff" d="M1636.41,-1250.9C1689.17,-1242.22 1769.25,-1229.04 1829.02,-1219.2"/>
<polygon fill="#0000ff" stroke="#0000ff" points="1829.52,-1222.67 1838.82,-1217.59 1828.39,-1215.76 1829.52,-1222.67"/>
<text text-anchor="middle" x="1771.88" y="-1235.45" font-family="Times New Roman,serif" font-size="14.00">no, missing</text>
</g>
<!-- 19 -->
<g id="node22" class="node">
<title>19</title>
<ellipse fill="none" stroke="black" cx="1580.12" cy="-1098" rx="62.54" ry="18"/>
<text text-anchor="middle" x="1580.12" y="-1092.58" font-family="Times New Roman,serif" font-size="14.00">Industry_Law</text>
</g>
<!-- 9&#45;&gt;19 -->
<g id="edge21" class="edge">
<title>9&#45;&gt;19</title>
<path fill="none" stroke="#ff0000" d="M1305,-1040.69C1366.3,-1053.5 1457.2,-1072.51 1517.28,-1085.07"/>
<polygon fill="#ff0000" stroke="#ff0000" points="1516.51,-1088.49 1527.02,-1087.11 1517.95,-1081.63 1516.51,-1088.49"/>
<text text-anchor="middle" x="1388.37" y="-1066.45" font-family="Times New Roman,serif" font-size="14.00">yes</text>
</g>
<!-- 20 -->
<g id="node23" class="node">
<title>20</title>
<ellipse fill="none" stroke="black" cx="1580.12" cy="-1027" rx="35.6" ry="18"/>
<text text-anchor="middle" x="1580.12" y="-1021.58" font-family="Times New Roman,serif" font-size="14.00">Age&lt;3</text>
</g>
<!-- 9&#45;&gt;20 -->
<g id="edge22" class="edge">
<title>9&#45;&gt;20</title>
<path fill="none" stroke="#0000ff" d="M1338.21,-1027C1402.39,-1027 1483.11,-1027 1532.91,-1027"/>
<polygon fill="#0000ff" stroke="#0000ff" points="1532.75,-1030.5 1542.75,-1027 1532.75,-1023.5 1532.75,-1030.5"/>
<text text-anchor="middle" x="1388.37" y="-1029.45" font-family="Times New Roman,serif" font-size="14.00">no, missing</text>
</g>
<!-- 21 -->
<g id="node28" class="node">
<title>21</title>
<ellipse fill="none" stroke="black" cx="1580.12" cy="-909" rx="62.54" ry="18"/>
<text text-anchor="middle" x="1580.12" y="-903.58" font-family="Times New Roman,serif" font-size="14.00">Industry_Law</text>
</g>
<!-- 10&#45;&gt;21 -->
<g id="edge27" class="edge">
<title>10&#45;&gt;21</title>
<path fill="none" stroke="#ff0000" d="M1329.2,-909C1384.28,-909 1453.96,-909 1505.74,-909"/>
<polygon fill="#ff0000" stroke="#ff0000" points="1505.65,-912.5 1515.65,-909 1505.65,-905.5 1505.65,-912.5"/>
<text text-anchor="middle" x="1388.37" y="-911.45" font-family="Times New Roman,serif" font-size="14.00">yes</text>
</g>
<!-- 22 -->
<g id="node29" class="node">
<title>22</title>
<ellipse fill="none" stroke="black" cx="1580.12" cy="-828" rx="62.54" ry="18"/>
<text text-anchor="middle" x="1580.12" y="-822.58" font-family="Times New Roman,serif" font-size="14.00">Industry_Law</text>
</g>
<!-- 10&#45;&gt;22 -->
<g id="edge28" class="edge">
<title>10&#45;&gt;22</title>
<path fill="none" stroke="#0000ff" d="M1297.9,-895.08C1359.98,-880.27 1457.63,-856.98 1520,-842.1"/>
<polygon fill="#0000ff" stroke="#0000ff" points="1520.44,-845.59 1529.36,-839.87 1518.82,-838.79 1520.44,-845.59"/>
<text text-anchor="middle" x="1388.37" y="-882.45" font-family="Times New Roman,serif" font-size="14.00">no, missing</text>
</g>
<!-- 39 -->
<g id="node24" class="node">
<title>39</title>
<ellipse fill="none" stroke="black" cx="1910.24" cy="-1152" rx="84" ry="18"/>
<text text-anchor="middle" x="1910.24" y="-1146.58" font-family="Times New Roman,serif" font-size="14.00">leaf=&#45;0.0168876536</text>
</g>
<!-- 19&#45;&gt;39 -->
<g id="edge23" class="edge">
<title>19&#45;&gt;39</title>
<path fill="none" stroke="#ff0000" d="M1635.31,-1106.92C1688.77,-1115.72 1771.04,-1129.26 1831.48,-1139.2"/>
<polygon fill="#ff0000" stroke="#ff0000" points="1830.57,-1142.6 1841,-1140.77 1831.7,-1135.69 1830.57,-1142.6"/>
<text text-anchor="middle" x="1771.88" y="-1136.45" font-family="Times New Roman,serif" font-size="14.00">yes</text>
</g>
<!-- 40 -->
<g id="node25" class="node">
<title>40</title>
<ellipse fill="none" stroke="black" cx="1910.24" cy="-1098" rx="85.49" ry="18"/>
<text text-anchor="middle" x="1910.24" y="-1092.58" font-family="Times New Roman,serif" font-size="14.00">leaf=0.00300396048</text>
</g>
<!-- 19&#45;&gt;40 -->
<g id="edge24" class="edge">
<title>19&#45;&gt;40</title>
<path fill="none" stroke="#0000ff" d="M1642.84,-1098C1690.77,-1098 1758.12,-1098 1813.1,-1098"/>
<polygon fill="#0000ff" stroke="#0000ff" points="1812.76,-1101.5 1822.76,-1098 1812.76,-1094.5 1812.76,-1101.5"/>
<text text-anchor="middle" x="1771.88" y="-1100.45" font-family="Times New Roman,serif" font-size="14.00">no, missing</text>
</g>
<!-- 41 -->
<g id="node26" class="node">
<title>41</title>
<ellipse fill="none" stroke="black" cx="1910.24" cy="-1044" rx="81" ry="18"/>
<text text-anchor="middle" x="1910.24" y="-1038.58" font-family="Times New Roman,serif" font-size="14.00">leaf=0.0623336732</text>
</g>
<!-- 20&#45;&gt;41 -->
<g id="edge25" class="edge">
<title>20&#45;&gt;41</title>
<path fill="none" stroke="#ff0000" d="M1615.93,-1028.8C1663.95,-1031.29 1752.21,-1035.86 1819.41,-1039.35"/>
<polygon fill="#ff0000" stroke="#ff0000" points="1819.17,-1042.84 1829.34,-1039.86 1819.53,-1035.85 1819.17,-1042.84"/>
<text text-anchor="middle" x="1771.88" y="-1040.45" font-family="Times New Roman,serif" font-size="14.00">yes</text>
</g>
<!-- 42 -->
<g id="node27" class="node">
<title>42</title>
<ellipse fill="none" stroke="black" cx="1910.24" cy="-990" rx="81" ry="18"/>
<text text-anchor="middle" x="1910.24" y="-984.58" font-family="Times New Roman,serif" font-size="14.00">leaf=0.0109519204</text>
</g>
<!-- 20&#45;&gt;42 -->
<g id="edge26" class="edge">
<title>20&#45;&gt;42</title>
<path fill="none" stroke="#0000ff" d="M1615.31,-1023.15C1664.75,-1017.57 1757.76,-1007.08 1825.96,-999.39"/>
<polygon fill="#0000ff" stroke="#0000ff" points="1826.05,-1002.9 1835.6,-998.3 1825.27,-995.95 1826.05,-1002.9"/>
<text text-anchor="middle" x="1771.88" y="-1010.45" font-family="Times New Roman,serif" font-size="14.00">no, missing</text>
</g>
<!-- 43 -->
<g id="node30" class="node">
<title>43</title>
<ellipse fill="none" stroke="black" cx="1910.24" cy="-936" rx="76.51" ry="18"/>
<text text-anchor="middle" x="1910.24" y="-930.58" font-family="Times New Roman,serif" font-size="14.00">leaf=0.033635132</text>
</g>
<!-- 21&#45;&gt;43 -->
<g id="edge29" class="edge">
<title>21&#45;&gt;43</title>
<path fill="none" stroke="#ff0000" d="M1640.54,-913.89C1692.4,-918.16 1768.19,-924.39 1826.07,-929.16"/>
<polygon fill="#ff0000" stroke="#ff0000" points="1825.63,-932.63 1835.88,-929.96 1826.2,-925.65 1825.63,-932.63"/>
<text text-anchor="middle" x="1771.88" y="-929.45" font-family="Times New Roman,serif" font-size="14.00">yes</text>
</g>
<!-- 44 -->
<g id="node31" class="node">
<title>44</title>
<ellipse fill="none" stroke="black" cx="1910.24" cy="-882" rx="81" ry="18"/>
<text text-anchor="middle" x="1910.24" y="-876.58" font-family="Times New Roman,serif" font-size="14.00">leaf=0.0520823635</text>
</g>
<!-- 21&#45;&gt;44 -->
<g id="edge30" class="edge">
<title>21&#45;&gt;44</title>
<path fill="none" stroke="#0000ff" d="M1640.54,-904.11C1691.27,-899.94 1764.91,-893.88 1822.27,-889.16"/>
<polygon fill="#0000ff" stroke="#0000ff" points="1822.33,-892.66 1832.01,-888.36 1821.75,-885.69 1822.33,-892.66"/>
<text text-anchor="middle" x="1771.88" y="-897.45" font-family="Times New Roman,serif" font-size="14.00">no, missing</text>
</g>
<!-- 45 -->
<g id="node32" class="node">
<title>45</title>
<ellipse fill="none" stroke="black" cx="1910.24" cy="-828" rx="85.49" ry="18"/>
<text text-anchor="middle" x="1910.24" y="-822.58" font-family="Times New Roman,serif" font-size="14.00">leaf=0.00961089693</text>
</g>
<!-- 22&#45;&gt;45 -->
<g id="edge31" class="edge">
<title>22&#45;&gt;45</title>
<path fill="none" stroke="#ff0000" d="M1642.84,-828C1690.77,-828 1758.12,-828 1813.1,-828"/>
<polygon fill="#ff0000" stroke="#ff0000" points="1812.76,-831.5 1822.76,-828 1812.76,-824.5 1812.76,-831.5"/>
<text text-anchor="middle" x="1771.88" y="-830.45" font-family="Times New Roman,serif" font-size="14.00">yes</text>
</g>
<!-- 46 -->
<g id="node33" class="node">
<title>46</title>
<ellipse fill="none" stroke="black" cx="1910.24" cy="-774" rx="81" ry="18"/>
<text text-anchor="middle" x="1910.24" y="-768.58" font-family="Times New Roman,serif" font-size="14.00">leaf=0.0272671152</text>
</g>
<!-- 22&#45;&gt;46 -->
<g id="edge32" class="edge">
<title>22&#45;&gt;46</title>
<path fill="none" stroke="#0000ff" d="M1635.31,-819.08C1689.2,-810.21 1772.36,-796.53 1832.93,-786.56"/>
<polygon fill="#0000ff" stroke="#0000ff" points="1833.17,-790.07 1842.47,-784.99 1832.03,-783.16 1833.17,-790.07"/>
<text text-anchor="middle" x="1771.88" y="-803.45" font-family="Times New Roman,serif" font-size="14.00">no, missing</text>
</g>
<!-- 11 -->
<g id="node36" class="node">
<title>11</title>
<ellipse fill="none" stroke="black" cx="1238.53" cy="-595" rx="35.6" ry="18"/>
<text text-anchor="middle" x="1238.53" y="-589.58" font-family="Times New Roman,serif" font-size="14.00">Age&lt;3</text>
</g>
<!-- 5&#45;&gt;11 -->
<g id="edge35" class="edge">
<title>5&#45;&gt;11</title>
<path fill="none" stroke="#ff0000" d="M1020.57,-561.12C1074.5,-569.55 1146.92,-580.85 1192.92,-588.03"/>
<polygon fill="#ff0000" stroke="#ff0000" points="1192.1,-591.45 1202.52,-589.53 1193.18,-584.53 1192.1,-591.45"/>
<text text-anchor="middle" x="1088.69" y="-578.45" font-family="Times New Roman,serif" font-size="14.00">yes</text>
</g>
<!-- 12 -->
<g id="node37" class="node">
<title>12</title>
<ellipse fill="none" stroke="black" cx="1238.53" cy="-504" rx="64.54" ry="18"/>
<text text-anchor="middle" x="1238.53" y="-498.57" font-family="Times New Roman,serif" font-size="14.00">Country_India</text>
</g>
<!-- 5&#45;&gt;12 -->
<g id="edge36" class="edge">
<title>5&#45;&gt;12</title>
<path fill="none" stroke="#0000ff" d="M1020.2,-538.69C1066.14,-531.36 1125.6,-521.86 1170.71,-514.66"/>
<polygon fill="#0000ff" stroke="#0000ff" points="1171.04,-518.16 1180.36,-513.12 1169.93,-511.24 1171.04,-518.16"/>
<text text-anchor="middle" x="1088.69" y="-534.45" font-family="Times New Roman,serif" font-size="14.00">no, missing</text>
</g>
<!-- 13 -->
<g id="node48" class="node">
<title>13</title>
<ellipse fill="none" stroke="black" cx="1238.53" cy="-315" rx="72.52" ry="18"/>
<text text-anchor="middle" x="1238.53" y="-309.57" font-family="Times New Roman,serif" font-size="14.00">Gender_Woman</text>
</g>
<!-- 6&#45;&gt;13 -->
<g id="edge47" class="edge">
<title>6&#45;&gt;13</title>
<path fill="none" stroke="#ff0000" d="M1038.93,-315C1075.76,-315 1118.16,-315 1154.3,-315"/>
<polygon fill="#ff0000" stroke="#ff0000" points="1154.28,-318.5 1164.28,-315 1154.28,-311.5 1154.28,-318.5"/>
<text text-anchor="middle" x="1088.69" y="-317.45" font-family="Times New Roman,serif" font-size="14.00">yes</text>
</g>
<!-- 14 -->
<g id="node49" class="node">
<title>14</title>
<ellipse fill="none" stroke="black" cx="1238.53" cy="-153" rx="99.97" ry="18"/>
<text text-anchor="middle" x="1238.53" y="-147.57" font-family="Times New Roman,serif" font-size="14.00">Highest Education_PhD</text>
</g>
<!-- 6&#45;&gt;14 -->
<g id="edge48" class="edge">
<title>6&#45;&gt;14</title>
<path fill="none" stroke="#0000ff" d="M979.9,-297.82C1031.96,-268.55 1137.89,-209.01 1196.4,-176.12"/>
<polygon fill="#0000ff" stroke="#0000ff" points="1198.08,-179.19 1205.08,-171.24 1194.65,-173.09 1198.08,-179.19"/>
<text text-anchor="middle" x="1088.69" y="-255.45" font-family="Times New Roman,serif" font-size="14.00">no, missing</text>
</g>
<!-- 23 -->
<g id="node38" class="node">
<title>23</title>
<ellipse fill="none" stroke="black" cx="1580.12" cy="-666" rx="99.47" ry="18"/>
<text text-anchor="middle" x="1580.12" y="-660.58" font-family="Times New Roman,serif" font-size="14.00">Years job_11 &#45; 20 years</text>
</g>
<!-- 11&#45;&gt;23 -->
<g id="edge37" class="edge">
<title>11&#45;&gt;23</title>
<path fill="none" stroke="#ff0000" d="M1272.09,-601.81C1324.75,-612.82 1430.01,-634.83 1502.49,-649.98"/>
<polygon fill="#ff0000" stroke="#ff0000" points="1501.39,-653.32 1511.89,-651.94 1502.82,-646.47 1501.39,-653.32"/>
<text text-anchor="middle" x="1388.37" y="-634.45" font-family="Times New Roman,serif" font-size="14.00">yes</text>
</g>
<!-- 24 -->
<g id="node39" class="node">
<title>24</title>
<ellipse fill="none" stroke="black" cx="1580.12" cy="-595" rx="72.52" ry="18"/>
<text text-anchor="middle" x="1580.12" y="-589.58" font-family="Times New Roman,serif" font-size="14.00">Gender_Woman</text>
</g>
<!-- 11&#45;&gt;24 -->
<g id="edge38" class="edge">
<title>11&#45;&gt;24</title>
<path fill="none" stroke="#0000ff" d="M1274.59,-595C1326.47,-595 1425.17,-595 1496.17,-595"/>
<polygon fill="#0000ff" stroke="#0000ff" points="1495.8,-598.5 1505.8,-595 1495.8,-591.5 1495.8,-598.5"/>
<text text-anchor="middle" x="1388.37" y="-597.45" font-family="Times New Roman,serif" font-size="14.00">no, missing</text>
</g>
<!-- 25 -->
<g id="node44" class="node">
<title>25</title>
<ellipse fill="none" stroke="black" cx="1580.12" cy="-504" rx="99.97" ry="18"/>
<text text-anchor="middle" x="1580.12" y="-498.57" font-family="Times New Roman,serif" font-size="14.00">Highest Education_PhD</text>
</g>
<!-- 12&#45;&gt;25 -->
<g id="edge43" class="edge">
<title>12&#45;&gt;25</title>
<path fill="none" stroke="#ff0000" d="M1303.4,-504C1349.77,-504 1413.69,-504 1468.3,-504"/>
<polygon fill="#ff0000" stroke="#ff0000" points="1468.29,-507.5 1478.29,-504 1468.29,-500.5 1468.29,-507.5"/>
<text text-anchor="middle" x="1388.37" y="-506.45" font-family="Times New Roman,serif" font-size="14.00">yes</text>
</g>
<!-- 26 -->
<g id="node45" class="node">
<title>26</title>
<ellipse fill="none" stroke="black" cx="1580.12" cy="-450" rx="84" ry="18"/>
<text text-anchor="middle" x="1580.12" y="-444.57" font-family="Times New Roman,serif" font-size="14.00">leaf=&#45;0.0559944324</text>
</g>
<!-- 12&#45;&gt;26 -->
<g id="edge44" class="edge">
<title>12&#45;&gt;26</title>
<path fill="none" stroke="#0000ff" d="M1294.24,-494.59C1313.87,-491.26 1336.16,-487.53 1356.49,-484.25 1403.7,-476.63 1456.61,-468.48 1499,-462.04"/>
<polygon fill="#0000ff" stroke="#0000ff" points="1499.52,-465.5 1508.89,-460.54 1498.47,-458.58 1499.52,-465.5"/>
<text text-anchor="middle" x="1388.37" y="-486.45" font-family="Times New Roman,serif" font-size="14.00">no, missing</text>
</g>
<!-- 47 -->
<g id="node40" class="node">
<title>47</title>
<ellipse fill="none" stroke="black" cx="1910.24" cy="-720" rx="88.49" ry="18"/>
<text text-anchor="middle" x="1910.24" y="-714.58" font-family="Times New Roman,serif" font-size="14.00">leaf=&#45;0.00713472301</text>
</g>
<!-- 23&#45;&gt;47 -->
<g id="edge39" class="edge">
<title>23&#45;&gt;47</title>
<path fill="none" stroke="#ff0000" d="M1655.17,-678.19C1706.96,-686.71 1776.09,-698.09 1829.16,-706.82"/>
<polygon fill="#ff0000" stroke="#ff0000" points="1828.3,-710.23 1838.74,-708.4 1829.44,-703.32 1828.3,-710.23"/>
<text text-anchor="middle" x="1771.88" y="-704.45" font-family="Times New Roman,serif" font-size="14.00">yes</text>
</g>
<!-- 48 -->
<g id="node41" class="node">
<title>48</title>
<ellipse fill="none" stroke="black" cx="1910.24" cy="-666" rx="81" ry="18"/>
<text text-anchor="middle" x="1910.24" y="-660.58" font-family="Times New Roman,serif" font-size="14.00">leaf=0.0189617388</text>
</g>
<!-- 23&#45;&gt;48 -->
<g id="edge40" class="edge">
<title>23&#45;&gt;48</title>
<path fill="none" stroke="#0000ff" d="M1680.01,-666C1723.75,-666 1774.87,-666 1817.72,-666"/>
<polygon fill="#0000ff" stroke="#0000ff" points="1817.48,-669.5 1827.48,-666 1817.48,-662.5 1817.48,-669.5"/>
<text text-anchor="middle" x="1771.88" y="-668.45" font-family="Times New Roman,serif" font-size="14.00">no, missing</text>
</g>
<!-- 49 -->
<g id="node42" class="node">
<title>49</title>
<ellipse fill="none" stroke="black" cx="1910.24" cy="-612" rx="76.51" ry="18"/>
<text text-anchor="middle" x="1910.24" y="-606.58" font-family="Times New Roman,serif" font-size="14.00">leaf=0.022186704</text>
</g>
<!-- 24&#45;&gt;49 -->
<g id="edge41" class="edge">
<title>24&#45;&gt;49</title>
<path fill="none" stroke="#ff0000" d="M1651.51,-598.65C1701.97,-601.26 1770.2,-604.8 1823.78,-607.57"/>
<polygon fill="#ff0000" stroke="#ff0000" points="1823.3,-611.05 1833.47,-608.07 1823.66,-604.06 1823.3,-611.05"/>
<text text-anchor="middle" x="1771.88" y="-608.45" font-family="Times New Roman,serif" font-size="14.00">yes</text>
</g>
<!-- 50 -->
<g id="node43" class="node">
<title>50</title>
<ellipse fill="none" stroke="black" cx="1910.24" cy="-558" rx="85.49" ry="18"/>
<text text-anchor="middle" x="1910.24" y="-552.58" font-family="Times New Roman,serif" font-size="14.00">leaf=0.00246471865</text>
</g>
<!-- 24&#45;&gt;50 -->
<g id="edge42" class="edge">
<title>24&#45;&gt;50</title>
<path fill="none" stroke="#0000ff" d="M1646.73,-587.6C1697.3,-581.9 1767.66,-573.97 1822.82,-567.75"/>
<polygon fill="#0000ff" stroke="#0000ff" points="1822.94,-571.25 1832.48,-566.66 1822.15,-564.3 1822.94,-571.25"/>
<text text-anchor="middle" x="1771.88" y="-578.45" font-family="Times New Roman,serif" font-size="14.00">no, missing</text>
</g>
<!-- 51 -->
<g id="node46" class="node">
<title>51</title>
<ellipse fill="none" stroke="black" cx="1910.24" cy="-504" rx="84" ry="18"/>
<text text-anchor="middle" x="1910.24" y="-498.57" font-family="Times New Roman,serif" font-size="14.00">leaf=&#45;0.0217119958</text>
</g>
<!-- 25&#45;&gt;51 -->
<g id="edge45" class="edge">
<title>25&#45;&gt;51</title>
<path fill="none" stroke="#ff0000" d="M1680.46,-504C1723.05,-504 1772.57,-504 1814.63,-504"/>
<polygon fill="#ff0000" stroke="#ff0000" points="1814.48,-507.5 1824.48,-504 1814.48,-500.5 1814.48,-507.5"/>
<text text-anchor="middle" x="1771.88" y="-506.45" font-family="Times New Roman,serif" font-size="14.00">yes</text>
</g>
<!-- 52 -->
<g id="node47" class="node">
<title>52</title>
<ellipse fill="none" stroke="black" cx="1910.24" cy="-450" rx="88.49" ry="18"/>
<text text-anchor="middle" x="1910.24" y="-444.57" font-family="Times New Roman,serif" font-size="14.00">leaf=&#45;0.00129181333</text>
</g>
<!-- 25&#45;&gt;52 -->
<g id="edge46" class="edge">
<title>25&#45;&gt;52</title>
<path fill="none" stroke="#0000ff" d="M1655.17,-491.81C1706.96,-483.29 1776.09,-471.91 1829.16,-463.18"/>
<polygon fill="#0000ff" stroke="#0000ff" points="1829.44,-466.68 1838.74,-461.6 1828.3,-459.77 1829.44,-466.68"/>
<text text-anchor="middle" x="1771.88" y="-479.45" font-family="Times New Roman,serif" font-size="14.00">no, missing</text>
</g>
<!-- 27 -->
<g id="node50" class="node">
<title>27</title>
<ellipse fill="none" stroke="black" cx="1580.12" cy="-342" rx="85.49" ry="18"/>
<text text-anchor="middle" x="1580.12" y="-336.57" font-family="Times New Roman,serif" font-size="14.00">Years job_5&#45;7 years</text>
</g>
<!-- 13&#45;&gt;27 -->
<g id="edge49" class="edge">
<title>13&#45;&gt;27</title>
<path fill="none" stroke="#ff0000" d="M1308.25,-320.46C1360.02,-324.58 1431.49,-330.26 1488.02,-334.76"/>
<polygon fill="#ff0000" stroke="#ff0000" points="1487.72,-338.24 1497.97,-335.55 1488.28,-331.27 1487.72,-338.24"/>
<text text-anchor="middle" x="1388.37" y="-331.45" font-family="Times New Roman,serif" font-size="14.00">yes</text>
</g>
<!-- 28 -->
<g id="node51" class="node">
<title>28</title>
<ellipse fill="none" stroke="black" cx="1580.12" cy="-288" rx="141.88" ry="18"/>
<text text-anchor="middle" x="1580.12" y="-282.57" font-family="Times New Roman,serif" font-size="14.00">Highest Education_Master&#39;s degree</text>
</g>
<!-- 13&#45;&gt;28 -->
<g id="edge50" class="edge">
<title>13&#45;&gt;28</title>
<path fill="none" stroke="#0000ff" d="M1306.93,-308.59C1323.15,-307.1 1340.44,-305.57 1356.49,-304.25 1384.54,-301.94 1414.58,-299.63 1443.24,-297.51"/>
<polygon fill="#0000ff" stroke="#0000ff" points="1443.34,-301.01 1453.06,-296.79 1442.83,-294.03 1443.34,-301.01"/>
<text text-anchor="middle" x="1388.37" y="-306.45" font-family="Times New Roman,serif" font-size="14.00">no, missing</text>
</g>
<!-- 29 -->
<g id="node56" class="node">
<title>29</title>
<ellipse fill="none" stroke="black" cx="1580.12" cy="-153" rx="82" ry="18"/>
<text text-anchor="middle" x="1580.12" y="-147.57" font-family="Times New Roman,serif" font-size="14.00">Job Title Cluster&lt;1</text>
</g>
<!-- 14&#45;&gt;29 -->
<g id="edge55" class="edge">
<title>14&#45;&gt;29</title>
<path fill="none" stroke="#ff0000" d="M1338.66,-153C1385.32,-153 1440.63,-153 1486.44,-153"/>
<polygon fill="#ff0000" stroke="#ff0000" points="1486.36,-156.5 1496.36,-153 1486.36,-149.5 1486.36,-156.5"/>
<text text-anchor="middle" x="1388.37" y="-155.45" font-family="Times New Roman,serif" font-size="14.00">yes</text>
</g>
<!-- 30 -->
<g id="node57" class="node">
<title>30</title>
<ellipse fill="none" stroke="black" cx="1580.12" cy="-72" rx="72.52" ry="18"/>
<text text-anchor="middle" x="1580.12" y="-66.58" font-family="Times New Roman,serif" font-size="14.00">Gender_Woman</text>
</g>
<!-- 14&#45;&gt;30 -->
<g id="edge56" class="edge">
<title>14&#45;&gt;30</title>
<path fill="none" stroke="#0000ff" d="M1300.24,-138.52C1360.94,-124.04 1453.91,-101.87 1515.59,-87.15"/>
<polygon fill="#0000ff" stroke="#0000ff" points="1516.34,-90.57 1525.26,-84.85 1514.72,-83.76 1516.34,-90.57"/>
<text text-anchor="middle" x="1388.37" y="-126.45" font-family="Times New Roman,serif" font-size="14.00">no, missing</text>
</g>
<!-- 53 -->
<g id="node52" class="node">
<title>53</title>
<ellipse fill="none" stroke="black" cx="1910.24" cy="-396" rx="81" ry="18"/>
<text text-anchor="middle" x="1910.24" y="-390.57" font-family="Times New Roman,serif" font-size="14.00">leaf=0.0655327365</text>
</g>
<!-- 27&#45;&gt;53 -->
<g id="edge51" class="edge">
<title>27&#45;&gt;53</title>
<path fill="none" stroke="#ff0000" d="M1648.71,-353.12C1702.24,-361.93 1777.03,-374.24 1832.75,-383.41"/>
<polygon fill="#ff0000" stroke="#ff0000" points="1832.05,-386.84 1842.49,-385.01 1833.19,-379.94 1832.05,-386.84"/>
<text text-anchor="middle" x="1771.88" y="-380.45" font-family="Times New Roman,serif" font-size="14.00">yes</text>
</g>
<!-- 54 -->
<g id="node53" class="node">
<title>54</title>
<ellipse fill="none" stroke="black" cx="1910.24" cy="-342" rx="81" ry="18"/>
<text text-anchor="middle" x="1910.24" y="-336.57" font-family="Times New Roman,serif" font-size="14.00">leaf=0.0378126279</text>
</g>
<!-- 27&#45;&gt;54 -->
<g id="edge52" class="edge">
<title>27&#45;&gt;54</title>
<path fill="none" stroke="#0000ff" d="M1666.05,-342C1712.55,-342 1770.19,-342 1817.69,-342"/>
<polygon fill="#0000ff" stroke="#0000ff" points="1817.39,-345.5 1827.39,-342 1817.39,-338.5 1817.39,-345.5"/>
<text text-anchor="middle" x="1771.88" y="-344.45" font-family="Times New Roman,serif" font-size="14.00">no, missing</text>
</g>
<!-- 55 -->
<g id="node54" class="node">
<title>55</title>
<ellipse fill="none" stroke="black" cx="1910.24" cy="-288" rx="81" ry="18"/>
<text text-anchor="middle" x="1910.24" y="-282.57" font-family="Times New Roman,serif" font-size="14.00">leaf=0.0326248109</text>
</g>
<!-- 28&#45;&gt;55 -->
<g id="edge53" class="edge">
<title>28&#45;&gt;55</title>
<path fill="none" stroke="#ff0000" d="M1722.18,-288C1754.52,-288 1788.08,-288 1817.7,-288"/>
<polygon fill="#ff0000" stroke="#ff0000" points="1817.33,-291.5 1827.33,-288 1817.33,-284.5 1817.33,-291.5"/>
<text text-anchor="middle" x="1771.88" y="-290.45" font-family="Times New Roman,serif" font-size="14.00">yes</text>
</g>
<!-- 56 -->
<g id="node55" class="node">
<title>56</title>
<ellipse fill="none" stroke="black" cx="1910.24" cy="-234" rx="81" ry="18"/>
<text text-anchor="middle" x="1910.24" y="-228.57" font-family="Times New Roman,serif" font-size="14.00">leaf=0.0460525341</text>
</g>
<!-- 28&#45;&gt;56 -->
<g id="edge54" class="edge">
<title>28&#45;&gt;56</title>
<path fill="none" stroke="#0000ff" d="M1668.62,-273.6C1719.79,-265.18 1783.76,-254.65 1832.88,-246.57"/>
<polygon fill="#0000ff" stroke="#0000ff" points="1833.28,-250.05 1842.58,-244.97 1832.14,-243.14 1833.28,-250.05"/>
<text text-anchor="middle" x="1771.88" y="-263.45" font-family="Times New Roman,serif" font-size="14.00">no, missing</text>
</g>
<!-- 57 -->
<g id="node58" class="node">
<title>57</title>
<ellipse fill="none" stroke="black" cx="1910.24" cy="-180" rx="85.49" ry="18"/>
<text text-anchor="middle" x="1910.24" y="-174.57" font-family="Times New Roman,serif" font-size="14.00">leaf=0.00985727273</text>
</g>
<!-- 29&#45;&gt;57 -->
<g id="edge57" class="edge">
<title>29&#45;&gt;57</title>
<path fill="none" stroke="#ff0000" d="M1657.64,-159.3C1705.79,-163.26 1768.17,-168.39 1818.77,-172.56"/>
<polygon fill="#ff0000" stroke="#ff0000" points="1818.27,-176.03 1828.53,-173.36 1818.85,-169.05 1818.27,-176.03"/>
<text text-anchor="middle" x="1771.88" y="-173.45" font-family="Times New Roman,serif" font-size="14.00">yes</text>
</g>
<!-- 58 -->
<g id="node59" class="node">
<title>58</title>
<ellipse fill="none" stroke="black" cx="1910.24" cy="-126" rx="81" ry="18"/>
<text text-anchor="middle" x="1910.24" y="-120.58" font-family="Times New Roman,serif" font-size="14.00">leaf=0.0307556912</text>
</g>
<!-- 29&#45;&gt;58 -->
<g id="edge58" class="edge">
<title>29&#45;&gt;58</title>
<path fill="none" stroke="#0000ff" d="M1657.64,-146.7C1706.93,-142.65 1771.14,-137.36 1822.35,-133.15"/>
<polygon fill="#0000ff" stroke="#0000ff" points="1822.55,-136.65 1832.23,-132.34 1821.98,-129.67 1822.55,-136.65"/>
<text text-anchor="middle" x="1771.88" y="-141.45" font-family="Times New Roman,serif" font-size="14.00">no, missing</text>
</g>
<!-- 59 -->
<g id="node60" class="node">
<title>59</title>
<ellipse fill="none" stroke="black" cx="1910.24" cy="-72" rx="81" ry="18"/>
<text text-anchor="middle" x="1910.24" y="-66.58" font-family="Times New Roman,serif" font-size="14.00">leaf=0.0782030672</text>
</g>
<!-- 30&#45;&gt;59 -->
<g id="edge59" class="edge">
<title>30&#45;&gt;59</title>
<path fill="none" stroke="#ff0000" d="M1653.13,-72C1701.46,-72 1765.55,-72 1817.53,-72"/>
<polygon fill="#ff0000" stroke="#ff0000" points="1817.25,-75.5 1827.25,-72 1817.25,-68.5 1817.25,-75.5"/>
<text text-anchor="middle" x="1771.88" y="-74.45" font-family="Times New Roman,serif" font-size="14.00">yes</text>
</g>
<!-- 60 -->
<g id="node61" class="node">
<title>60</title>
<ellipse fill="none" stroke="black" cx="1910.24" cy="-18" rx="81" ry="18"/>
<text text-anchor="middle" x="1910.24" y="-12.57" font-family="Times New Roman,serif" font-size="14.00">leaf=0.0527632721</text>
</g>
<!-- 30&#45;&gt;60 -->
<g id="edge60" class="edge">
<title>30&#45;&gt;60</title>
<path fill="none" stroke="#0000ff" d="M1641.3,-62.1C1695.27,-53.21 1774.72,-40.14 1833.09,-30.53"/>
<polygon fill="#0000ff" stroke="#0000ff" points="1833.31,-34.04 1842.61,-28.97 1832.17,-27.14 1833.31,-34.04"/>
<text text-anchor="middle" x="1771.88" y="-47.45" font-family="Times New Roman,serif" font-size="14.00">no, missing</text>
</g>
</g>
</svg>
