<?xml version="1.0" encoding="UTF-8" standalone="no"?>
<!DOCTYPE svg PUBLIC "-//W3C//DTD SVG 1.1//EN"
 "http://www.w3.org/Graphics/SVG/1.1/DTD/svg11.dtd">
<!-- Generated by graphviz version 11.0.0 (20240428.1522)
 -->
<!-- Pages: 1 -->
<svg width="1980pt" height="1610pt"
 viewBox="0.00 0.00 1979.79 1610.00" xmlns="http://www.w3.org/2000/svg" xmlns:xlink="http://www.w3.org/1999/xlink">
<g id="graph0" class="graph" transform="scale(1 1) rotate(0) translate(4 1606)">
<polygon fill="white" stroke="none" points="-4,4 -4,-1606 1975.79,-1606 1975.79,4 -4,4"/>
<!-- 0 -->
<g id="node1" class="node">
<title>0</title>
<ellipse fill="none" stroke="black" cx="116.43" cy="-765" rx="116.43" ry="18"/>
<text text-anchor="middle" x="116.43" y="-759.58" font-family="Times New Roman,serif" font-size="14.00">Industry_Computing or tech</text>
</g>
<!-- 1 -->
<g id="node2" class="node">
<title>1</title>
<ellipse fill="none" stroke="black" cx="545.35" cy="-968" rx="212.74" ry="18"/>
<text text-anchor="middle" x="545.35" y="-962.58" font-family="Times New Roman,serif" font-size="14.00">Highest Education_Professional degree (MD, JD, etc.)</text>
</g>
<!-- 0&#45;&gt;1 -->
<g id="edge1" class="edge">
<title>0&#45;&gt;1</title>
<path fill="none" stroke="#ff0000" d="M154.2,-782.48C231.28,-819.14 409.78,-904.01 496,-945.01"/>
<polygon fill="#ff0000" stroke="#ff0000" points="494.4,-948.12 504.93,-949.26 497.4,-941.8 494.4,-948.12"/>
<text text-anchor="middle" x="282.74" y="-856.45" font-family="Times New Roman,serif" font-size="14.00">yes</text>
</g>
<!-- 2 -->
<g id="node3" class="node">
<title>2</title>
<ellipse fill="none" stroke="black" cx="545.35" cy="-550" rx="64.54" ry="18"/>
<text text-anchor="middle" x="545.35" y="-544.58" font-family="Times New Roman,serif" font-size="14.00">Country_USA</text>
</g>
<!-- 0&#45;&gt;2 -->
<g id="edge2" class="edge">
<title>0&#45;&gt;2</title>
<path fill="none" stroke="#0000ff" d="M152.37,-747.41C230.38,-708.12 418.49,-613.39 502.55,-571.05"/>
<polygon fill="#0000ff" stroke="#0000ff" points="504.04,-574.22 511.4,-566.6 500.89,-567.97 504.04,-574.22"/>
<text text-anchor="middle" x="282.74" y="-697.45" font-family="Times New Roman,serif" font-size="14.00">no, missing</text>
</g>
<!-- 3 -->
<g id="node4" class="node">
<title>3</title>
<ellipse fill="none" stroke="black" cx="948.33" cy="-1287" rx="35.6" ry="18"/>
<text text-anchor="middle" x="948.33" y="-1281.58" font-family="Times New Roman,serif" font-size="14.00">Age&lt;3</text>
</g>
<!-- 1&#45;&gt;3 -->
<g id="edge3" class="edge">
<title>1&#45;&gt;3</title>
<path fill="none" stroke="#ff0000" d="M569.35,-986.3C638.45,-1041.27 844.08,-1204.86 919.33,-1264.73"/>
<polygon fill="#ff0000" stroke="#ff0000" points="917.06,-1267.4 927.07,-1270.88 921.42,-1261.92 917.06,-1267.4"/>
<text text-anchor="middle" x="807.97" y="-1203.45" font-family="Times New Roman,serif" font-size="14.00">yes</text>
</g>
<!-- 4 -->
<g id="node5" class="node">
<title>4</title>
<ellipse fill="none" stroke="black" cx="948.33" cy="-968" rx="64.54" ry="18"/>
<text text-anchor="middle" x="948.33" y="-962.58" font-family="Times New Roman,serif" font-size="14.00">Country_USA</text>
</g>
<!-- 1&#45;&gt;4 -->
<g id="edge4" class="edge">
<title>1&#45;&gt;4</title>
<path fill="none" stroke="#0000ff" d="M758.58,-968C799.41,-968 839.6,-968 872.32,-968"/>
<polygon fill="#0000ff" stroke="#0000ff" points="872.06,-971.5 882.06,-968 872.06,-964.5 872.06,-971.5"/>
<text text-anchor="middle" x="807.97" y="-970.45" font-family="Times New Roman,serif" font-size="14.00">no, missing</text>
</g>
<!-- 5 -->
<g id="node34" class="node">
<title>5</title>
<ellipse fill="none" stroke="black" cx="948.33" cy="-550" rx="90.48" ry="18"/>
<text text-anchor="middle" x="948.33" y="-544.58" font-family="Times New Roman,serif" font-size="14.00">Years job_2 &#45; 4 years</text>
</g>
<!-- 2&#45;&gt;5 -->
<g id="edge33" class="edge">
<title>2&#45;&gt;5</title>
<path fill="none" stroke="#ff0000" d="M610.33,-550C673.85,-550 772.17,-550 846.25,-550"/>
<polygon fill="#ff0000" stroke="#ff0000" points="845.94,-553.5 855.94,-550 845.94,-546.5 845.94,-553.5"/>
<text text-anchor="middle" x="807.97" y="-552.45" font-family="Times New Roman,serif" font-size="14.00">yes</text>
</g>
<!-- 6 -->
<g id="node35" class="node">
<title>6</title>
<ellipse fill="none" stroke="black" cx="948.33" cy="-315" rx="90.48" ry="18"/>
<text text-anchor="middle" x="948.33" y="-309.57" font-family="Times New Roman,serif" font-size="14.00">Years job_2 &#45; 4 years</text>
</g>
<!-- 2&#45;&gt;6 -->
<g id="edge34" class="edge">
<title>2&#45;&gt;6</title>
<path fill="none" stroke="#0000ff" d="M574.55,-533.48C644.72,-492.35 827.36,-385.31 908.04,-338.03"/>
<polygon fill="#0000ff" stroke="#0000ff" points="909.65,-341.14 916.51,-333.06 906.11,-335.1 909.65,-341.14"/>
<text text-anchor="middle" x="807.97" y="-413.45" font-family="Times New Roman,serif" font-size="14.00">no, missing</text>
</g>
<!-- 7 -->
<g id="node6" class="node">
<title>7</title>
<ellipse fill="none" stroke="black" cx="1238.53" cy="-1449" rx="64.54" ry="18"/>
<text text-anchor="middle" x="1238.53" y="-1443.58" font-family="Times New Roman,serif" font-size="14.00">Country_USA</text>
</g>
<!-- 3&#45;&gt;7 -->
<g id="edge5" class="edge">
<title>3&#45;&gt;7</title>
<path fill="none" stroke="#ff0000" d="M972.91,-1300.26C1022.47,-1328.12 1137.86,-1392.98 1198.58,-1427.11"/>
<polygon fill="#ff0000" stroke="#ff0000" points="1196.79,-1430.12 1207.22,-1431.97 1200.22,-1424.02 1196.79,-1430.12"/>
<text text-anchor="middle" x="1088.69" y="-1384.45" font-family="Times New Roman,serif" font-size="14.00">yes</text>
</g>
<!-- 8 -->
<g id="node7" class="node">
<title>8</title>
<ellipse fill="none" stroke="black" cx="1238.53" cy="-1287" rx="72.52" ry="18"/>
<text text-anchor="middle" x="1238.53" y="-1281.58" font-family="Times New Roman,serif" font-size="14.00">Gender_Woman</text>
</g>
<!-- 3&#45;&gt;8 -->
<g id="edge6" class="edge">
<title>3&#45;&gt;8</title>
<path fill="none" stroke="#0000ff" d="M984.38,-1287C1026.27,-1287 1097.77,-1287 1154.12,-1287"/>
<polygon fill="#0000ff" stroke="#0000ff" points="1154.03,-1290.5 1164.03,-1287 1154.03,-1283.5 1154.03,-1290.5"/>
<text text-anchor="middle" x="1088.69" y="-1289.45" font-family="Times New Roman,serif" font-size="14.00">no, missing</text>
</g>
<!-- 9 -->
<g id="node20" class="node">
<title>9</title>
<ellipse fill="none" stroke="black" cx="1238.53" cy="-1027" rx="99.47" ry="18"/>
<text text-anchor="middle" x="1238.53" y="-1021.58" font-family="Times New Roman,serif" font-size="14.00">Years job_11 &#45; 20 years</text>
</g>
<!-- 4&#45;&gt;9 -->
<g id="edge19" class="edge">
<title>4&#45;&gt;9</title>
<path fill="none" stroke="#ff0000" d="M1001.18,-978.62C1045.4,-987.67 1109.62,-1000.81 1159.95,-1011.12"/>
<polygon fill="#ff0000" stroke="#ff0000" points="1159.14,-1014.53 1169.64,-1013.1 1160.54,-1007.67 1159.14,-1014.53"/>
<text text-anchor="middle" x="1088.69" y="-1004.45" font-family="Times New Roman,serif" font-size="14.00">yes</text>
</g>
<!-- 10 -->
<g id="node21" class="node">
<title>10</title>
<ellipse fill="none" stroke="black" cx="1238.53" cy="-909" rx="90.48" ry="18"/>
<text text-anchor="middle" x="1238.53" y="-903.58" font-family="Times New Roman,serif" font-size="14.00">Years job_2 &#45; 4 years</text>
</g>
<!-- 4&#45;&gt;10 -->
<g id="edge20" class="edge">
<title>4&#45;&gt;10</title>
<path fill="none" stroke="#0000ff" d="M1001.18,-957.38C1046.23,-948.16 1112.03,-934.69 1162.77,-924.3"/>
<polygon fill="#0000ff" stroke="#0000ff" points="1163.43,-927.74 1172.52,-922.31 1162.03,-920.88 1163.43,-927.74"/>
<text text-anchor="middle" x="1088.69" y="-947.45" font-family="Times New Roman,serif" font-size="14.00">no, missing</text>
</g>
<!-- 15 -->
<g id="node8" class="node">
<title>15</title>
<ellipse fill="none" stroke="black" cx="1580.12" cy="-1530" rx="90.48" ry="18"/>
<text text-anchor="middle" x="1580.12" y="-1524.58" font-family="Times New Roman,serif" font-size="14.00">Years job_2 &#45; 4 years</text>
</g>
<!-- 7&#45;&gt;15 -->
<g id="edge7" class="edge">
<title>7&#45;&gt;15</title>
<path fill="none" stroke="#ff0000" d="M1288.54,-1460.69C1346.62,-1474.55 1443.8,-1497.72 1509.62,-1513.42"/>
<polygon fill="#ff0000" stroke="#ff0000" points="1508.71,-1516.8 1519.25,-1515.72 1510.33,-1509.99 1508.71,-1516.8"/>
<text text-anchor="middle" x="1388.37" y="-1493.45" font-family="Times New Roman,serif" font-size="14.00">yes</text>
</g>
<!-- 16 -->
<g id="node9" class="node">
<title>16</title>
<ellipse fill="none" stroke="black" cx="1580.12" cy="-1449" rx="94.98" ry="18"/>
<text text-anchor="middle" x="1580.12" y="-1443.58" font-family="Times New Roman,serif" font-size="14.00">Years job_8 &#45; 10 years</text>
</g>
<!-- 7&#45;&gt;16 -->
<g id="edge8" class="edge">
<title>7&#45;&gt;16</title>
<path fill="none" stroke="#0000ff" d="M1303.4,-1449C1351.22,-1449 1417.69,-1449 1473.38,-1449"/>
<polygon fill="#0000ff" stroke="#0000ff" points="1473.22,-1452.5 1483.22,-1449 1473.22,-1445.5 1473.22,-1452.5"/>
<text text-anchor="middle" x="1388.37" y="-1451.45" font-family="Times New Roman,serif" font-size="14.00">no, missing</text>
</g>
<!-- 17 -->
<g id="node14" class="node">
<title>17</title>
<ellipse fill="none" stroke="black" cx="1580.12" cy="-1314" rx="64.54" ry="18"/>
<text text-anchor="middle" x="1580.12" y="-1308.58" font-family="Times New Roman,serif" font-size="14.00">Country_USA</text>
</g>
<!-- 8&#45;&gt;17 -->
<g id="edge13" class="edge">
<title>8&#45;&gt;17</title>
<path fill="none" stroke="#ff0000" d="M1308.25,-1292.46C1365.76,-1297.04 1447.58,-1303.54 1506.23,-1308.2"/>
<polygon fill="#ff0000" stroke="#ff0000" points="1505.88,-1311.69 1516.12,-1308.99 1506.43,-1304.71 1505.88,-1311.69"/>
<text text-anchor="middle" x="1388.37" y="-1303.45" font-family="Times New Roman,serif" font-size="14.00">yes</text>
</g>
<!-- 18 -->
<g id="node15" class="node">
<title>18</title>
<ellipse fill="none" stroke="black" cx="1580.12" cy="-1260" rx="64.54" ry="18"/>
<text text-anchor="middle" x="1580.12" y="-1254.58" font-family="Times New Roman,serif" font-size="14.00">Country_USA</text>
</g>
<!-- 8&#45;&gt;18 -->
<g id="edge14" class="edge">
<title>8&#45;&gt;18</title>
<path fill="none" stroke="#0000ff" d="M1306.93,-1280.59C1323.15,-1279.1 1340.44,-1277.57 1356.49,-1276.25 1406.31,-1272.14 1462.43,-1268.05 1505.87,-1265"/>
<polygon fill="#0000ff" stroke="#0000ff" points="1505.96,-1268.5 1515.69,-1264.31 1505.47,-1261.52 1505.96,-1268.5"/>
<text text-anchor="middle" x="1388.37" y="-1278.45" font-family="Times New Roman,serif" font-size="14.00">no, missing</text>
</g>
<!-- 31 -->
<g id="node10" class="node">
<title>31</title>
<ellipse fill="none" stroke="black" cx="1896.77" cy="-1584" rx="75.02" ry="18"/>
<text text-anchor="middle" x="1896.77" y="-1578.58" font-family="Times New Roman,serif" font-size="14.00">leaf=&#45;9360.82031</text>
</g>
<!-- 15&#45;&gt;31 -->
<g id="edge9" class="edge">
<title>15&#45;&gt;31</title>
<path fill="none" stroke="#ff0000" d="M1649.78,-1541.78C1701.17,-1550.6 1771.28,-1562.63 1823.51,-1571.6"/>
<polygon fill="#ff0000" stroke="#ff0000" points="1822.76,-1575.02 1833.21,-1573.26 1823.95,-1568.12 1822.76,-1575.02"/>
<text text-anchor="middle" x="1771.88" y="-1570.45" font-family="Times New Roman,serif" font-size="14.00">yes</text>
</g>
<!-- 32 -->
<g id="node11" class="node">
<title>32</title>
<ellipse fill="none" stroke="black" cx="1896.77" cy="-1530" rx="75.02" ry="18"/>
<text text-anchor="middle" x="1896.77" y="-1524.58" font-family="Times New Roman,serif" font-size="14.00">leaf=&#45;12176.2285</text>
</g>
<!-- 15&#45;&gt;32 -->
<g id="edge10" class="edge">
<title>15&#45;&gt;32</title>
<path fill="none" stroke="#0000ff" d="M1670.87,-1530C1714.55,-1530 1766.82,-1530 1809.97,-1530"/>
<polygon fill="#0000ff" stroke="#0000ff" points="1809.8,-1533.5 1819.8,-1530 1809.8,-1526.5 1809.8,-1533.5"/>
<text text-anchor="middle" x="1771.88" y="-1532.45" font-family="Times New Roman,serif" font-size="14.00">no, missing</text>
</g>
<!-- 33 -->
<g id="node12" class="node">
<title>33</title>
<ellipse fill="none" stroke="black" cx="1896.77" cy="-1476" rx="75.02" ry="18"/>
<text text-anchor="middle" x="1896.77" y="-1470.58" font-family="Times New Roman,serif" font-size="14.00">leaf=&#45;5628.09473</text>
</g>
<!-- 16&#45;&gt;33 -->
<g id="edge11" class="edge">
<title>16&#45;&gt;33</title>
<path fill="none" stroke="#ff0000" d="M1667.52,-1456.41C1713.3,-1460.34 1769.23,-1465.14 1814.26,-1469.01"/>
<polygon fill="#ff0000" stroke="#ff0000" points="1813.69,-1472.47 1823.95,-1469.84 1814.29,-1465.5 1813.69,-1472.47"/>
<text text-anchor="middle" x="1771.88" y="-1470.45" font-family="Times New Roman,serif" font-size="14.00">yes</text>
</g>
<!-- 34 -->
<g id="node13" class="node">
<title>34</title>
<ellipse fill="none" stroke="black" cx="1896.77" cy="-1422" rx="75.02" ry="18"/>
<text text-anchor="middle" x="1896.77" y="-1416.58" font-family="Times New Roman,serif" font-size="14.00">leaf=&#45;528.576721</text>
</g>
<!-- 16&#45;&gt;34 -->
<g id="edge12" class="edge">
<title>16&#45;&gt;34</title>
<path fill="none" stroke="#0000ff" d="M1667.52,-1441.59C1713.3,-1437.66 1769.23,-1432.86 1814.26,-1428.99"/>
<polygon fill="#0000ff" stroke="#0000ff" points="1814.29,-1432.5 1823.95,-1428.16 1813.69,-1425.53 1814.29,-1432.5"/>
<text text-anchor="middle" x="1771.88" y="-1436.45" font-family="Times New Roman,serif" font-size="14.00">no, missing</text>
</g>
<!-- 35 -->
<g id="node16" class="node">
<title>35</title>
<ellipse fill="none" stroke="black" cx="1896.77" cy="-1368" rx="75.02" ry="18"/>
<text text-anchor="middle" x="1896.77" y="-1362.58" font-family="Times New Roman,serif" font-size="14.00">leaf=&#45;1333.18457</text>
</g>
<!-- 17&#45;&gt;35 -->
<g id="edge15" class="edge">
<title>17&#45;&gt;35</title>
<path fill="none" stroke="#ff0000" d="M1635.93,-1323.41C1687.93,-1332.33 1766.38,-1345.79 1823.48,-1355.59"/>
<polygon fill="#ff0000" stroke="#ff0000" points="1822.66,-1359 1833.11,-1357.25 1823.85,-1352.11 1822.66,-1359"/>
<text text-anchor="middle" x="1771.88" y="-1354.45" font-family="Times New Roman,serif" font-size="14.00">yes</text>
</g>
<!-- 36 -->
<g id="node17" class="node">
<title>36</title>
<ellipse fill="none" stroke="black" cx="1896.77" cy="-1314" rx="67.53" ry="18"/>
<text text-anchor="middle" x="1896.77" y="-1308.58" font-family="Times New Roman,serif" font-size="14.00">leaf=6517.6123</text>
</g>
<!-- 17&#45;&gt;36 -->
<g id="edge16" class="edge">
<title>17&#45;&gt;36</title>
<path fill="none" stroke="#0000ff" d="M1644.8,-1314C1694.65,-1314 1764.23,-1314 1817.49,-1314"/>
<polygon fill="#0000ff" stroke="#0000ff" points="1817.42,-1317.5 1827.42,-1314 1817.42,-1310.5 1817.42,-1317.5"/>
<text text-anchor="middle" x="1771.88" y="-1316.45" font-family="Times New Roman,serif" font-size="14.00">no, missing</text>
</g>
<!-- 37 -->
<g id="node18" class="node">
<title>37</title>
<ellipse fill="none" stroke="black" cx="1896.77" cy="-1260" rx="75.02" ry="18"/>
<text text-anchor="middle" x="1896.77" y="-1254.58" font-family="Times New Roman,serif" font-size="14.00">leaf=&#45;6374.69141</text>
</g>
<!-- 18&#45;&gt;37 -->
<g id="edge17" class="edge">
<title>18&#45;&gt;37</title>
<path fill="none" stroke="#ff0000" d="M1644.8,-1260C1692.39,-1260 1757.97,-1260 1810.15,-1260"/>
<polygon fill="#ff0000" stroke="#ff0000" points="1809.9,-1263.5 1819.9,-1260 1809.9,-1256.5 1809.9,-1263.5"/>
<text text-anchor="middle" x="1771.88" y="-1262.45" font-family="Times New Roman,serif" font-size="14.00">yes</text>
</g>
<!-- 38 -->
<g id="node19" class="node">
<title>38</title>
<ellipse fill="none" stroke="black" cx="1896.77" cy="-1206" rx="75.02" ry="18"/>
<text text-anchor="middle" x="1896.77" y="-1200.58" font-family="Times New Roman,serif" font-size="14.00">leaf=&#45;425.551331</text>
</g>
<!-- 18&#45;&gt;38 -->
<g id="edge18" class="edge">
<title>18&#45;&gt;38</title>
<path fill="none" stroke="#0000ff" d="M1635.93,-1250.59C1687.93,-1241.67 1766.38,-1228.21 1823.48,-1218.41"/>
<polygon fill="#0000ff" stroke="#0000ff" points="1823.85,-1221.89 1833.11,-1216.75 1822.66,-1215 1823.85,-1221.89"/>
<text text-anchor="middle" x="1771.88" y="-1233.45" font-family="Times New Roman,serif" font-size="14.00">no, missing</text>
</g>
<!-- 19 -->
<g id="node22" class="node">
<title>19</title>
<ellipse fill="none" stroke="black" cx="1580.12" cy="-1098" rx="62.54" ry="18"/>
<text text-anchor="middle" x="1580.12" y="-1092.58" font-family="Times New Roman,serif" font-size="14.00">Industry_Law</text>
</g>
<!-- 9&#45;&gt;19 -->
<g id="edge21" class="edge">
<title>9&#45;&gt;19</title>
<path fill="none" stroke="#ff0000" d="M1305,-1040.69C1366.3,-1053.5 1457.2,-1072.51 1517.28,-1085.07"/>
<polygon fill="#ff0000" stroke="#ff0000" points="1516.51,-1088.49 1527.02,-1087.11 1517.95,-1081.63 1516.51,-1088.49"/>
<text text-anchor="middle" x="1388.37" y="-1066.45" font-family="Times New Roman,serif" font-size="14.00">yes</text>
</g>
<!-- 20 -->
<g id="node23" class="node">
<title>20</title>
<ellipse fill="none" stroke="black" cx="1580.12" cy="-1027" rx="35.6" ry="18"/>
<text text-anchor="middle" x="1580.12" y="-1021.58" font-family="Times New Roman,serif" font-size="14.00">Age&lt;3</text>
</g>
<!-- 9&#45;&gt;20 -->
<g id="edge22" class="edge">
<title>9&#45;&gt;20</title>
<path fill="none" stroke="#0000ff" d="M1338.21,-1027C1402.39,-1027 1483.11,-1027 1532.91,-1027"/>
<polygon fill="#0000ff" stroke="#0000ff" points="1532.75,-1030.5 1542.75,-1027 1532.75,-1023.5 1532.75,-1030.5"/>
<text text-anchor="middle" x="1388.37" y="-1029.45" font-family="Times New Roman,serif" font-size="14.00">no, missing</text>
</g>
<!-- 21 -->
<g id="node28" class="node">
<title>21</title>
<ellipse fill="none" stroke="black" cx="1580.12" cy="-909" rx="62.54" ry="18"/>
<text text-anchor="middle" x="1580.12" y="-903.58" font-family="Times New Roman,serif" font-size="14.00">Industry_Law</text>
</g>
<!-- 10&#45;&gt;21 -->
<g id="edge27" class="edge">
<title>10&#45;&gt;21</title>
<path fill="none" stroke="#ff0000" d="M1329.2,-909C1384.28,-909 1453.96,-909 1505.74,-909"/>
<polygon fill="#ff0000" stroke="#ff0000" points="1505.65,-912.5 1515.65,-909 1505.65,-905.5 1505.65,-912.5"/>
<text text-anchor="middle" x="1388.37" y="-911.45" font-family="Times New Roman,serif" font-size="14.00">yes</text>
</g>
<!-- 22 -->
<g id="node29" class="node">
<title>22</title>
<ellipse fill="none" stroke="black" cx="1580.12" cy="-828" rx="62.54" ry="18"/>
<text text-anchor="middle" x="1580.12" y="-822.58" font-family="Times New Roman,serif" font-size="14.00">Industry_Law</text>
</g>
<!-- 10&#45;&gt;22 -->
<g id="edge28" class="edge">
<title>10&#45;&gt;22</title>
<path fill="none" stroke="#0000ff" d="M1297.9,-895.08C1359.98,-880.27 1457.63,-856.98 1520,-842.1"/>
<polygon fill="#0000ff" stroke="#0000ff" points="1520.44,-845.59 1529.36,-839.87 1518.82,-838.79 1520.44,-845.59"/>
<text text-anchor="middle" x="1388.37" y="-882.45" font-family="Times New Roman,serif" font-size="14.00">no, missing</text>
</g>
<!-- 39 -->
<g id="node24" class="node">
<title>39</title>
<ellipse fill="none" stroke="black" cx="1896.77" cy="-1152" rx="75.02" ry="18"/>
<text text-anchor="middle" x="1896.77" y="-1146.58" font-family="Times New Roman,serif" font-size="14.00">leaf=&#45;5978.13867</text>
</g>
<!-- 19&#45;&gt;39 -->
<g id="edge23" class="edge">
<title>19&#45;&gt;39</title>
<path fill="none" stroke="#ff0000" d="M1634.5,-1107.16C1686.52,-1116.09 1766,-1129.73 1823.63,-1139.62"/>
<polygon fill="#ff0000" stroke="#ff0000" points="1822.91,-1143.05 1833.36,-1141.29 1824.1,-1136.15 1822.91,-1143.05"/>
<text text-anchor="middle" x="1771.88" y="-1138.45" font-family="Times New Roman,serif" font-size="14.00">yes</text>
</g>
<!-- 40 -->
<g id="node25" class="node">
<title>40</title>
<ellipse fill="none" stroke="black" cx="1896.77" cy="-1098" rx="72.02" ry="18"/>
<text text-anchor="middle" x="1896.77" y="-1092.58" font-family="Times New Roman,serif" font-size="14.00">leaf=1063.38489</text>
</g>
<!-- 19&#45;&gt;40 -->
<g id="edge24" class="edge">
<title>19&#45;&gt;40</title>
<path fill="none" stroke="#0000ff" d="M1642.91,-1098C1691.52,-1098 1759.7,-1098 1813.02,-1098"/>
<polygon fill="#0000ff" stroke="#0000ff" points="1812.98,-1101.5 1822.98,-1098 1812.98,-1094.5 1812.98,-1101.5"/>
<text text-anchor="middle" x="1771.88" y="-1100.45" font-family="Times New Roman,serif" font-size="14.00">no, missing</text>
</g>
<!-- 41 -->
<g id="node26" class="node">
<title>41</title>
<ellipse fill="none" stroke="black" cx="1896.77" cy="-1044" rx="72.02" ry="18"/>
<text text-anchor="middle" x="1896.77" y="-1038.58" font-family="Times New Roman,serif" font-size="14.00">leaf=22065.7813</text>
</g>
<!-- 20&#45;&gt;41 -->
<g id="edge25" class="edge">
<title>20&#45;&gt;41</title>
<path fill="none" stroke="#ff0000" d="M1616,-1028.88C1663.62,-1031.46 1750.42,-1036.15 1814.75,-1039.62"/>
<polygon fill="#ff0000" stroke="#ff0000" points="1814.4,-1043.11 1824.57,-1040.15 1814.77,-1036.12 1814.4,-1043.11"/>
<text text-anchor="middle" x="1771.88" y="-1040.45" font-family="Times New Roman,serif" font-size="14.00">yes</text>
</g>
<!-- 42 -->
<g id="node27" class="node">
<title>42</title>
<ellipse fill="none" stroke="black" cx="1896.77" cy="-990" rx="72.02" ry="18"/>
<text text-anchor="middle" x="1896.77" y="-984.58" font-family="Times New Roman,serif" font-size="14.00">leaf=3876.91968</text>
</g>
<!-- 20&#45;&gt;42 -->
<g id="edge26" class="edge">
<title>20&#45;&gt;42</title>
<path fill="none" stroke="#0000ff" d="M1615.09,-1023.01C1663.76,-1017.28 1754.64,-1006.6 1819.82,-998.93"/>
<polygon fill="#0000ff" stroke="#0000ff" points="1819.83,-1002.45 1829.35,-997.81 1819.01,-995.5 1819.83,-1002.45"/>
<text text-anchor="middle" x="1771.88" y="-1009.45" font-family="Times New Roman,serif" font-size="14.00">no, missing</text>
</g>
<!-- 43 -->
<g id="node30" class="node">
<title>43</title>
<ellipse fill="none" stroke="black" cx="1896.77" cy="-936" rx="72.02" ry="18"/>
<text text-anchor="middle" x="1896.77" y="-930.58" font-family="Times New Roman,serif" font-size="14.00">leaf=11906.6543</text>
</g>
<!-- 21&#45;&gt;43 -->
<g id="edge29" class="edge">
<title>21&#45;&gt;43</title>
<path fill="none" stroke="#ff0000" d="M1640.68,-914.11C1690.49,-918.39 1761.98,-924.52 1816.61,-929.21"/>
<polygon fill="#ff0000" stroke="#ff0000" points="1816.22,-932.69 1826.49,-930.05 1816.82,-925.71 1816.22,-932.69"/>
<text text-anchor="middle" x="1771.88" y="-930.45" font-family="Times New Roman,serif" font-size="14.00">yes</text>
</g>
<!-- 44 -->
<g id="node31" class="node">
<title>44</title>
<ellipse fill="none" stroke="black" cx="1896.77" cy="-882" rx="67.53" ry="18"/>
<text text-anchor="middle" x="1896.77" y="-876.58" font-family="Times New Roman,serif" font-size="14.00">leaf=18436.875</text>
</g>
<!-- 21&#45;&gt;44 -->
<g id="edge30" class="edge">
<title>21&#45;&gt;44</title>
<path fill="none" stroke="#0000ff" d="M1640.68,-903.89C1691.66,-899.52 1765.33,-893.19 1820.41,-888.47"/>
<polygon fill="#0000ff" stroke="#0000ff" points="1820.69,-891.96 1830.36,-887.61 1820.09,-884.98 1820.69,-891.96"/>
<text text-anchor="middle" x="1771.88" y="-896.45" font-family="Times New Roman,serif" font-size="14.00">no, missing</text>
</g>
<!-- 45 -->
<g id="node32" class="node">
<title>45</title>
<ellipse fill="none" stroke="black" cx="1896.77" cy="-828" rx="72.02" ry="18"/>
<text text-anchor="middle" x="1896.77" y="-822.58" font-family="Times New Roman,serif" font-size="14.00">leaf=3402.20483</text>
</g>
<!-- 22&#45;&gt;45 -->
<g id="edge31" class="edge">
<title>22&#45;&gt;45</title>
<path fill="none" stroke="#ff0000" d="M1642.91,-828C1691.52,-828 1759.7,-828 1813.02,-828"/>
<polygon fill="#ff0000" stroke="#ff0000" points="1812.98,-831.5 1822.98,-828 1812.98,-824.5 1812.98,-831.5"/>
<text text-anchor="middle" x="1771.88" y="-830.45" font-family="Times New Roman,serif" font-size="14.00">yes</text>
</g>
<!-- 46 -->
<g id="node33" class="node">
<title>46</title>
<ellipse fill="none" stroke="black" cx="1896.77" cy="-774" rx="72.02" ry="18"/>
<text text-anchor="middle" x="1896.77" y="-768.58" font-family="Times New Roman,serif" font-size="14.00">leaf=9652.40918</text>
</g>
<!-- 22&#45;&gt;46 -->
<g id="edge32" class="edge">
<title>22&#45;&gt;46</title>
<path fill="none" stroke="#0000ff" d="M1634.5,-818.84C1687.02,-809.83 1767.51,-796.01 1825.27,-786.1"/>
<polygon fill="#0000ff" stroke="#0000ff" points="1825.74,-789.57 1835.01,-784.43 1824.56,-782.67 1825.74,-789.57"/>
<text text-anchor="middle" x="1771.88" y="-801.45" font-family="Times New Roman,serif" font-size="14.00">no, missing</text>
</g>
<!-- 11 -->
<g id="node36" class="node">
<title>11</title>
<ellipse fill="none" stroke="black" cx="1238.53" cy="-595" rx="35.6" ry="18"/>
<text text-anchor="middle" x="1238.53" y="-589.58" font-family="Times New Roman,serif" font-size="14.00">Age&lt;3</text>
</g>
<!-- 5&#45;&gt;11 -->
<g id="edge35" class="edge">
<title>5&#45;&gt;11</title>
<path fill="none" stroke="#ff0000" d="M1020.57,-561.12C1074.5,-569.55 1146.92,-580.85 1192.92,-588.03"/>
<polygon fill="#ff0000" stroke="#ff0000" points="1192.1,-591.45 1202.52,-589.53 1193.18,-584.53 1192.1,-591.45"/>
<text text-anchor="middle" x="1088.69" y="-578.45" font-family="Times New Roman,serif" font-size="14.00">yes</text>
</g>
<!-- 12 -->
<g id="node37" class="node">
<title>12</title>
<ellipse fill="none" stroke="black" cx="1238.53" cy="-504" rx="64.54" ry="18"/>
<text text-anchor="middle" x="1238.53" y="-498.57" font-family="Times New Roman,serif" font-size="14.00">Country_India</text>
</g>
<!-- 5&#45;&gt;12 -->
<g id="edge36" class="edge">
<title>5&#45;&gt;12</title>
<path fill="none" stroke="#0000ff" d="M1020.2,-538.69C1066.14,-531.36 1125.6,-521.86 1170.71,-514.66"/>
<polygon fill="#0000ff" stroke="#0000ff" points="1171.04,-518.16 1180.36,-513.12 1169.93,-511.24 1171.04,-518.16"/>
<text text-anchor="middle" x="1088.69" y="-534.45" font-family="Times New Roman,serif" font-size="14.00">no, missing</text>
</g>
<!-- 13 -->
<g id="node48" class="node">
<title>13</title>
<ellipse fill="none" stroke="black" cx="1238.53" cy="-315" rx="72.52" ry="18"/>
<text text-anchor="middle" x="1238.53" y="-309.57" font-family="Times New Roman,serif" font-size="14.00">Gender_Woman</text>
</g>
<!-- 6&#45;&gt;13 -->
<g id="edge47" class="edge">
<title>6&#45;&gt;13</title>
<path fill="none" stroke="#ff0000" d="M1038.93,-315C1075.76,-315 1118.16,-315 1154.3,-315"/>
<polygon fill="#ff0000" stroke="#ff0000" points="1154.28,-318.5 1164.28,-315 1154.28,-311.5 1154.28,-318.5"/>
<text text-anchor="middle" x="1088.69" y="-317.45" font-family="Times New Roman,serif" font-size="14.00">yes</text>
</g>
<!-- 14 -->
<g id="node49" class="node">
<title>14</title>
<ellipse fill="none" stroke="black" cx="1238.53" cy="-153" rx="99.97" ry="18"/>
<text text-anchor="middle" x="1238.53" y="-147.57" font-family="Times New Roman,serif" font-size="14.00">Highest Education_PhD</text>
</g>
<!-- 6&#45;&gt;14 -->
<g id="edge48" class="edge">
<title>6&#45;&gt;14</title>
<path fill="none" stroke="#0000ff" d="M979.9,-297.82C1031.96,-268.55 1137.89,-209.01 1196.4,-176.12"/>
<polygon fill="#0000ff" stroke="#0000ff" points="1198.08,-179.19 1205.08,-171.24 1194.65,-173.09 1198.08,-179.19"/>
<text text-anchor="middle" x="1088.69" y="-255.45" font-family="Times New Roman,serif" font-size="14.00">no, missing</text>
</g>
<!-- 23 -->
<g id="node38" class="node">
<title>23</title>
<ellipse fill="none" stroke="black" cx="1580.12" cy="-666" rx="99.47" ry="18"/>
<text text-anchor="middle" x="1580.12" y="-660.58" font-family="Times New Roman,serif" font-size="14.00">Years job_11 &#45; 20 years</text>
</g>
<!-- 11&#45;&gt;23 -->
<g id="edge37" class="edge">
<title>11&#45;&gt;23</title>
<path fill="none" stroke="#ff0000" d="M1272.09,-601.81C1324.75,-612.82 1430.01,-634.83 1502.49,-649.98"/>
<polygon fill="#ff0000" stroke="#ff0000" points="1501.39,-653.32 1511.89,-651.94 1502.82,-646.47 1501.39,-653.32"/>
<text text-anchor="middle" x="1388.37" y="-634.45" font-family="Times New Roman,serif" font-size="14.00">yes</text>
</g>
<!-- 24 -->
<g id="node39" class="node">
<title>24</title>
<ellipse fill="none" stroke="black" cx="1580.12" cy="-595" rx="72.52" ry="18"/>
<text text-anchor="middle" x="1580.12" y="-589.58" font-family="Times New Roman,serif" font-size="14.00">Gender_Woman</text>
</g>
<!-- 11&#45;&gt;24 -->
<g id="edge38" class="edge">
<title>11&#45;&gt;24</title>
<path fill="none" stroke="#0000ff" d="M1274.59,-595C1326.47,-595 1425.17,-595 1496.17,-595"/>
<polygon fill="#0000ff" stroke="#0000ff" points="1495.8,-598.5 1505.8,-595 1495.8,-591.5 1495.8,-598.5"/>
<text text-anchor="middle" x="1388.37" y="-597.45" font-family="Times New Roman,serif" font-size="14.00">no, missing</text>
</g>
<!-- 25 -->
<g id="node44" class="node">
<title>25</title>
<ellipse fill="none" stroke="black" cx="1580.12" cy="-504" rx="99.97" ry="18"/>
<text text-anchor="middle" x="1580.12" y="-498.57" font-family="Times New Roman,serif" font-size="14.00">Highest Education_PhD</text>
</g>
<!-- 12&#45;&gt;25 -->
<g id="edge43" class="edge">
<title>12&#45;&gt;25</title>
<path fill="none" stroke="#ff0000" d="M1303.4,-504C1349.77,-504 1413.69,-504 1468.3,-504"/>
<polygon fill="#ff0000" stroke="#ff0000" points="1468.29,-507.5 1478.29,-504 1468.29,-500.5 1468.29,-507.5"/>
<text text-anchor="middle" x="1388.37" y="-506.45" font-family="Times New Roman,serif" font-size="14.00">yes</text>
</g>
<!-- 26 -->
<g id="node45" class="node">
<title>26</title>
<ellipse fill="none" stroke="black" cx="1580.12" cy="-450" rx="75.02" ry="18"/>
<text text-anchor="middle" x="1580.12" y="-444.57" font-family="Times New Roman,serif" font-size="14.00">leaf=&#45;19821.7266</text>
</g>
<!-- 12&#45;&gt;26 -->
<g id="edge44" class="edge">
<title>12&#45;&gt;26</title>
<path fill="none" stroke="#0000ff" d="M1294.24,-494.59C1313.87,-491.26 1336.16,-487.53 1356.49,-484.25 1405.75,-476.3 1461.22,-467.77 1504.46,-461.21"/>
<polygon fill="#0000ff" stroke="#0000ff" points="1504.89,-464.68 1514.25,-459.72 1503.84,-457.76 1504.89,-464.68"/>
<text text-anchor="middle" x="1388.37" y="-486.45" font-family="Times New Roman,serif" font-size="14.00">no, missing</text>
</g>
<!-- 47 -->
<g id="node40" class="node">
<title>47</title>
<ellipse fill="none" stroke="black" cx="1896.77" cy="-720" rx="70.52" ry="18"/>
<text text-anchor="middle" x="1896.77" y="-714.58" font-family="Times New Roman,serif" font-size="14.00">leaf=&#45;2525.6543</text>
</g>
<!-- 23&#45;&gt;47 -->
<g id="edge39" class="edge">
<title>23&#45;&gt;47</title>
<path fill="none" stroke="#ff0000" d="M1653.7,-678.46C1705.5,-687.35 1774.77,-699.23 1825.94,-708.02"/>
<polygon fill="#ff0000" stroke="#ff0000" points="1825.28,-711.45 1835.73,-709.7 1826.47,-704.56 1825.28,-711.45"/>
<text text-anchor="middle" x="1771.88" y="-706.45" font-family="Times New Roman,serif" font-size="14.00">yes</text>
</g>
<!-- 48 -->
<g id="node41" class="node">
<title>48</title>
<ellipse fill="none" stroke="black" cx="1896.77" cy="-666" rx="72.02" ry="18"/>
<text text-anchor="middle" x="1896.77" y="-660.58" font-family="Times New Roman,serif" font-size="14.00">leaf=6712.35205</text>
</g>
<!-- 23&#45;&gt;48 -->
<g id="edge40" class="edge">
<title>23&#45;&gt;48</title>
<path fill="none" stroke="#0000ff" d="M1679.82,-666C1722.65,-666 1772.25,-666 1813.1,-666"/>
<polygon fill="#0000ff" stroke="#0000ff" points="1812.86,-669.5 1822.86,-666 1812.86,-662.5 1812.86,-669.5"/>
<text text-anchor="middle" x="1771.88" y="-668.45" font-family="Times New Roman,serif" font-size="14.00">no, missing</text>
</g>
<!-- 49 -->
<g id="node42" class="node">
<title>49</title>
<ellipse fill="none" stroke="black" cx="1896.77" cy="-612" rx="72.02" ry="18"/>
<text text-anchor="middle" x="1896.77" y="-606.58" font-family="Times New Roman,serif" font-size="14.00">leaf=7853.97266</text>
</g>
<!-- 24&#45;&gt;49 -->
<g id="edge41" class="edge">
<title>24&#45;&gt;49</title>
<path fill="none" stroke="#ff0000" d="M1651.34,-598.79C1699.75,-601.41 1764.23,-604.89 1814.81,-607.63"/>
<polygon fill="#ff0000" stroke="#ff0000" points="1814.35,-611.11 1824.52,-608.15 1814.73,-604.12 1814.35,-611.11"/>
<text text-anchor="middle" x="1771.88" y="-608.45" font-family="Times New Roman,serif" font-size="14.00">yes</text>
</g>
<!-- 50 -->
<g id="node43" class="node">
<title>50</title>
<ellipse fill="none" stroke="black" cx="1896.77" cy="-558" rx="72.02" ry="18"/>
<text text-anchor="middle" x="1896.77" y="-552.58" font-family="Times New Roman,serif" font-size="14.00">leaf=872.496155</text>
</g>
<!-- 24&#45;&gt;50 -->
<g id="edge42" class="edge">
<title>24&#45;&gt;50</title>
<path fill="none" stroke="#0000ff" d="M1646.32,-587.33C1696.71,-581.41 1766.58,-573.19 1819.55,-566.96"/>
<polygon fill="#0000ff" stroke="#0000ff" points="1819.9,-570.45 1829.42,-565.8 1819.08,-563.49 1819.9,-570.45"/>
<text text-anchor="middle" x="1771.88" y="-577.45" font-family="Times New Roman,serif" font-size="14.00">no, missing</text>
</g>
<!-- 51 -->
<g id="node46" class="node">
<title>51</title>
<ellipse fill="none" stroke="black" cx="1896.77" cy="-504" rx="75.02" ry="18"/>
<text text-anchor="middle" x="1896.77" y="-498.57" font-family="Times New Roman,serif" font-size="14.00">leaf=&#45;7685.93018</text>
</g>
<!-- 25&#45;&gt;51 -->
<g id="edge45" class="edge">
<title>25&#45;&gt;51</title>
<path fill="none" stroke="#ff0000" d="M1680.25,-504C1721.98,-504 1770.07,-504 1810.23,-504"/>
<polygon fill="#ff0000" stroke="#ff0000" points="1810.09,-507.5 1820.09,-504 1810.09,-500.5 1810.09,-507.5"/>
<text text-anchor="middle" x="1771.88" y="-506.45" font-family="Times New Roman,serif" font-size="14.00">yes</text>
</g>
<!-- 52 -->
<g id="node47" class="node">
<title>52</title>
<ellipse fill="none" stroke="black" cx="1896.77" cy="-450" rx="75.02" ry="18"/>
<text text-anchor="middle" x="1896.77" y="-444.57" font-family="Times New Roman,serif" font-size="14.00">leaf=&#45;457.295624</text>
</g>
<!-- 25&#45;&gt;52 -->
<g id="edge46" class="edge">
<title>25&#45;&gt;52</title>
<path fill="none" stroke="#0000ff" d="M1653.7,-491.54C1704.66,-482.8 1772.52,-471.15 1823.43,-462.42"/>
<polygon fill="#0000ff" stroke="#0000ff" points="1823.91,-465.88 1833.18,-460.74 1822.73,-458.98 1823.91,-465.88"/>
<text text-anchor="middle" x="1771.88" y="-477.45" font-family="Times New Roman,serif" font-size="14.00">no, missing</text>
</g>
<!-- 27 -->
<g id="node50" class="node">
<title>27</title>
<ellipse fill="none" stroke="black" cx="1580.12" cy="-342" rx="85.49" ry="18"/>
<text text-anchor="middle" x="1580.12" y="-336.57" font-family="Times New Roman,serif" font-size="14.00">Years job_5&#45;7 years</text>
</g>
<!-- 13&#45;&gt;27 -->
<g id="edge49" class="edge">
<title>13&#45;&gt;27</title>
<path fill="none" stroke="#ff0000" d="M1308.25,-320.46C1360.02,-324.58 1431.49,-330.26 1488.02,-334.76"/>
<polygon fill="#ff0000" stroke="#ff0000" points="1487.72,-338.24 1497.97,-335.55 1488.28,-331.27 1487.72,-338.24"/>
<text text-anchor="middle" x="1388.37" y="-331.45" font-family="Times New Roman,serif" font-size="14.00">yes</text>
</g>
<!-- 28 -->
<g id="node51" class="node">
<title>28</title>
<ellipse fill="none" stroke="black" cx="1580.12" cy="-288" rx="141.88" ry="18"/>
<text text-anchor="middle" x="1580.12" y="-282.57" font-family="Times New Roman,serif" font-size="14.00">Highest Education_Master&#39;s degree</text>
</g>
<!-- 13&#45;&gt;28 -->
<g id="edge50" class="edge">
<title>13&#45;&gt;28</title>
<path fill="none" stroke="#0000ff" d="M1306.93,-308.59C1323.15,-307.1 1340.44,-305.57 1356.49,-304.25 1384.54,-301.94 1414.58,-299.63 1443.24,-297.51"/>
<polygon fill="#0000ff" stroke="#0000ff" points="1443.34,-301.01 1453.06,-296.79 1442.83,-294.03 1443.34,-301.01"/>
<text text-anchor="middle" x="1388.37" y="-306.45" font-family="Times New Roman,serif" font-size="14.00">no, missing</text>
</g>
<!-- 29 -->
<g id="node56" class="node">
<title>29</title>
<ellipse fill="none" stroke="black" cx="1580.12" cy="-153" rx="82" ry="18"/>
<text text-anchor="middle" x="1580.12" y="-147.57" font-family="Times New Roman,serif" font-size="14.00">Job Title Cluster&lt;1</text>
</g>
<!-- 14&#45;&gt;29 -->
<g id="edge55" class="edge">
<title>14&#45;&gt;29</title>
<path fill="none" stroke="#ff0000" d="M1338.66,-153C1385.32,-153 1440.63,-153 1486.44,-153"/>
<polygon fill="#ff0000" stroke="#ff0000" points="1486.36,-156.5 1496.36,-153 1486.36,-149.5 1486.36,-156.5"/>
<text text-anchor="middle" x="1388.37" y="-155.45" font-family="Times New Roman,serif" font-size="14.00">yes</text>
</g>
<!-- 30 -->
<g id="node57" class="node">
<title>30</title>
<ellipse fill="none" stroke="black" cx="1580.12" cy="-72" rx="72.52" ry="18"/>
<text text-anchor="middle" x="1580.12" y="-66.58" font-family="Times New Roman,serif" font-size="14.00">Gender_Woman</text>
</g>
<!-- 14&#45;&gt;30 -->
<g id="edge56" class="edge">
<title>14&#45;&gt;30</title>
<path fill="none" stroke="#0000ff" d="M1300.24,-138.52C1360.94,-124.04 1453.91,-101.87 1515.59,-87.15"/>
<polygon fill="#0000ff" stroke="#0000ff" points="1516.34,-90.57 1525.26,-84.85 1514.72,-83.76 1516.34,-90.57"/>
<text text-anchor="middle" x="1388.37" y="-126.45" font-family="Times New Roman,serif" font-size="14.00">no, missing</text>
</g>
<!-- 53 -->
<g id="node52" class="node">
<title>53</title>
<ellipse fill="none" stroke="black" cx="1896.77" cy="-396" rx="72.02" ry="18"/>
<text text-anchor="middle" x="1896.77" y="-390.57" font-family="Times New Roman,serif" font-size="14.00">leaf=23198.2344</text>
</g>
<!-- 27&#45;&gt;53 -->
<g id="edge51" class="edge">
<title>27&#45;&gt;53</title>
<path fill="none" stroke="#ff0000" d="M1647.47,-353.39C1699.65,-362.34 1772.18,-374.79 1825.37,-383.92"/>
<polygon fill="#ff0000" stroke="#ff0000" points="1824.48,-387.32 1834.93,-385.56 1825.66,-380.42 1824.48,-387.32"/>
<text text-anchor="middle" x="1771.88" y="-382.45" font-family="Times New Roman,serif" font-size="14.00">yes</text>
</g>
<!-- 54 -->
<g id="node53" class="node">
<title>54</title>
<ellipse fill="none" stroke="black" cx="1896.77" cy="-342" rx="72.02" ry="18"/>
<text text-anchor="middle" x="1896.77" y="-336.57" font-family="Times New Roman,serif" font-size="14.00">leaf=13385.4648</text>
</g>
<!-- 27&#45;&gt;54 -->
<g id="edge52" class="edge">
<title>27&#45;&gt;54</title>
<path fill="none" stroke="#0000ff" d="M1665.86,-342C1711.58,-342 1767.78,-342 1813.18,-342"/>
<polygon fill="#0000ff" stroke="#0000ff" points="1812.96,-345.5 1822.96,-342 1812.96,-338.5 1812.96,-345.5"/>
<text text-anchor="middle" x="1771.88" y="-344.45" font-family="Times New Roman,serif" font-size="14.00">no, missing</text>
</g>
<!-- 55 -->
<g id="node54" class="node">
<title>55</title>
<ellipse fill="none" stroke="black" cx="1896.77" cy="-288" rx="72.02" ry="18"/>
<text text-anchor="middle" x="1896.77" y="-282.57" font-family="Times New Roman,serif" font-size="14.00">leaf=11549.0068</text>
</g>
<!-- 28&#45;&gt;55 -->
<g id="edge53" class="edge">
<title>28&#45;&gt;55</title>
<path fill="none" stroke="#ff0000" d="M1722.34,-288C1753.35,-288 1785.21,-288 1813.03,-288"/>
<polygon fill="#ff0000" stroke="#ff0000" points="1812.77,-291.5 1822.77,-288 1812.77,-284.5 1812.77,-291.5"/>
<text text-anchor="middle" x="1771.88" y="-290.45" font-family="Times New Roman,serif" font-size="14.00">yes</text>
</g>
<!-- 56 -->
<g id="node55" class="node">
<title>56</title>
<ellipse fill="none" stroke="black" cx="1896.77" cy="-234" rx="72.02" ry="18"/>
<text text-anchor="middle" x="1896.77" y="-228.57" font-family="Times New Roman,serif" font-size="14.00">leaf=16302.3477</text>
</g>
<!-- 28&#45;&gt;56 -->
<g id="edge54" class="edge">
<title>28&#45;&gt;56</title>
<path fill="none" stroke="#0000ff" d="M1666.69,-273.32C1716.45,-264.78 1778.4,-254.14 1825.33,-246.09"/>
<polygon fill="#0000ff" stroke="#0000ff" points="1825.86,-249.55 1835.12,-244.41 1824.68,-242.65 1825.86,-249.55"/>
<text text-anchor="middle" x="1771.88" y="-261.45" font-family="Times New Roman,serif" font-size="14.00">no, missing</text>
</g>
<!-- 57 -->
<g id="node58" class="node">
<title>57</title>
<ellipse fill="none" stroke="black" cx="1896.77" cy="-180" rx="72.02" ry="18"/>
<text text-anchor="middle" x="1896.77" y="-174.57" font-family="Times New Roman,serif" font-size="14.00">leaf=3489.42065</text>
</g>
<!-- 29&#45;&gt;57 -->
<g id="edge57" class="edge">
<title>29&#45;&gt;57</title>
<path fill="none" stroke="#ff0000" d="M1657.29,-159.54C1705.53,-163.68 1767.79,-169.02 1816.6,-173.21"/>
<polygon fill="#ff0000" stroke="#ff0000" points="1816.29,-176.69 1826.55,-174.06 1816.89,-169.72 1816.29,-176.69"/>
<text text-anchor="middle" x="1771.88" y="-174.45" font-family="Times New Roman,serif" font-size="14.00">yes</text>
</g>
<!-- 58 -->
<g id="node59" class="node">
<title>58</title>
<ellipse fill="none" stroke="black" cx="1896.77" cy="-126" rx="72.02" ry="18"/>
<text text-anchor="middle" x="1896.77" y="-120.58" font-family="Times New Roman,serif" font-size="14.00">leaf=10887.3477</text>
</g>
<!-- 29&#45;&gt;58 -->
<g id="edge58" class="edge">
<title>29&#45;&gt;58</title>
<path fill="none" stroke="#0000ff" d="M1657.29,-146.46C1705.53,-142.32 1767.79,-136.98 1816.6,-132.79"/>
<polygon fill="#0000ff" stroke="#0000ff" points="1816.89,-136.28 1826.55,-131.94 1816.29,-129.31 1816.89,-136.28"/>
<text text-anchor="middle" x="1771.88" y="-140.45" font-family="Times New Roman,serif" font-size="14.00">no, missing</text>
</g>
<!-- 59 -->
<g id="node60" class="node">
<title>59</title>
<ellipse fill="none" stroke="black" cx="1896.77" cy="-72" rx="72.02" ry="18"/>
<text text-anchor="middle" x="1896.77" y="-66.58" font-family="Times New Roman,serif" font-size="14.00">leaf=27683.4629</text>
</g>
<!-- 30&#45;&gt;59 -->
<g id="edge59" class="edge">
<title>30&#45;&gt;59</title>
<path fill="none" stroke="#ff0000" d="M1652.91,-72C1700.53,-72 1763.18,-72 1812.91,-72"/>
<polygon fill="#ff0000" stroke="#ff0000" points="1812.77,-75.5 1822.77,-72 1812.77,-68.5 1812.77,-75.5"/>
<text text-anchor="middle" x="1771.88" y="-74.45" font-family="Times New Roman,serif" font-size="14.00">yes</text>
</g>
<!-- 60 -->
<g id="node61" class="node">
<title>60</title>
<ellipse fill="none" stroke="black" cx="1896.77" cy="-18" rx="72.02" ry="18"/>
<text text-anchor="middle" x="1896.77" y="-12.57" font-family="Times New Roman,serif" font-size="14.00">leaf=18677.9121</text>
</g>
<!-- 30&#45;&gt;60 -->
<g id="edge60" class="edge">
<title>30&#45;&gt;60</title>
<path fill="none" stroke="#0000ff" d="M1640.68,-61.78C1693.18,-52.77 1769.75,-39.63 1825.3,-30.09"/>
<polygon fill="#0000ff" stroke="#0000ff" points="1825.7,-33.58 1834.97,-28.43 1824.52,-26.68 1825.7,-33.58"/>
<text text-anchor="middle" x="1771.88" y="-45.45" font-family="Times New Roman,serif" font-size="14.00">no, missing</text>
</g>
</g>
</svg>
