<?xml version="1.0" encoding="UTF-8" standalone="no"?>
<!DOCTYPE svg PUBLIC "-//W3C//DTD SVG 1.1//EN"
 "http://www.w3.org/Graphics/SVG/1.1/DTD/svg11.dtd">
<!-- Generated by graphviz version 11.0.0 (20240428.1522)
 -->
<!-- Pages: 1 -->
<svg width="1613pt" height="854pt"
 viewBox="0.00 0.00 1613.24 854.00" xmlns="http://www.w3.org/2000/svg" xmlns:xlink="http://www.w3.org/1999/xlink">
<g id="graph0" class="graph" transform="scale(1 1) rotate(0) translate(4 850)">
<polygon fill="white" stroke="none" points="-4,4 -4,-850 1609.24,-850 1609.24,4 -4,4"/>
<!-- 0 -->
<g id="node1" class="node">
<title>0</title>
<ellipse fill="none" stroke="black" cx="116.43" cy="-430" rx="116.43" ry="18"/>
<text text-anchor="middle" x="116.43" y="-424.57" font-family="Times New Roman,serif" font-size="14.00">Industry_Computing or tech</text>
</g>
<!-- 1 -->
<g id="node2" class="node">
<title>1</title>
<ellipse fill="none" stroke="black" cx="423.1" cy="-531" rx="35.6" ry="18"/>
<text text-anchor="middle" x="423.1" y="-525.58" font-family="Times New Roman,serif" font-size="14.00">Age&lt;3</text>
</g>
<!-- 0&#45;&gt;1 -->
<g id="edge1" class="edge">
<title>0&#45;&gt;1</title>
<path fill="none" stroke="#ff0000" d="M167.4,-446.56C227.42,-466.46 326.88,-499.44 382.08,-517.73"/>
<polygon fill="#ff0000" stroke="#ff0000" points="380.8,-521 391.4,-520.82 383.01,-514.35 380.8,-521"/>
<text text-anchor="middle" x="282.74" y="-494.45" font-family="Times New Roman,serif" font-size="14.00">yes</text>
</g>
<!-- 2 -->
<g id="node3" class="node">
<title>2</title>
<ellipse fill="none" stroke="black" cx="423.1" cy="-315" rx="90.48" ry="18"/>
<text text-anchor="middle" x="423.1" y="-309.57" font-family="Times New Roman,serif" font-size="14.00">Years job_2 &#45; 4 years</text>
</g>
<!-- 0&#45;&gt;2 -->
<g id="edge2" class="edge">
<title>0&#45;&gt;2</title>
<path fill="none" stroke="#0000ff" d="M162.39,-413.03C217.39,-392.27 310.41,-357.16 368.91,-335.08"/>
<polygon fill="#0000ff" stroke="#0000ff" points="369.89,-338.45 378,-331.64 367.41,-331.9 369.89,-338.45"/>
<text text-anchor="middle" x="282.74" y="-381.45" font-family="Times New Roman,serif" font-size="14.00">no, missing</text>
</g>
<!-- 3 -->
<g id="node4" class="node">
<title>3</title>
<ellipse fill="none" stroke="black" cx="703.82" cy="-693" rx="90.48" ry="18"/>
<text text-anchor="middle" x="703.82" y="-687.58" font-family="Times New Roman,serif" font-size="14.00">Years job_2 &#45; 4 years</text>
</g>
<!-- 1&#45;&gt;3 -->
<g id="edge3" class="edge">
<title>1&#45;&gt;3</title>
<path fill="none" stroke="#ff0000" d="M447.38,-544.53C495.12,-572.28 604.55,-635.89 663.5,-670.15"/>
<polygon fill="#ff0000" stroke="#ff0000" points="661.49,-673.02 671.89,-675.02 665,-666.97 661.49,-673.02"/>
<text text-anchor="middle" x="563.46" y="-628.45" font-family="Times New Roman,serif" font-size="14.00">yes</text>
</g>
<!-- 4 -->
<g id="node5" class="node">
<title>4</title>
<ellipse fill="none" stroke="black" cx="703.82" cy="-531" rx="72.52" ry="18"/>
<text text-anchor="middle" x="703.82" y="-525.58" font-family="Times New Roman,serif" font-size="14.00">Gender_Woman</text>
</g>
<!-- 1&#45;&gt;4 -->
<g id="edge4" class="edge">
<title>1&#45;&gt;4</title>
<path fill="none" stroke="#0000ff" d="M459.12,-531C499.18,-531 566.16,-531 619.77,-531"/>
<polygon fill="#0000ff" stroke="#0000ff" points="619.48,-534.5 629.48,-531 619.48,-527.5 619.48,-534.5"/>
<text text-anchor="middle" x="563.46" y="-533.45" font-family="Times New Roman,serif" font-size="14.00">no, missing</text>
</g>
<!-- 5 -->
<g id="node18" class="node">
<title>5</title>
<ellipse fill="none" stroke="black" cx="703.82" cy="-315" rx="72.52" ry="18"/>
<text text-anchor="middle" x="703.82" y="-309.57" font-family="Times New Roman,serif" font-size="14.00">Gender_Woman</text>
</g>
<!-- 2&#45;&gt;5 -->
<g id="edge17" class="edge">
<title>2&#45;&gt;5</title>
<path fill="none" stroke="#ff0000" d="M513.82,-315C547.85,-315 586.42,-315 619.8,-315"/>
<polygon fill="#ff0000" stroke="#ff0000" points="619.4,-318.5 629.4,-315 619.4,-311.5 619.4,-318.5"/>
<text text-anchor="middle" x="563.46" y="-317.45" font-family="Times New Roman,serif" font-size="14.00">yes</text>
</g>
<!-- 6 -->
<g id="node19" class="node">
<title>6</title>
<ellipse fill="none" stroke="black" cx="703.82" cy="-153" rx="74.02" ry="18"/>
<text text-anchor="middle" x="703.82" y="-147.57" font-family="Times New Roman,serif" font-size="14.00">Country_Canada</text>
</g>
<!-- 2&#45;&gt;6 -->
<g id="edge18" class="edge">
<title>2&#45;&gt;6</title>
<path fill="none" stroke="#0000ff" d="M453.93,-297.66C504.69,-268.16 607.85,-208.2 664.1,-175.5"/>
<polygon fill="#0000ff" stroke="#0000ff" points="665.84,-178.54 672.73,-170.49 662.33,-172.49 665.84,-178.54"/>
<text text-anchor="middle" x="563.46" y="-250.45" font-family="Times New Roman,serif" font-size="14.00">no, missing</text>
</g>
<!-- 7 -->
<g id="node6" class="node">
<title>7</title>
<ellipse fill="none" stroke="black" cx="1106.79" cy="-774" rx="212.74" ry="18"/>
<text text-anchor="middle" x="1106.79" y="-768.58" font-family="Times New Roman,serif" font-size="14.00">Highest Education_Professional degree (MD, JD, etc.)</text>
</g>
<!-- 3&#45;&gt;7 -->
<g id="edge5" class="edge">
<title>3&#45;&gt;7</title>
<path fill="none" stroke="#ff0000" d="M768.8,-705.92C833.99,-719.09 935.87,-739.67 1010.55,-754.76"/>
<polygon fill="#ff0000" stroke="#ff0000" points="1009.85,-758.19 1020.34,-756.74 1011.23,-751.33 1009.85,-758.19"/>
<text text-anchor="middle" x="844.18" y="-728.45" font-family="Times New Roman,serif" font-size="14.00">yes</text>
</g>
<!-- 8 -->
<g id="node7" class="node">
<title>8</title>
<ellipse fill="none" stroke="black" cx="1106.79" cy="-693" rx="66.03" ry="18"/>
<text text-anchor="middle" x="1106.79" y="-687.58" font-family="Times New Roman,serif" font-size="14.00">Industry_Sales</text>
</g>
<!-- 3&#45;&gt;8 -->
<g id="edge6" class="edge">
<title>3&#45;&gt;8</title>
<path fill="none" stroke="#0000ff" d="M794.31,-693C864.78,-693 961.98,-693 1028.96,-693"/>
<polygon fill="#0000ff" stroke="#0000ff" points="1028.76,-696.5 1038.76,-693 1028.76,-689.5 1028.76,-696.5"/>
<text text-anchor="middle" x="844.18" y="-695.45" font-family="Times New Roman,serif" font-size="14.00">no, missing</text>
</g>
<!-- 9 -->
<g id="node12" class="node">
<title>9</title>
<ellipse fill="none" stroke="black" cx="1106.79" cy="-558" rx="78.51" ry="18"/>
<text text-anchor="middle" x="1106.79" y="-552.58" font-family="Times New Roman,serif" font-size="14.00">Job Title_Director</text>
</g>
<!-- 4&#45;&gt;9 -->
<g id="edge11" class="edge">
<title>4&#45;&gt;9</title>
<path fill="none" stroke="#ff0000" d="M774.2,-535.67C842.32,-540.26 946.4,-547.27 1019.75,-552.21"/>
<polygon fill="#ff0000" stroke="#ff0000" points="1019.07,-555.67 1029.28,-552.85 1019.54,-548.68 1019.07,-555.67"/>
<text text-anchor="middle" x="844.18" y="-544.45" font-family="Times New Roman,serif" font-size="14.00">yes</text>
</g>
<!-- 10 -->
<g id="node13" class="node">
<title>10</title>
<ellipse fill="none" stroke="black" cx="1106.79" cy="-504" rx="212.74" ry="18"/>
<text text-anchor="middle" x="1106.79" y="-498.57" font-family="Times New Roman,serif" font-size="14.00">Highest Education_Professional degree (MD, JD, etc.)</text>
</g>
<!-- 4&#45;&gt;10 -->
<g id="edge12" class="edge">
<title>4&#45;&gt;10</title>
<path fill="none" stroke="#0000ff" d="M768.97,-522.65C783.22,-521 798.26,-519.42 812.3,-518.25 840.93,-515.86 871.16,-513.83 900.9,-512.12"/>
<polygon fill="#0000ff" stroke="#0000ff" points="900.98,-515.62 910.76,-511.57 900.58,-508.64 900.98,-515.62"/>
<text text-anchor="middle" x="844.18" y="-520.45" font-family="Times New Roman,serif" font-size="14.00">no, missing</text>
</g>
<!-- 15 -->
<g id="node8" class="node">
<title>15</title>
<ellipse fill="none" stroke="black" cx="1512.26" cy="-828" rx="84" ry="18"/>
<text text-anchor="middle" x="1512.26" y="-822.58" font-family="Times New Roman,serif" font-size="14.00">leaf=&#45;0.0267957672</text>
</g>
<!-- 7&#45;&gt;15 -->
<g id="edge7" class="edge">
<title>7&#45;&gt;15</title>
<path fill="none" stroke="#ff0000" d="M1223.41,-789.47C1289.04,-798.26 1369.63,-809.05 1428.84,-816.97"/>
<polygon fill="#ff0000" stroke="#ff0000" points="1428.13,-820.41 1438.51,-818.26 1429.06,-813.47 1428.13,-820.41"/>
<text text-anchor="middle" x="1369.4" y="-814.45" font-family="Times New Roman,serif" font-size="14.00">yes</text>
</g>
<!-- 16 -->
<g id="node9" class="node">
<title>16</title>
<ellipse fill="none" stroke="black" cx="1512.26" cy="-774" rx="81" ry="18"/>
<text text-anchor="middle" x="1512.26" y="-768.58" font-family="Times New Roman,serif" font-size="14.00">leaf=0.0609753579</text>
</g>
<!-- 7&#45;&gt;16 -->
<g id="edge8" class="edge">
<title>7&#45;&gt;16</title>
<path fill="none" stroke="#0000ff" d="M1319.86,-774C1354.92,-774 1389.55,-774 1419.52,-774"/>
<polygon fill="#0000ff" stroke="#0000ff" points="1419.26,-777.5 1429.26,-774 1419.26,-770.5 1419.26,-777.5"/>
<text text-anchor="middle" x="1369.4" y="-776.45" font-family="Times New Roman,serif" font-size="14.00">no, missing</text>
</g>
<!-- 17 -->
<g id="node10" class="node">
<title>17</title>
<ellipse fill="none" stroke="black" cx="1512.26" cy="-720" rx="79.51" ry="18"/>
<text text-anchor="middle" x="1512.26" y="-714.58" font-family="Times New Roman,serif" font-size="14.00">leaf=&#45;0.056634713</text>
</g>
<!-- 8&#45;&gt;17 -->
<g id="edge9" class="edge">
<title>8&#45;&gt;17</title>
<path fill="none" stroke="#ff0000" d="M1171.28,-697.25C1239.35,-701.8 1347.89,-709.07 1423.98,-714.16"/>
<polygon fill="#ff0000" stroke="#ff0000" points="1423.71,-717.65 1433.92,-714.82 1424.17,-710.66 1423.71,-717.65"/>
<text text-anchor="middle" x="1369.4" y="-714.45" font-family="Times New Roman,serif" font-size="14.00">yes</text>
</g>
<!-- 18 -->
<g id="node11" class="node">
<title>18</title>
<ellipse fill="none" stroke="black" cx="1512.26" cy="-666" rx="81" ry="18"/>
<text text-anchor="middle" x="1512.26" y="-660.58" font-family="Times New Roman,serif" font-size="14.00">leaf=0.0615992472</text>
</g>
<!-- 8&#45;&gt;18 -->
<g id="edge10" class="edge">
<title>8&#45;&gt;18</title>
<path fill="none" stroke="#0000ff" d="M1171.28,-688.75C1238.93,-684.22 1346.55,-677.02 1422.56,-671.94"/>
<polygon fill="#0000ff" stroke="#0000ff" points="1422.75,-675.43 1432.49,-671.27 1422.28,-668.45 1422.75,-675.43"/>
<text text-anchor="middle" x="1369.4" y="-679.45" font-family="Times New Roman,serif" font-size="14.00">no, missing</text>
</g>
<!-- 19 -->
<g id="node14" class="node">
<title>19</title>
<ellipse fill="none" stroke="black" cx="1512.26" cy="-612" rx="81" ry="18"/>
<text text-anchor="middle" x="1512.26" y="-606.58" font-family="Times New Roman,serif" font-size="14.00">leaf=0.0443861075</text>
</g>
<!-- 9&#45;&gt;19 -->
<g id="edge13" class="edge">
<title>9&#45;&gt;19</title>
<path fill="none" stroke="#ff0000" d="M1175.32,-567.04C1245.63,-576.45 1355.74,-591.19 1430.58,-601.2"/>
<polygon fill="#ff0000" stroke="#ff0000" points="1429.94,-604.65 1440.32,-602.5 1430.87,-597.71 1429.94,-604.65"/>
<text text-anchor="middle" x="1369.4" y="-598.45" font-family="Times New Roman,serif" font-size="14.00">yes</text>
</g>
<!-- 20 -->
<g id="node15" class="node">
<title>20</title>
<ellipse fill="none" stroke="black" cx="1512.26" cy="-558" rx="76.51" ry="18"/>
<text text-anchor="middle" x="1512.26" y="-552.58" font-family="Times New Roman,serif" font-size="14.00">leaf=0.365964055</text>
</g>
<!-- 9&#45;&gt;20 -->
<g id="edge14" class="edge">
<title>9&#45;&gt;20</title>
<path fill="none" stroke="#0000ff" d="M1185.58,-558C1253.94,-558 1353.31,-558 1424.28,-558"/>
<polygon fill="#0000ff" stroke="#0000ff" points="1423.9,-561.5 1433.9,-558 1423.9,-554.5 1423.9,-561.5"/>
<text text-anchor="middle" x="1369.4" y="-560.45" font-family="Times New Roman,serif" font-size="14.00">no, missing</text>
</g>
<!-- 21 -->
<g id="node16" class="node">
<title>21</title>
<ellipse fill="none" stroke="black" cx="1512.26" cy="-504" rx="92.98" ry="18"/>
<text text-anchor="middle" x="1512.26" y="-498.57" font-family="Times New Roman,serif" font-size="14.00">leaf=&#45;0.000680400117</text>
</g>
<!-- 10&#45;&gt;21 -->
<g id="edge15" class="edge">
<title>10&#45;&gt;21</title>
<path fill="none" stroke="#ff0000" d="M1319.86,-504C1350.3,-504 1380.41,-504 1407.44,-504"/>
<polygon fill="#ff0000" stroke="#ff0000" points="1407.31,-507.5 1417.31,-504 1407.31,-500.5 1407.31,-507.5"/>
<text text-anchor="middle" x="1369.4" y="-506.45" font-family="Times New Roman,serif" font-size="14.00">yes</text>
</g>
<!-- 22 -->
<g id="node17" class="node">
<title>22</title>
<ellipse fill="none" stroke="black" cx="1512.26" cy="-450" rx="81" ry="18"/>
<text text-anchor="middle" x="1512.26" y="-444.57" font-family="Times New Roman,serif" font-size="14.00">leaf=0.0793166235</text>
</g>
<!-- 10&#45;&gt;22 -->
<g id="edge16" class="edge">
<title>10&#45;&gt;22</title>
<path fill="none" stroke="#0000ff" d="M1223.41,-488.53C1289.8,-479.64 1371.52,-468.7 1430.9,-460.76"/>
<polygon fill="#0000ff" stroke="#0000ff" points="1431.14,-464.25 1440.59,-459.46 1430.22,-457.32 1431.14,-464.25"/>
<text text-anchor="middle" x="1369.4" y="-474.45" font-family="Times New Roman,serif" font-size="14.00">no, missing</text>
</g>
<!-- 11 -->
<g id="node20" class="node">
<title>11</title>
<ellipse fill="none" stroke="black" cx="1106.79" cy="-342" rx="129.91" ry="18"/>
<text text-anchor="middle" x="1106.79" y="-336.57" font-family="Times New Roman,serif" font-size="14.00">Highest Education_High School</text>
</g>
<!-- 5&#45;&gt;11 -->
<g id="edge19" class="edge">
<title>5&#45;&gt;11</title>
<path fill="none" stroke="#ff0000" d="M774.2,-319.67C830.15,-323.44 910.36,-328.84 977.87,-333.39"/>
<polygon fill="#ff0000" stroke="#ff0000" points="977.3,-336.86 987.51,-334.04 977.77,-329.87 977.3,-336.86"/>
<text text-anchor="middle" x="844.18" y="-328.45" font-family="Times New Roman,serif" font-size="14.00">yes</text>
</g>
<!-- 12 -->
<g id="node21" class="node">
<title>12</title>
<ellipse fill="none" stroke="black" cx="1106.79" cy="-288" rx="99.47" ry="18"/>
<text text-anchor="middle" x="1106.79" y="-282.57" font-family="Times New Roman,serif" font-size="14.00">Years job_11 &#45; 20 years</text>
</g>
<!-- 5&#45;&gt;12 -->
<g id="edge20" class="edge">
<title>5&#45;&gt;12</title>
<path fill="none" stroke="#0000ff" d="M768.97,-306.65C783.22,-305 798.26,-303.42 812.3,-302.25 873.3,-297.16 941.59,-293.71 996.94,-291.48"/>
<polygon fill="#0000ff" stroke="#0000ff" points="996.82,-294.99 1006.67,-291.1 996.54,-287.99 996.82,-294.99"/>
<text text-anchor="middle" x="844.18" y="-304.45" font-family="Times New Roman,serif" font-size="14.00">no, missing</text>
</g>
<!-- 13 -->
<g id="node26" class="node">
<title>13</title>
<ellipse fill="none" stroke="black" cx="1106.79" cy="-153" rx="129.91" ry="18"/>
<text text-anchor="middle" x="1106.79" y="-147.57" font-family="Times New Roman,serif" font-size="14.00">Highest Education_High School</text>
</g>
<!-- 6&#45;&gt;13 -->
<g id="edge25" class="edge">
<title>6&#45;&gt;13</title>
<path fill="none" stroke="#ff0000" d="M777.9,-153C830.1,-153 901.99,-153 965.16,-153"/>
<polygon fill="#ff0000" stroke="#ff0000" points="964.92,-156.5 974.92,-153 964.92,-149.5 964.92,-156.5"/>
<text text-anchor="middle" x="844.18" y="-155.45" font-family="Times New Roman,serif" font-size="14.00">yes</text>
</g>
<!-- 14 -->
<g id="node27" class="node">
<title>14</title>
<ellipse fill="none" stroke="black" cx="1106.79" cy="-72" rx="114.44" ry="18"/>
<text text-anchor="middle" x="1106.79" y="-66.58" font-family="Times New Roman,serif" font-size="14.00">Job Title_Software engineer</text>
</g>
<!-- 6&#45;&gt;14 -->
<g id="edge26" class="edge">
<title>6&#45;&gt;14</title>
<path fill="none" stroke="#0000ff" d="M761.84,-141.48C830.26,-127.66 945.49,-104.38 1023.53,-88.62"/>
<polygon fill="#0000ff" stroke="#0000ff" points="1024.17,-92.06 1033.28,-86.65 1022.79,-85.2 1024.17,-92.06"/>
<text text-anchor="middle" x="844.18" y="-133.45" font-family="Times New Roman,serif" font-size="14.00">no, missing</text>
</g>
<!-- 23 -->
<g id="node22" class="node">
<title>23</title>
<ellipse fill="none" stroke="black" cx="1512.26" cy="-396" rx="76.51" ry="18"/>
<text text-anchor="middle" x="1512.26" y="-390.57" font-family="Times New Roman,serif" font-size="14.00">leaf=0.108437069</text>
</g>
<!-- 11&#45;&gt;23 -->
<g id="edge21" class="edge">
<title>11&#45;&gt;23</title>
<path fill="none" stroke="#ff0000" d="M1201.88,-354.59C1272.32,-364.02 1367.52,-376.76 1433.63,-385.61"/>
<polygon fill="#ff0000" stroke="#ff0000" points="1432.93,-389.05 1443.3,-386.9 1433.86,-382.11 1432.93,-389.05"/>
<text text-anchor="middle" x="1369.4" y="-382.45" font-family="Times New Roman,serif" font-size="14.00">yes</text>
</g>
<!-- 24 -->
<g id="node23" class="node">
<title>24</title>
<ellipse fill="none" stroke="black" cx="1512.26" cy="-342" rx="76.51" ry="18"/>
<text text-anchor="middle" x="1512.26" y="-336.57" font-family="Times New Roman,serif" font-size="14.00">leaf=0.228124991</text>
</g>
<!-- 11&#45;&gt;24 -->
<g id="edge22" class="edge">
<title>11&#45;&gt;24</title>
<path fill="none" stroke="#0000ff" d="M1237.12,-342C1298.23,-342 1369.56,-342 1424.15,-342"/>
<polygon fill="#0000ff" stroke="#0000ff" points="1424.02,-345.5 1434.02,-342 1424.02,-338.5 1424.02,-345.5"/>
<text text-anchor="middle" x="1369.4" y="-344.45" font-family="Times New Roman,serif" font-size="14.00">no, missing</text>
</g>
<!-- 25 -->
<g id="node24" class="node">
<title>25</title>
<ellipse fill="none" stroke="black" cx="1512.26" cy="-288" rx="81" ry="18"/>
<text text-anchor="middle" x="1512.26" y="-282.57" font-family="Times New Roman,serif" font-size="14.00">leaf=0.0243278462</text>
</g>
<!-- 12&#45;&gt;25 -->
<g id="edge23" class="edge">
<title>12&#45;&gt;25</title>
<path fill="none" stroke="#ff0000" d="M1206.75,-288C1271.79,-288 1356.27,-288 1419.75,-288"/>
<polygon fill="#ff0000" stroke="#ff0000" points="1419.43,-291.5 1429.43,-288 1419.43,-284.5 1419.43,-291.5"/>
<text text-anchor="middle" x="1369.4" y="-290.45" font-family="Times New Roman,serif" font-size="14.00">yes</text>
</g>
<!-- 26 -->
<g id="node25" class="node">
<title>26</title>
<ellipse fill="none" stroke="black" cx="1512.26" cy="-234" rx="81" ry="18"/>
<text text-anchor="middle" x="1512.26" y="-228.57" font-family="Times New Roman,serif" font-size="14.00">leaf=0.0821382925</text>
</g>
<!-- 12&#45;&gt;26 -->
<g id="edge24" class="edge">
<title>12&#45;&gt;26</title>
<path fill="none" stroke="#0000ff" d="M1187.99,-277.27C1258.45,-267.84 1360.44,-254.19 1430.94,-244.75"/>
<polygon fill="#0000ff" stroke="#0000ff" points="1431.03,-248.27 1440.47,-243.47 1430.1,-241.33 1431.03,-248.27"/>
<text text-anchor="middle" x="1369.4" y="-258.45" font-family="Times New Roman,serif" font-size="14.00">no, missing</text>
</g>
<!-- 27 -->
<g id="node28" class="node">
<title>27</title>
<ellipse fill="none" stroke="black" cx="1512.26" cy="-180" rx="84" ry="18"/>
<text text-anchor="middle" x="1512.26" y="-174.57" font-family="Times New Roman,serif" font-size="14.00">leaf=&#45;0.0520319976</text>
</g>
<!-- 13&#45;&gt;27 -->
<g id="edge27" class="edge">
<title>13&#45;&gt;27</title>
<path fill="none" stroke="#ff0000" d="M1224.76,-160.83C1287.05,-165 1362.5,-170.05 1420.34,-173.92"/>
<polygon fill="#ff0000" stroke="#ff0000" points="1419.95,-177.4 1430.16,-174.57 1420.41,-170.41 1419.95,-177.4"/>
<text text-anchor="middle" x="1369.4" y="-174.45" font-family="Times New Roman,serif" font-size="14.00">yes</text>
</g>
<!-- 28 -->
<g id="node29" class="node">
<title>28</title>
<ellipse fill="none" stroke="black" cx="1512.26" cy="-126" rx="81" ry="18"/>
<text text-anchor="middle" x="1512.26" y="-120.58" font-family="Times New Roman,serif" font-size="14.00">leaf=0.0320310257</text>
</g>
<!-- 13&#45;&gt;28 -->
<g id="edge28" class="edge">
<title>13&#45;&gt;28</title>
<path fill="none" stroke="#0000ff" d="M1224.76,-145.17C1287.92,-140.95 1364.62,-135.81 1422.76,-131.92"/>
<polygon fill="#0000ff" stroke="#0000ff" points="1422.88,-135.42 1432.62,-131.26 1422.41,-128.44 1422.88,-135.42"/>
<text text-anchor="middle" x="1369.4" y="-139.45" font-family="Times New Roman,serif" font-size="14.00">no, missing</text>
</g>
<!-- 29 -->
<g id="node30" class="node">
<title>29</title>
<ellipse fill="none" stroke="black" cx="1512.26" cy="-72" rx="89.99" ry="18"/>
<text text-anchor="middle" x="1512.26" y="-66.58" font-family="Times New Roman,serif" font-size="14.00">leaf=0.000318912847</text>
</g>
<!-- 14&#45;&gt;29 -->
<g id="edge29" class="edge">
<title>14&#45;&gt;29</title>
<path fill="none" stroke="#ff0000" d="M1221.52,-72C1281.06,-72 1353.32,-72 1410.78,-72"/>
<polygon fill="#ff0000" stroke="#ff0000" points="1410.55,-75.5 1420.55,-72 1410.55,-68.5 1410.55,-75.5"/>
<text text-anchor="middle" x="1369.4" y="-74.45" font-family="Times New Roman,serif" font-size="14.00">yes</text>
</g>
<!-- 30 -->
<g id="node31" class="node">
<title>30</title>
<ellipse fill="none" stroke="black" cx="1512.26" cy="-18" rx="81" ry="18"/>
<text text-anchor="middle" x="1512.26" y="-12.57" font-family="Times New Roman,serif" font-size="14.00">leaf=0.0565723442</text>
</g>
<!-- 14&#45;&gt;30 -->
<g id="edge30" class="edge">
<title>14&#45;&gt;30</title>
<path fill="none" stroke="#0000ff" d="M1195.34,-60.28C1265.37,-50.91 1362.78,-37.87 1430.86,-28.76"/>
<polygon fill="#0000ff" stroke="#0000ff" points="1431,-32.27 1440.45,-27.48 1430.07,-25.34 1431,-32.27"/>
<text text-anchor="middle" x="1369.4" y="-42.45" font-family="Times New Roman,serif" font-size="14.00">no, missing</text>
</g>
</g>
</svg>
