<?xml version="1.0" encoding="UTF-8" standalone="no"?>
<!DOCTYPE svg PUBLIC "-//W3C//DTD SVG 1.1//EN"
 "http://www.w3.org/Graphics/SVG/1.1/DTD/svg11.dtd">
<!-- Generated by graphviz version 11.0.0 (20240428.1522)
 -->
<!-- Pages: 1 -->
<svg width="1596pt" height="854pt"
 viewBox="0.00 0.00 1596.27 854.00" xmlns="http://www.w3.org/2000/svg" xmlns:xlink="http://www.w3.org/1999/xlink">
<g id="graph0" class="graph" transform="scale(1 1) rotate(0) translate(4 850)">
<polygon fill="white" stroke="none" points="-4,4 -4,-850 1592.27,-850 1592.27,4 -4,4"/>
<!-- 0 -->
<g id="node1" class="node">
<title>0</title>
<ellipse fill="none" stroke="black" cx="116.43" cy="-430" rx="116.43" ry="18"/>
<text text-anchor="middle" x="116.43" y="-424.57" font-family="Times New Roman,serif" font-size="14.00">Industry_Computing or tech</text>
</g>
<!-- 1 -->
<g id="node2" class="node">
<title>1</title>
<ellipse fill="none" stroke="black" cx="545.35" cy="-531" rx="212.74" ry="18"/>
<text text-anchor="middle" x="545.35" y="-525.58" font-family="Times New Roman,serif" font-size="14.00">Highest Education_Professional degree (MD, JD, etc.)</text>
</g>
<!-- 0&#45;&gt;1 -->
<g id="edge1" class="edge">
<title>0&#45;&gt;1</title>
<path fill="none" stroke="#ff0000" d="M181.81,-445.23C256.08,-462.8 378.45,-491.75 460.2,-511.09"/>
<polygon fill="#ff0000" stroke="#ff0000" points="459.2,-514.45 469.74,-513.35 460.81,-507.64 459.2,-514.45"/>
<text text-anchor="middle" x="282.74" y="-476.45" font-family="Times New Roman,serif" font-size="14.00">yes</text>
</g>
<!-- 2 -->
<g id="node3" class="node">
<title>2</title>
<ellipse fill="none" stroke="black" cx="545.35" cy="-315" rx="64.54" ry="18"/>
<text text-anchor="middle" x="545.35" y="-309.57" font-family="Times New Roman,serif" font-size="14.00">Country_USA</text>
</g>
<!-- 0&#45;&gt;2 -->
<g id="edge2" class="edge">
<title>0&#45;&gt;2</title>
<path fill="none" stroke="#0000ff" d="M176.35,-414.13C258.27,-392.06 405.66,-352.36 486.83,-330.49"/>
<polygon fill="#0000ff" stroke="#0000ff" points="487.63,-333.91 496.37,-327.92 485.8,-327.15 487.63,-333.91"/>
<text text-anchor="middle" x="282.74" y="-394.45" font-family="Times New Roman,serif" font-size="14.00">no, missing</text>
</g>
<!-- 3 -->
<g id="node4" class="node">
<title>3</title>
<ellipse fill="none" stroke="black" cx="948.33" cy="-693" rx="35.6" ry="18"/>
<text text-anchor="middle" x="948.33" y="-687.58" font-family="Times New Roman,serif" font-size="14.00">Age&lt;3</text>
</g>
<!-- 1&#45;&gt;3 -->
<g id="edge3" class="edge">
<title>1&#45;&gt;3</title>
<path fill="none" stroke="#ff0000" d="M590.8,-548.96C670.28,-581.07 835.41,-647.78 909.69,-677.79"/>
<polygon fill="#ff0000" stroke="#ff0000" points="907.98,-680.88 918.57,-681.38 910.61,-674.39 907.98,-680.88"/>
<text text-anchor="middle" x="807.97" y="-651.45" font-family="Times New Roman,serif" font-size="14.00">yes</text>
</g>
<!-- 4 -->
<g id="node5" class="node">
<title>4</title>
<ellipse fill="none" stroke="black" cx="948.33" cy="-531" rx="64.54" ry="18"/>
<text text-anchor="middle" x="948.33" y="-525.58" font-family="Times New Roman,serif" font-size="14.00">Country_USA</text>
</g>
<!-- 1&#45;&gt;4 -->
<g id="edge4" class="edge">
<title>1&#45;&gt;4</title>
<path fill="none" stroke="#0000ff" d="M758.58,-531C799.41,-531 839.6,-531 872.32,-531"/>
<polygon fill="#0000ff" stroke="#0000ff" points="872.06,-534.5 882.06,-531 872.06,-527.5 872.06,-534.5"/>
<text text-anchor="middle" x="807.97" y="-533.45" font-family="Times New Roman,serif" font-size="14.00">no, missing</text>
</g>
<!-- 5 -->
<g id="node18" class="node">
<title>5</title>
<ellipse fill="none" stroke="black" cx="948.33" cy="-315" rx="90.48" ry="18"/>
<text text-anchor="middle" x="948.33" y="-309.57" font-family="Times New Roman,serif" font-size="14.00">Years job_2 &#45; 4 years</text>
</g>
<!-- 2&#45;&gt;5 -->
<g id="edge17" class="edge">
<title>2&#45;&gt;5</title>
<path fill="none" stroke="#ff0000" d="M610.33,-315C673.85,-315 772.17,-315 846.25,-315"/>
<polygon fill="#ff0000" stroke="#ff0000" points="845.94,-318.5 855.94,-315 845.94,-311.5 845.94,-318.5"/>
<text text-anchor="middle" x="807.97" y="-317.45" font-family="Times New Roman,serif" font-size="14.00">yes</text>
</g>
<!-- 6 -->
<g id="node19" class="node">
<title>6</title>
<ellipse fill="none" stroke="black" cx="948.33" cy="-153" rx="90.48" ry="18"/>
<text text-anchor="middle" x="948.33" y="-147.57" font-family="Times New Roman,serif" font-size="14.00">Years job_2 &#45; 4 years</text>
</g>
<!-- 2&#45;&gt;6 -->
<g id="edge18" class="edge">
<title>2&#45;&gt;6</title>
<path fill="none" stroke="#0000ff" d="M583.36,-300.05C655.35,-270.96 814.36,-206.72 896.3,-173.61"/>
<polygon fill="#0000ff" stroke="#0000ff" points="897.49,-176.91 905.45,-169.92 894.87,-170.42 897.49,-176.91"/>
<text text-anchor="middle" x="807.97" y="-221.45" font-family="Times New Roman,serif" font-size="14.00">no, missing</text>
</g>
<!-- 7 -->
<g id="node6" class="node">
<title>7</title>
<ellipse fill="none" stroke="black" cx="1238.53" cy="-774" rx="64.54" ry="18"/>
<text text-anchor="middle" x="1238.53" y="-768.58" font-family="Times New Roman,serif" font-size="14.00">Country_USA</text>
</g>
<!-- 3&#45;&gt;7 -->
<g id="edge5" class="edge">
<title>3&#45;&gt;7</title>
<path fill="none" stroke="#ff0000" d="M980.17,-701.67C1028.01,-715.12 1120.86,-741.21 1180.98,-758.11"/>
<polygon fill="#ff0000" stroke="#ff0000" points="1179.77,-761.4 1190.34,-760.74 1181.66,-754.66 1179.77,-761.4"/>
<text text-anchor="middle" x="1088.69" y="-742.45" font-family="Times New Roman,serif" font-size="14.00">yes</text>
</g>
<!-- 8 -->
<g id="node7" class="node">
<title>8</title>
<ellipse fill="none" stroke="black" cx="1238.53" cy="-693" rx="72.52" ry="18"/>
<text text-anchor="middle" x="1238.53" y="-687.58" font-family="Times New Roman,serif" font-size="14.00">Gender_Woman</text>
</g>
<!-- 3&#45;&gt;8 -->
<g id="edge6" class="edge">
<title>3&#45;&gt;8</title>
<path fill="none" stroke="#0000ff" d="M984.38,-693C1026.27,-693 1097.77,-693 1154.12,-693"/>
<polygon fill="#0000ff" stroke="#0000ff" points="1154.03,-696.5 1164.03,-693 1154.03,-689.5 1154.03,-696.5"/>
<text text-anchor="middle" x="1088.69" y="-695.45" font-family="Times New Roman,serif" font-size="14.00">no, missing</text>
</g>
<!-- 9 -->
<g id="node12" class="node">
<title>9</title>
<ellipse fill="none" stroke="black" cx="1238.53" cy="-558" rx="99.47" ry="18"/>
<text text-anchor="middle" x="1238.53" y="-552.58" font-family="Times New Roman,serif" font-size="14.00">Years job_11 &#45; 20 years</text>
</g>
<!-- 4&#45;&gt;9 -->
<g id="edge11" class="edge">
<title>4&#45;&gt;9</title>
<path fill="none" stroke="#ff0000" d="M1010.09,-536.69C1047.16,-540.17 1095.43,-544.69 1137.97,-548.67"/>
<polygon fill="#ff0000" stroke="#ff0000" points="1137.43,-552.14 1147.71,-549.59 1138.08,-545.17 1137.43,-552.14"/>
<text text-anchor="middle" x="1088.69" y="-548.45" font-family="Times New Roman,serif" font-size="14.00">yes</text>
</g>
<!-- 10 -->
<g id="node13" class="node">
<title>10</title>
<ellipse fill="none" stroke="black" cx="1238.53" cy="-504" rx="90.48" ry="18"/>
<text text-anchor="middle" x="1238.53" y="-498.57" font-family="Times New Roman,serif" font-size="14.00">Years job_2 &#45; 4 years</text>
</g>
<!-- 4&#45;&gt;10 -->
<g id="edge12" class="edge">
<title>4&#45;&gt;10</title>
<path fill="none" stroke="#0000ff" d="M1010.09,-525.31C1049.06,-521.66 1100.42,-516.85 1144.47,-512.72"/>
<polygon fill="#0000ff" stroke="#0000ff" points="1144.65,-516.22 1154.28,-511.8 1144,-509.25 1144.65,-516.22"/>
<text text-anchor="middle" x="1088.69" y="-522.45" font-family="Times New Roman,serif" font-size="14.00">no, missing</text>
</g>
<!-- 15 -->
<g id="node8" class="node">
<title>15</title>
<ellipse fill="none" stroke="black" cx="1513.26" cy="-828" rx="75.02" ry="18"/>
<text text-anchor="middle" x="1513.26" y="-822.58" font-family="Times New Roman,serif" font-size="14.00">leaf=&#45;10445.9932</text>
</g>
<!-- 7&#45;&gt;15 -->
<g id="edge7" class="edge">
<title>7&#45;&gt;15</title>
<path fill="none" stroke="#ff0000" d="M1292.11,-784.41C1335.1,-792.92 1396.23,-805.03 1443.17,-814.32"/>
<polygon fill="#ff0000" stroke="#ff0000" points="1442.19,-817.7 1452.68,-816.2 1443.55,-810.83 1442.19,-817.7"/>
<text text-anchor="middle" x="1388.37" y="-810.45" font-family="Times New Roman,serif" font-size="14.00">yes</text>
</g>
<!-- 16 -->
<g id="node9" class="node">
<title>16</title>
<ellipse fill="none" stroke="black" cx="1513.26" cy="-774" rx="75.02" ry="18"/>
<text text-anchor="middle" x="1513.26" y="-768.58" font-family="Times New Roman,serif" font-size="14.00">leaf=&#45;4670.06348</text>
</g>
<!-- 7&#45;&gt;16 -->
<g id="edge8" class="edge">
<title>7&#45;&gt;16</title>
<path fill="none" stroke="#0000ff" d="M1303.47,-774C1340.23,-774 1386.89,-774 1426.77,-774"/>
<polygon fill="#0000ff" stroke="#0000ff" points="1426.58,-777.5 1436.58,-774 1426.58,-770.5 1426.58,-777.5"/>
<text text-anchor="middle" x="1388.37" y="-776.45" font-family="Times New Roman,serif" font-size="14.00">no, missing</text>
</g>
<!-- 17 -->
<g id="node10" class="node">
<title>17</title>
<ellipse fill="none" stroke="black" cx="1513.26" cy="-720" rx="72.02" ry="18"/>
<text text-anchor="middle" x="1513.26" y="-714.58" font-family="Times New Roman,serif" font-size="14.00">leaf=4878.94922</text>
</g>
<!-- 8&#45;&gt;17 -->
<g id="edge9" class="edge">
<title>8&#45;&gt;17</title>
<path fill="none" stroke="#ff0000" d="M1306.59,-699.64C1345.29,-703.47 1394.13,-708.31 1434.5,-712.3"/>
<polygon fill="#ff0000" stroke="#ff0000" points="1434.12,-715.78 1444.42,-713.28 1434.81,-708.82 1434.12,-715.78"/>
<text text-anchor="middle" x="1388.37" y="-712.45" font-family="Times New Roman,serif" font-size="14.00">yes</text>
</g>
<!-- 18 -->
<g id="node11" class="node">
<title>18</title>
<ellipse fill="none" stroke="black" cx="1513.26" cy="-666" rx="75.02" ry="18"/>
<text text-anchor="middle" x="1513.26" y="-660.58" font-family="Times New Roman,serif" font-size="14.00">leaf=&#45;1251.25745</text>
</g>
<!-- 8&#45;&gt;18 -->
<g id="edge10" class="edge">
<title>8&#45;&gt;18</title>
<path fill="none" stroke="#0000ff" d="M1306.59,-686.36C1344.57,-682.6 1392.32,-677.87 1432.24,-673.92"/>
<polygon fill="#0000ff" stroke="#0000ff" points="1432.44,-677.42 1442.05,-672.95 1431.75,-670.45 1432.44,-677.42"/>
<text text-anchor="middle" x="1388.37" y="-683.45" font-family="Times New Roman,serif" font-size="14.00">no, missing</text>
</g>
<!-- 19 -->
<g id="node14" class="node">
<title>19</title>
<ellipse fill="none" stroke="black" cx="1513.26" cy="-612" rx="75.02" ry="18"/>
<text text-anchor="middle" x="1513.26" y="-606.58" font-family="Times New Roman,serif" font-size="14.00">leaf=&#45;3679.56689</text>
</g>
<!-- 9&#45;&gt;19 -->
<g id="edge13" class="edge">
<title>9&#45;&gt;19</title>
<path fill="none" stroke="#ff0000" d="M1307.29,-571.42C1348.77,-579.63 1401.69,-590.11 1443.37,-598.36"/>
<polygon fill="#ff0000" stroke="#ff0000" points="1442.56,-601.77 1453.05,-600.28 1443.92,-594.9 1442.56,-601.77"/>
<text text-anchor="middle" x="1388.37" y="-594.45" font-family="Times New Roman,serif" font-size="14.00">yes</text>
</g>
<!-- 20 -->
<g id="node15" class="node">
<title>20</title>
<ellipse fill="none" stroke="black" cx="1513.26" cy="-558" rx="72.02" ry="18"/>
<text text-anchor="middle" x="1513.26" y="-552.58" font-family="Times New Roman,serif" font-size="14.00">leaf=5893.56104</text>
</g>
<!-- 9&#45;&gt;20 -->
<g id="edge14" class="edge">
<title>9&#45;&gt;20</title>
<path fill="none" stroke="#0000ff" d="M1338.37,-558C1368.39,-558 1401.03,-558 1429.84,-558"/>
<polygon fill="#0000ff" stroke="#0000ff" points="1429.58,-561.5 1439.58,-558 1429.58,-554.5 1429.58,-561.5"/>
<text text-anchor="middle" x="1388.37" y="-560.45" font-family="Times New Roman,serif" font-size="14.00">no, missing</text>
</g>
<!-- 21 -->
<g id="node16" class="node">
<title>21</title>
<ellipse fill="none" stroke="black" cx="1513.26" cy="-504" rx="72.02" ry="18"/>
<text text-anchor="middle" x="1513.26" y="-498.57" font-family="Times New Roman,serif" font-size="14.00">leaf=15370.5596</text>
</g>
<!-- 10&#45;&gt;21 -->
<g id="edge15" class="edge">
<title>10&#45;&gt;21</title>
<path fill="none" stroke="#ff0000" d="M1329.21,-504C1361.56,-504 1397.91,-504 1429.63,-504"/>
<polygon fill="#ff0000" stroke="#ff0000" points="1429.58,-507.5 1439.58,-504 1429.58,-500.5 1429.58,-507.5"/>
<text text-anchor="middle" x="1388.37" y="-506.45" font-family="Times New Roman,serif" font-size="14.00">yes</text>
</g>
<!-- 22 -->
<g id="node17" class="node">
<title>22</title>
<ellipse fill="none" stroke="black" cx="1513.26" cy="-450" rx="67.53" ry="18"/>
<text text-anchor="middle" x="1513.26" y="-444.57" font-family="Times New Roman,serif" font-size="14.00">leaf=6711.6333</text>
</g>
<!-- 10&#45;&gt;22 -->
<g id="edge16" class="edge">
<title>10&#45;&gt;22</title>
<path fill="none" stroke="#0000ff" d="M1304.16,-491.2C1347.25,-482.67 1403.7,-471.49 1446.93,-462.93"/>
<polygon fill="#0000ff" stroke="#0000ff" points="1447.57,-466.38 1456.7,-461 1446.21,-459.51 1447.57,-466.38"/>
<text text-anchor="middle" x="1388.37" y="-482.45" font-family="Times New Roman,serif" font-size="14.00">no, missing</text>
</g>
<!-- 11 -->
<g id="node20" class="node">
<title>11</title>
<ellipse fill="none" stroke="black" cx="1238.53" cy="-342" rx="35.6" ry="18"/>
<text text-anchor="middle" x="1238.53" y="-336.57" font-family="Times New Roman,serif" font-size="14.00">Age&lt;3</text>
</g>
<!-- 5&#45;&gt;11 -->
<g id="edge19" class="edge">
<title>5&#45;&gt;11</title>
<path fill="none" stroke="#ff0000" d="M1030.76,-322.63C1082.9,-327.51 1148.65,-333.67 1191.83,-337.72"/>
<polygon fill="#ff0000" stroke="#ff0000" points="1191.32,-341.19 1201.6,-338.63 1191.97,-334.22 1191.32,-341.19"/>
<text text-anchor="middle" x="1088.69" y="-332.45" font-family="Times New Roman,serif" font-size="14.00">yes</text>
</g>
<!-- 12 -->
<g id="node21" class="node">
<title>12</title>
<ellipse fill="none" stroke="black" cx="1238.53" cy="-288" rx="64.54" ry="18"/>
<text text-anchor="middle" x="1238.53" y="-282.57" font-family="Times New Roman,serif" font-size="14.00">Country_India</text>
</g>
<!-- 5&#45;&gt;12 -->
<g id="edge20" class="edge">
<title>5&#45;&gt;12</title>
<path fill="none" stroke="#0000ff" d="M1030.76,-307.37C1073.21,-303.39 1124.67,-298.57 1165.63,-294.74"/>
<polygon fill="#0000ff" stroke="#0000ff" points="1165.75,-298.24 1175.38,-293.82 1165.1,-291.27 1165.75,-298.24"/>
<text text-anchor="middle" x="1088.69" y="-306.45" font-family="Times New Roman,serif" font-size="14.00">no, missing</text>
</g>
<!-- 13 -->
<g id="node26" class="node">
<title>13</title>
<ellipse fill="none" stroke="black" cx="1238.53" cy="-153" rx="72.52" ry="18"/>
<text text-anchor="middle" x="1238.53" y="-147.57" font-family="Times New Roman,serif" font-size="14.00">Gender_Woman</text>
</g>
<!-- 6&#45;&gt;13 -->
<g id="edge25" class="edge">
<title>6&#45;&gt;13</title>
<path fill="none" stroke="#ff0000" d="M1038.93,-153C1075.76,-153 1118.16,-153 1154.3,-153"/>
<polygon fill="#ff0000" stroke="#ff0000" points="1154.28,-156.5 1164.28,-153 1154.28,-149.5 1154.28,-156.5"/>
<text text-anchor="middle" x="1088.69" y="-155.45" font-family="Times New Roman,serif" font-size="14.00">yes</text>
</g>
<!-- 14 -->
<g id="node27" class="node">
<title>14</title>
<ellipse fill="none" stroke="black" cx="1238.53" cy="-72" rx="99.97" ry="18"/>
<text text-anchor="middle" x="1238.53" y="-66.58" font-family="Times New Roman,serif" font-size="14.00">Highest Education_PhD</text>
</g>
<!-- 6&#45;&gt;14 -->
<g id="edge26" class="edge">
<title>6&#45;&gt;14</title>
<path fill="none" stroke="#0000ff" d="M1002.19,-138.14C1050.03,-124.7 1120.66,-104.85 1172.06,-90.4"/>
<polygon fill="#0000ff" stroke="#0000ff" points="1172.91,-93.8 1181.59,-87.72 1171.01,-87.06 1172.91,-93.8"/>
<text text-anchor="middle" x="1088.69" y="-124.45" font-family="Times New Roman,serif" font-size="14.00">no, missing</text>
</g>
<!-- 23 -->
<g id="node22" class="node">
<title>23</title>
<ellipse fill="none" stroke="black" cx="1513.26" cy="-396" rx="75.02" ry="18"/>
<text text-anchor="middle" x="1513.26" y="-390.57" font-family="Times New Roman,serif" font-size="14.00">leaf=&#45;1481.49268</text>
</g>
<!-- 11&#45;&gt;23 -->
<g id="edge21" class="edge">
<title>11&#45;&gt;23</title>
<path fill="none" stroke="#ff0000" d="M1272.15,-348.46C1314.22,-356.79 1388.46,-371.49 1443.29,-382.35"/>
<polygon fill="#ff0000" stroke="#ff0000" points="1442.36,-385.73 1452.85,-384.24 1443.72,-378.86 1442.36,-385.73"/>
<text text-anchor="middle" x="1388.37" y="-378.45" font-family="Times New Roman,serif" font-size="14.00">yes</text>
</g>
<!-- 24 -->
<g id="node23" class="node">
<title>24</title>
<ellipse fill="none" stroke="black" cx="1513.26" cy="-342" rx="72.02" ry="18"/>
<text text-anchor="middle" x="1513.26" y="-336.57" font-family="Times New Roman,serif" font-size="14.00">leaf=4969.08301</text>
</g>
<!-- 11&#45;&gt;24 -->
<g id="edge22" class="edge">
<title>11&#45;&gt;24</title>
<path fill="none" stroke="#0000ff" d="M1274.34,-342C1313.28,-342 1377.68,-342 1429.67,-342"/>
<polygon fill="#0000ff" stroke="#0000ff" points="1429.39,-345.5 1439.39,-342 1429.39,-338.5 1429.39,-345.5"/>
<text text-anchor="middle" x="1388.37" y="-344.45" font-family="Times New Roman,serif" font-size="14.00">no, missing</text>
</g>
<!-- 25 -->
<g id="node24" class="node">
<title>25</title>
<ellipse fill="none" stroke="black" cx="1513.26" cy="-288" rx="75.02" ry="18"/>
<text text-anchor="middle" x="1513.26" y="-282.57" font-family="Times New Roman,serif" font-size="14.00">leaf=&#45;7104.10742</text>
</g>
<!-- 12&#45;&gt;25 -->
<g id="edge23" class="edge">
<title>12&#45;&gt;25</title>
<path fill="none" stroke="#ff0000" d="M1303.47,-288C1340.23,-288 1386.89,-288 1426.77,-288"/>
<polygon fill="#ff0000" stroke="#ff0000" points="1426.58,-291.5 1436.58,-288 1426.58,-284.5 1426.58,-291.5"/>
<text text-anchor="middle" x="1388.37" y="-290.45" font-family="Times New Roman,serif" font-size="14.00">yes</text>
</g>
<!-- 26 -->
<g id="node25" class="node">
<title>26</title>
<ellipse fill="none" stroke="black" cx="1513.26" cy="-234" rx="75.02" ry="18"/>
<text text-anchor="middle" x="1513.26" y="-228.57" font-family="Times New Roman,serif" font-size="14.00">leaf=&#45;19821.7266</text>
</g>
<!-- 12&#45;&gt;26 -->
<g id="edge24" class="edge">
<title>12&#45;&gt;26</title>
<path fill="none" stroke="#0000ff" d="M1292.11,-277.59C1335.1,-269.08 1396.23,-256.97 1443.17,-247.68"/>
<polygon fill="#0000ff" stroke="#0000ff" points="1443.55,-251.17 1452.68,-245.8 1442.19,-244.3 1443.55,-251.17"/>
<text text-anchor="middle" x="1388.37" y="-266.45" font-family="Times New Roman,serif" font-size="14.00">no, missing</text>
</g>
<!-- 27 -->
<g id="node28" class="node">
<title>27</title>
<ellipse fill="none" stroke="black" cx="1513.26" cy="-180" rx="72.02" ry="18"/>
<text text-anchor="middle" x="1513.26" y="-174.57" font-family="Times New Roman,serif" font-size="14.00">leaf=20792.8223</text>
</g>
<!-- 13&#45;&gt;27 -->
<g id="edge27" class="edge">
<title>13&#45;&gt;27</title>
<path fill="none" stroke="#ff0000" d="M1306.59,-159.64C1345.29,-163.47 1394.13,-168.31 1434.5,-172.3"/>
<polygon fill="#ff0000" stroke="#ff0000" points="1434.12,-175.78 1444.42,-173.28 1434.81,-168.82 1434.12,-175.78"/>
<text text-anchor="middle" x="1388.37" y="-172.45" font-family="Times New Roman,serif" font-size="14.00">yes</text>
</g>
<!-- 28 -->
<g id="node29" class="node">
<title>28</title>
<ellipse fill="none" stroke="black" cx="1513.26" cy="-126" rx="72.02" ry="18"/>
<text text-anchor="middle" x="1513.26" y="-120.58" font-family="Times New Roman,serif" font-size="14.00">leaf=12882.8896</text>
</g>
<!-- 13&#45;&gt;28 -->
<g id="edge28" class="edge">
<title>13&#45;&gt;28</title>
<path fill="none" stroke="#0000ff" d="M1306.59,-146.36C1345.29,-142.53 1394.13,-137.69 1434.5,-133.7"/>
<polygon fill="#0000ff" stroke="#0000ff" points="1434.81,-137.18 1444.42,-132.72 1434.12,-130.22 1434.81,-137.18"/>
<text text-anchor="middle" x="1388.37" y="-143.45" font-family="Times New Roman,serif" font-size="14.00">no, missing</text>
</g>
<!-- 29 -->
<g id="node30" class="node">
<title>29</title>
<ellipse fill="none" stroke="black" cx="1513.26" cy="-72" rx="72.02" ry="18"/>
<text text-anchor="middle" x="1513.26" y="-66.58" font-family="Times New Roman,serif" font-size="14.00">leaf=5445.55859</text>
</g>
<!-- 14&#45;&gt;29 -->
<g id="edge29" class="edge">
<title>14&#45;&gt;29</title>
<path fill="none" stroke="#ff0000" d="M1338.76,-72C1368.61,-72 1401.03,-72 1429.68,-72"/>
<polygon fill="#ff0000" stroke="#ff0000" points="1429.36,-75.5 1439.36,-72 1429.36,-68.5 1429.36,-75.5"/>
<text text-anchor="middle" x="1388.37" y="-74.45" font-family="Times New Roman,serif" font-size="14.00">yes</text>
</g>
<!-- 30 -->
<g id="node31" class="node">
<title>30</title>
<ellipse fill="none" stroke="black" cx="1513.26" cy="-18" rx="72.02" ry="18"/>
<text text-anchor="middle" x="1513.26" y="-12.57" font-family="Times New Roman,serif" font-size="14.00">leaf=22389.5957</text>
</g>
<!-- 14&#45;&gt;30 -->
<g id="edge30" class="edge">
<title>14&#45;&gt;30</title>
<path fill="none" stroke="#0000ff" d="M1307.29,-58.58C1349.2,-50.28 1402.8,-39.67 1444.67,-31.38"/>
<polygon fill="#0000ff" stroke="#0000ff" points="1445.26,-34.83 1454.39,-29.46 1443.9,-27.97 1445.26,-34.83"/>
<text text-anchor="middle" x="1388.37" y="-50.45" font-family="Times New Roman,serif" font-size="14.00">no, missing</text>
</g>
</g>
</svg>
