<?xml version="1.0" encoding="UTF-8" standalone="no"?>
<!DOCTYPE svg PUBLIC "-//W3C//DTD SVG 1.1//EN"
 "http://www.w3.org/Graphics/SVG/1.1/DTD/svg11.dtd">
<!-- Generated by graphviz version 11.0.0 (20240428.1522)
 -->
<!-- Pages: 1 -->
<svg width="1531pt" height="854pt"
 viewBox="0.00 0.00 1531.40 854.00" xmlns="http://www.w3.org/2000/svg" xmlns:xlink="http://www.w3.org/1999/xlink">
<g id="graph0" class="graph" transform="scale(1 1) rotate(0) translate(4 850)">
<polygon fill="white" stroke="none" points="-4,4 -4,-850 1527.4,-850 1527.4,4 -4,4"/>
<!-- 0 -->
<g id="node1" class="node">
<title>0</title>
<ellipse fill="none" stroke="black" cx="35.6" cy="-430" rx="35.6" ry="18"/>
<text text-anchor="middle" x="35.6" y="-424.57" font-family="Times New Roman,serif" font-size="14.00">Age&lt;3</text>
</g>
<!-- 1 -->
<g id="node2" class="node">
<title>1</title>
<ellipse fill="none" stroke="black" cx="287.37" cy="-531" rx="116.43" ry="18"/>
<text text-anchor="middle" x="287.37" y="-525.58" font-family="Times New Roman,serif" font-size="14.00">Industry_Computing or tech</text>
</g>
<!-- 0&#45;&gt;1 -->
<g id="edge1" class="edge">
<title>0&#45;&gt;1</title>
<path fill="none" stroke="#ff0000" d="M64.28,-441.19C104.95,-457.64 181.63,-488.64 233.36,-509.56"/>
<polygon fill="#ff0000" stroke="#ff0000" points="232.01,-512.79 242.59,-513.3 234.63,-506.3 232.01,-512.79"/>
<text text-anchor="middle" x="121.07" y="-476.45" font-family="Times New Roman,serif" font-size="14.00">yes</text>
</g>
<!-- 2 -->
<g id="node3" class="node">
<title>2</title>
<ellipse fill="none" stroke="black" cx="287.37" cy="-315" rx="116.43" ry="18"/>
<text text-anchor="middle" x="287.37" y="-309.57" font-family="Times New Roman,serif" font-size="14.00">Industry_Computing or tech</text>
</g>
<!-- 0&#45;&gt;2 -->
<g id="edge2" class="edge">
<title>0&#45;&gt;2</title>
<path fill="none" stroke="#0000ff" d="M62.85,-417.91C104.45,-398.76 186.13,-361.15 238.39,-337.09"/>
<polygon fill="#0000ff" stroke="#0000ff" points="239.76,-340.31 247.38,-332.95 236.83,-333.96 239.76,-340.31"/>
<text text-anchor="middle" x="121.07" y="-407.45" font-family="Times New Roman,serif" font-size="14.00">no, missing</text>
</g>
<!-- 3 -->
<g id="node4" class="node">
<title>3</title>
<ellipse fill="none" stroke="black" cx="636.95" cy="-693" rx="107.45" ry="18"/>
<text text-anchor="middle" x="636.95" y="-687.58" font-family="Times New Roman,serif" font-size="14.00">Country_United Kingdom</text>
</g>
<!-- 1&#45;&gt;3 -->
<g id="edge3" class="edge">
<title>1&#45;&gt;3</title>
<path fill="none" stroke="#ff0000" d="M325.57,-548.34C389.2,-577.99 518.84,-638.41 588.75,-671"/>
<polygon fill="#ff0000" stroke="#ff0000" points="587.11,-674.1 597.65,-675.15 590.07,-667.75 587.11,-674.1"/>
<text text-anchor="middle" x="453.68" y="-623.45" font-family="Times New Roman,serif" font-size="14.00">yes</text>
</g>
<!-- 4 -->
<g id="node5" class="node">
<title>4</title>
<ellipse fill="none" stroke="black" cx="636.95" cy="-531" rx="107.45" ry="18"/>
<text text-anchor="middle" x="636.95" y="-525.58" font-family="Times New Roman,serif" font-size="14.00">Country_United Kingdom</text>
</g>
<!-- 1&#45;&gt;4 -->
<g id="edge4" class="edge">
<title>1&#45;&gt;4</title>
<path fill="none" stroke="#0000ff" d="M404.11,-531C440.71,-531 481.19,-531 517.95,-531"/>
<polygon fill="#0000ff" stroke="#0000ff" points="517.71,-534.5 527.71,-531 517.71,-527.5 517.71,-534.5"/>
<text text-anchor="middle" x="453.68" y="-533.45" font-family="Times New Roman,serif" font-size="14.00">no, missing</text>
</g>
<!-- 5 -->
<g id="node18" class="node">
<title>5</title>
<ellipse fill="none" stroke="black" cx="636.95" cy="-315" rx="72.52" ry="18"/>
<text text-anchor="middle" x="636.95" y="-309.57" font-family="Times New Roman,serif" font-size="14.00">Gender_Woman</text>
</g>
<!-- 2&#45;&gt;5 -->
<g id="edge17" class="edge">
<title>2&#45;&gt;5</title>
<path fill="none" stroke="#ff0000" d="M404.11,-315C452.71,-315 508.15,-315 552.62,-315"/>
<polygon fill="#ff0000" stroke="#ff0000" points="552.46,-318.5 562.46,-315 552.46,-311.5 552.46,-318.5"/>
<text text-anchor="middle" x="453.68" y="-317.45" font-family="Times New Roman,serif" font-size="14.00">yes</text>
</g>
<!-- 6 -->
<g id="node19" class="node">
<title>6</title>
<ellipse fill="none" stroke="black" cx="636.95" cy="-153" rx="133.4" ry="18"/>
<text text-anchor="middle" x="636.95" y="-147.57" font-family="Times New Roman,serif" font-size="14.00">Highest Education_Some college</text>
</g>
<!-- 2&#45;&gt;6 -->
<g id="edge18" class="edge">
<title>2&#45;&gt;6</title>
<path fill="none" stroke="#0000ff" d="M325.57,-297.66C388.95,-268.12 517.82,-208.06 587.92,-175.39"/>
<polygon fill="#0000ff" stroke="#0000ff" points="589.28,-178.62 596.86,-171.22 586.32,-172.27 589.28,-178.62"/>
<text text-anchor="middle" x="453.68" y="-250.45" font-family="Times New Roman,serif" font-size="14.00">no, missing</text>
</g>
<!-- 7 -->
<g id="node6" class="node">
<title>7</title>
<ellipse fill="none" stroke="black" cx="1058.39" cy="-774" rx="188.29" ry="18"/>
<text text-anchor="middle" x="1058.39" y="-768.58" font-family="Times New Roman,serif" font-size="14.00">Industry_Government and public administration</text>
</g>
<!-- 3&#45;&gt;7 -->
<g id="edge5" class="edge">
<title>3&#45;&gt;7</title>
<path fill="none" stroke="#ff0000" d="M709.1,-706.74C778.5,-720.14 884.53,-740.62 961.37,-755.46"/>
<polygon fill="#ff0000" stroke="#ff0000" points="960.52,-758.86 971,-757.32 961.84,-751.98 960.52,-758.86"/>
<text text-anchor="middle" x="820.23" y="-735.45" font-family="Times New Roman,serif" font-size="14.00">yes</text>
</g>
<!-- 8 -->
<g id="node7" class="node">
<title>8</title>
<ellipse fill="none" stroke="black" cx="1058.39" cy="-693" rx="130.4" ry="18"/>
<text text-anchor="middle" x="1058.39" y="-687.58" font-family="Times New Roman,serif" font-size="14.00">Industry_Business or consulting</text>
</g>
<!-- 3&#45;&gt;8 -->
<g id="edge6" class="edge">
<title>3&#45;&gt;8</title>
<path fill="none" stroke="#0000ff" d="M744.88,-693C796.99,-693 860.35,-693 916.37,-693"/>
<polygon fill="#0000ff" stroke="#0000ff" points="916.32,-696.5 926.32,-693 916.32,-689.5 916.32,-696.5"/>
<text text-anchor="middle" x="820.23" y="-695.45" font-family="Times New Roman,serif" font-size="14.00">no, missing</text>
</g>
<!-- 9 -->
<g id="node12" class="node">
<title>9</title>
<ellipse fill="none" stroke="black" cx="1058.39" cy="-558" rx="72.02" ry="18"/>
<text text-anchor="middle" x="1058.39" y="-552.58" font-family="Times New Roman,serif" font-size="14.00">Country_Nigeria</text>
</g>
<!-- 4&#45;&gt;9 -->
<g id="edge11" class="edge">
<title>4&#45;&gt;9</title>
<path fill="none" stroke="#ff0000" d="M737.89,-537.43C810.99,-542.14 908.88,-548.44 976.96,-552.82"/>
<polygon fill="#ff0000" stroke="#ff0000" points="976.33,-556.29 986.54,-553.44 976.78,-549.3 976.33,-556.29"/>
<text text-anchor="middle" x="820.23" y="-546.45" font-family="Times New Roman,serif" font-size="14.00">yes</text>
</g>
<!-- 10 -->
<g id="node13" class="node">
<title>10</title>
<ellipse fill="none" stroke="black" cx="1058.39" cy="-504" rx="35.6" ry="18"/>
<text text-anchor="middle" x="1058.39" y="-498.57" font-family="Times New Roman,serif" font-size="14.00">Age&lt;2</text>
</g>
<!-- 4&#45;&gt;10 -->
<g id="edge12" class="edge">
<title>4&#45;&gt;10</title>
<path fill="none" stroke="#0000ff" d="M737.86,-524.51C754.72,-523.42 772.03,-522.3 788.35,-521.25 866.68,-516.2 957.83,-510.36 1011.4,-506.94"/>
<polygon fill="#0000ff" stroke="#0000ff" points="1011.3,-510.45 1021.05,-506.32 1010.85,-503.47 1011.3,-510.45"/>
<text text-anchor="middle" x="820.23" y="-523.45" font-family="Times New Roman,serif" font-size="14.00">no, missing</text>
</g>
<!-- 15 -->
<g id="node8" class="node">
<title>15</title>
<ellipse fill="none" stroke="black" cx="1434.91" cy="-828" rx="84" ry="18"/>
<text text-anchor="middle" x="1434.91" y="-822.58" font-family="Times New Roman,serif" font-size="14.00">leaf=&#45;0.0975754634</text>
</g>
<!-- 7&#45;&gt;15 -->
<g id="edge7" class="edge">
<title>7&#45;&gt;15</title>
<path fill="none" stroke="#ff0000" d="M1164.71,-789.19C1224.42,-797.8 1297.98,-808.4 1353.11,-816.35"/>
<polygon fill="#ff0000" stroke="#ff0000" points="1352.33,-819.77 1362.73,-817.74 1353.33,-812.85 1352.33,-819.77"/>
<text text-anchor="middle" x="1296.55" y="-814.45" font-family="Times New Roman,serif" font-size="14.00">yes</text>
</g>
<!-- 16 -->
<g id="node9" class="node">
<title>16</title>
<ellipse fill="none" stroke="black" cx="1434.91" cy="-774" rx="81" ry="18"/>
<text text-anchor="middle" x="1434.91" y="-768.58" font-family="Times New Roman,serif" font-size="14.00">leaf=0.0144066522</text>
</g>
<!-- 7&#45;&gt;16 -->
<g id="edge8" class="edge">
<title>7&#45;&gt;16</title>
<path fill="none" stroke="#0000ff" d="M1246.93,-774C1280.15,-774 1313.36,-774 1342.38,-774"/>
<polygon fill="#0000ff" stroke="#0000ff" points="1342.19,-777.5 1352.19,-774 1342.19,-770.5 1342.19,-777.5"/>
<text text-anchor="middle" x="1296.55" y="-776.45" font-family="Times New Roman,serif" font-size="14.00">no, missing</text>
</g>
<!-- 17 -->
<g id="node10" class="node">
<title>17</title>
<ellipse fill="none" stroke="black" cx="1434.91" cy="-720" rx="84" ry="18"/>
<text text-anchor="middle" x="1434.91" y="-714.58" font-family="Times New Roman,serif" font-size="14.00">leaf=&#45;0.0409439579</text>
</g>
<!-- 8&#45;&gt;17 -->
<g id="edge9" class="edge">
<title>8&#45;&gt;17</title>
<path fill="none" stroke="#ff0000" d="M1175.07,-701.34C1229.21,-705.24 1292.74,-709.82 1343.32,-713.47"/>
<polygon fill="#ff0000" stroke="#ff0000" points="1342.83,-716.94 1353.05,-714.17 1343.33,-709.96 1342.83,-716.94"/>
<text text-anchor="middle" x="1296.55" y="-714.45" font-family="Times New Roman,serif" font-size="14.00">yes</text>
</g>
<!-- 18 -->
<g id="node11" class="node">
<title>18</title>
<ellipse fill="none" stroke="black" cx="1434.91" cy="-666" rx="81" ry="18"/>
<text text-anchor="middle" x="1434.91" y="-660.58" font-family="Times New Roman,serif" font-size="14.00">leaf=0.0438268632</text>
</g>
<!-- 8&#45;&gt;18 -->
<g id="edge10" class="edge">
<title>8&#45;&gt;18</title>
<path fill="none" stroke="#0000ff" d="M1175.07,-684.66C1230.11,-680.69 1294.86,-676.02 1345.83,-672.35"/>
<polygon fill="#0000ff" stroke="#0000ff" points="1345.91,-675.85 1355.64,-671.64 1345.41,-668.87 1345.91,-675.85"/>
<text text-anchor="middle" x="1296.55" y="-679.45" font-family="Times New Roman,serif" font-size="14.00">no, missing</text>
</g>
<!-- 19 -->
<g id="node14" class="node">
<title>19</title>
<ellipse fill="none" stroke="black" cx="1434.91" cy="-612" rx="79.51" ry="18"/>
<text text-anchor="middle" x="1434.91" y="-606.58" font-family="Times New Roman,serif" font-size="14.00">leaf=&#45;0.107715212</text>
</g>
<!-- 9&#45;&gt;19 -->
<g id="edge13" class="edge">
<title>9&#45;&gt;19</title>
<path fill="none" stroke="#ff0000" d="M1121.65,-566.98C1185.79,-576.22 1285.92,-590.66 1355.44,-600.69"/>
<polygon fill="#ff0000" stroke="#ff0000" points="1354.86,-604.14 1365.26,-602.1 1355.86,-597.21 1354.86,-604.14"/>
<text text-anchor="middle" x="1296.55" y="-598.45" font-family="Times New Roman,serif" font-size="14.00">yes</text>
</g>
<!-- 20 -->
<g id="node15" class="node">
<title>20</title>
<ellipse fill="none" stroke="black" cx="1434.91" cy="-558" rx="67.53" ry="18"/>
<text text-anchor="middle" x="1434.91" y="-552.58" font-family="Times New Roman,serif" font-size="14.00">leaf=0.2739712</text>
</g>
<!-- 9&#45;&gt;20 -->
<g id="edge14" class="edge">
<title>9&#45;&gt;20</title>
<path fill="none" stroke="#0000ff" d="M1130.72,-558C1195.02,-558 1289.39,-558 1355.72,-558"/>
<polygon fill="#0000ff" stroke="#0000ff" points="1355.43,-561.5 1365.43,-558 1355.43,-554.5 1355.43,-561.5"/>
<text text-anchor="middle" x="1296.55" y="-560.45" font-family="Times New Roman,serif" font-size="14.00">no, missing</text>
</g>
<!-- 21 -->
<g id="node16" class="node">
<title>21</title>
<ellipse fill="none" stroke="black" cx="1434.91" cy="-504" rx="84" ry="18"/>
<text text-anchor="middle" x="1434.91" y="-498.57" font-family="Times New Roman,serif" font-size="14.00">leaf=&#45;0.0366737172</text>
</g>
<!-- 10&#45;&gt;21 -->
<g id="edge15" class="edge">
<title>10&#45;&gt;21</title>
<path fill="none" stroke="#ff0000" d="M1094.29,-504C1149.7,-504 1259.7,-504 1339.54,-504"/>
<polygon fill="#ff0000" stroke="#ff0000" points="1339.08,-507.5 1349.08,-504 1339.08,-500.5 1339.08,-507.5"/>
<text text-anchor="middle" x="1296.55" y="-506.45" font-family="Times New Roman,serif" font-size="14.00">yes</text>
</g>
<!-- 22 -->
<g id="node17" class="node">
<title>22</title>
<ellipse fill="none" stroke="black" cx="1434.91" cy="-450" rx="81" ry="18"/>
<text text-anchor="middle" x="1434.91" y="-444.57" font-family="Times New Roman,serif" font-size="14.00">leaf=0.0393463932</text>
</g>
<!-- 10&#45;&gt;22 -->
<g id="edge16" class="edge">
<title>10&#45;&gt;22</title>
<path fill="none" stroke="#0000ff" d="M1092.96,-499.16C1151.52,-490.72 1273.83,-473.08 1354.91,-461.39"/>
<polygon fill="#0000ff" stroke="#0000ff" points="1355.17,-464.89 1364.57,-460 1354.17,-457.96 1355.17,-464.89"/>
<text text-anchor="middle" x="1296.55" y="-475.45" font-family="Times New Roman,serif" font-size="14.00">no, missing</text>
</g>
<!-- 11 -->
<g id="node20" class="node">
<title>11</title>
<ellipse fill="none" stroke="black" cx="1058.39" cy="-342" rx="99.47" ry="18"/>
<text text-anchor="middle" x="1058.39" y="-336.57" font-family="Times New Roman,serif" font-size="14.00">Years job_21 &#45; 30 years</text>
</g>
<!-- 5&#45;&gt;11 -->
<g id="edge19" class="edge">
<title>5&#45;&gt;11</title>
<path fill="none" stroke="#ff0000" d="M707.69,-319.49C774.52,-323.79 876.25,-330.34 952.79,-335.27"/>
<polygon fill="#ff0000" stroke="#ff0000" points="952.18,-338.73 962.38,-335.88 952.63,-331.75 952.18,-338.73"/>
<text text-anchor="middle" x="820.23" y="-330.45" font-family="Times New Roman,serif" font-size="14.00">yes</text>
</g>
<!-- 12 -->
<g id="node21" class="node">
<title>12</title>
<ellipse fill="none" stroke="black" cx="1058.39" cy="-288" rx="78.51" ry="18"/>
<text text-anchor="middle" x="1058.39" y="-282.57" font-family="Times New Roman,serif" font-size="14.00">Job Title_Director</text>
</g>
<!-- 5&#45;&gt;12 -->
<g id="edge20" class="edge">
<title>5&#45;&gt;12</title>
<path fill="none" stroke="#0000ff" d="M707.59,-310.48C733.01,-308.83 761.98,-306.95 788.35,-305.25 849.38,-301.32 918.2,-296.9 970.95,-293.53"/>
<polygon fill="#0000ff" stroke="#0000ff" points="971.03,-297.03 980.79,-292.9 970.58,-290.04 971.03,-297.03"/>
<text text-anchor="middle" x="820.23" y="-307.45" font-family="Times New Roman,serif" font-size="14.00">no, missing</text>
</g>
<!-- 13 -->
<g id="node26" class="node">
<title>13</title>
<ellipse fill="none" stroke="black" cx="1058.39" cy="-153" rx="90.48" ry="18"/>
<text text-anchor="middle" x="1058.39" y="-147.57" font-family="Times New Roman,serif" font-size="14.00">Years job_2 &#45; 4 years</text>
</g>
<!-- 6&#45;&gt;13 -->
<g id="edge25" class="edge">
<title>6&#45;&gt;13</title>
<path fill="none" stroke="#ff0000" d="M770.66,-153C830.73,-153 900.58,-153 956.3,-153"/>
<polygon fill="#ff0000" stroke="#ff0000" points="956.09,-156.5 966.09,-153 956.09,-149.5 956.09,-156.5"/>
<text text-anchor="middle" x="820.23" y="-155.45" font-family="Times New Roman,serif" font-size="14.00">yes</text>
</g>
<!-- 14 -->
<g id="node27" class="node">
<title>14</title>
<ellipse fill="none" stroke="black" cx="1058.39" cy="-72" rx="90.48" ry="18"/>
<text text-anchor="middle" x="1058.39" y="-66.58" font-family="Times New Roman,serif" font-size="14.00">Years job_2 &#45; 4 years</text>
</g>
<!-- 6&#45;&gt;14 -->
<g id="edge26" class="edge">
<title>6&#45;&gt;14</title>
<path fill="none" stroke="#0000ff" d="M715.37,-138.05C791.02,-123.44 905.49,-101.33 980.84,-86.78"/>
<polygon fill="#0000ff" stroke="#0000ff" points="981.48,-90.22 990.64,-84.89 980.16,-83.35 981.48,-90.22"/>
<text text-anchor="middle" x="820.23" y="-124.45" font-family="Times New Roman,serif" font-size="14.00">no, missing</text>
</g>
<!-- 23 -->
<g id="node22" class="node">
<title>23</title>
<ellipse fill="none" stroke="black" cx="1434.91" cy="-396" rx="81" ry="18"/>
<text text-anchor="middle" x="1434.91" y="-390.57" font-family="Times New Roman,serif" font-size="14.00">leaf=0.0333711803</text>
</g>
<!-- 11&#45;&gt;23 -->
<g id="edge21" class="edge">
<title>11&#45;&gt;23</title>
<path fill="none" stroke="#ff0000" d="M1137.45,-353.25C1201.15,-362.44 1290.77,-375.36 1354.77,-384.59"/>
<polygon fill="#ff0000" stroke="#ff0000" points="1354.12,-388.03 1364.51,-385.99 1355.11,-381.1 1354.12,-388.03"/>
<text text-anchor="middle" x="1296.55" y="-382.45" font-family="Times New Roman,serif" font-size="14.00">yes</text>
</g>
<!-- 24 -->
<g id="node23" class="node">
<title>24</title>
<ellipse fill="none" stroke="black" cx="1434.91" cy="-342" rx="76.51" ry="18"/>
<text text-anchor="middle" x="1434.91" y="-336.57" font-family="Times New Roman,serif" font-size="14.00">leaf=0.118129462</text>
</g>
<!-- 11&#45;&gt;24 -->
<g id="edge22" class="edge">
<title>11&#45;&gt;24</title>
<path fill="none" stroke="#0000ff" d="M1158.28,-342C1216.78,-342 1290.2,-342 1346.55,-342"/>
<polygon fill="#0000ff" stroke="#0000ff" points="1346.43,-345.5 1356.43,-342 1346.43,-338.5 1346.43,-345.5"/>
<text text-anchor="middle" x="1296.55" y="-344.45" font-family="Times New Roman,serif" font-size="14.00">no, missing</text>
</g>
<!-- 25 -->
<g id="node24" class="node">
<title>25</title>
<ellipse fill="none" stroke="black" cx="1434.91" cy="-288" rx="88.49" ry="18"/>
<text text-anchor="middle" x="1434.91" y="-282.57" font-family="Times New Roman,serif" font-size="14.00">leaf=&#45;0.00147322204</text>
</g>
<!-- 12&#45;&gt;25 -->
<g id="edge23" class="edge">
<title>12&#45;&gt;25</title>
<path fill="none" stroke="#ff0000" d="M1136.99,-288C1194.38,-288 1272.97,-288 1334.89,-288"/>
<polygon fill="#ff0000" stroke="#ff0000" points="1334.73,-291.5 1344.73,-288 1334.73,-284.5 1334.73,-291.5"/>
<text text-anchor="middle" x="1296.55" y="-290.45" font-family="Times New Roman,serif" font-size="14.00">yes</text>
</g>
<!-- 26 -->
<g id="node25" class="node">
<title>26</title>
<ellipse fill="none" stroke="black" cx="1434.91" cy="-234" rx="76.51" ry="18"/>
<text text-anchor="middle" x="1434.91" y="-228.57" font-family="Times New Roman,serif" font-size="14.00">leaf=0.229299843</text>
</g>
<!-- 12&#45;&gt;26 -->
<g id="edge24" class="edge">
<title>12&#45;&gt;26</title>
<path fill="none" stroke="#0000ff" d="M1125.91,-278.41C1190.83,-269.05 1289.48,-254.82 1357.56,-245.01"/>
<polygon fill="#0000ff" stroke="#0000ff" points="1357.74,-248.52 1367.14,-243.63 1356.74,-241.59 1357.74,-248.52"/>
<text text-anchor="middle" x="1296.55" y="-259.45" font-family="Times New Roman,serif" font-size="14.00">no, missing</text>
</g>
<!-- 27 -->
<g id="node28" class="node">
<title>27</title>
<ellipse fill="none" stroke="black" cx="1434.91" cy="-180" rx="76.51" ry="18"/>
<text text-anchor="middle" x="1434.91" y="-174.57" font-family="Times New Roman,serif" font-size="14.00">leaf=0.138206586</text>
</g>
<!-- 13&#45;&gt;27 -->
<g id="edge27" class="edge">
<title>13&#45;&gt;27</title>
<path fill="none" stroke="#ff0000" d="M1143.91,-159.09C1205.45,-163.53 1288.43,-169.51 1349.86,-173.94"/>
<polygon fill="#ff0000" stroke="#ff0000" points="1349.34,-177.41 1359.56,-174.64 1349.84,-170.43 1349.34,-177.41"/>
<text text-anchor="middle" x="1296.55" y="-174.45" font-family="Times New Roman,serif" font-size="14.00">yes</text>
</g>
<!-- 28 -->
<g id="node29" class="node">
<title>28</title>
<ellipse fill="none" stroke="black" cx="1434.91" cy="-126" rx="81" ry="18"/>
<text text-anchor="middle" x="1434.91" y="-120.58" font-family="Times New Roman,serif" font-size="14.00">leaf=0.0229161456</text>
</g>
<!-- 13&#45;&gt;28 -->
<g id="edge28" class="edge">
<title>13&#45;&gt;28</title>
<path fill="none" stroke="#0000ff" d="M1143.91,-146.91C1204.23,-142.56 1285.15,-136.72 1346.19,-132.32"/>
<polygon fill="#0000ff" stroke="#0000ff" points="1346.11,-135.84 1355.84,-131.63 1345.61,-128.86 1346.11,-135.84"/>
<text text-anchor="middle" x="1296.55" y="-139.45" font-family="Times New Roman,serif" font-size="14.00">no, missing</text>
</g>
<!-- 29 -->
<g id="node30" class="node">
<title>29</title>
<ellipse fill="none" stroke="black" cx="1434.91" cy="-72" rx="81" ry="18"/>
<text text-anchor="middle" x="1434.91" y="-66.58" font-family="Times New Roman,serif" font-size="14.00">leaf=0.0261806827</text>
</g>
<!-- 14&#45;&gt;29 -->
<g id="edge29" class="edge">
<title>14&#45;&gt;29</title>
<path fill="none" stroke="#ff0000" d="M1149.1,-72C1207.43,-72 1283.27,-72 1342.03,-72"/>
<polygon fill="#ff0000" stroke="#ff0000" points="1342.03,-75.5 1352.03,-72 1342.03,-68.5 1342.03,-75.5"/>
<text text-anchor="middle" x="1296.55" y="-74.45" font-family="Times New Roman,serif" font-size="14.00">yes</text>
</g>
<!-- 30 -->
<g id="node31" class="node">
<title>30</title>
<ellipse fill="none" stroke="black" cx="1434.91" cy="-18" rx="84" ry="18"/>
<text text-anchor="middle" x="1434.91" y="-12.57" font-family="Times New Roman,serif" font-size="14.00">leaf=&#45;0.0553684197</text>
</g>
<!-- 14&#45;&gt;30 -->
<g id="edge30" class="edge">
<title>14&#45;&gt;30</title>
<path fill="none" stroke="#0000ff" d="M1132.94,-61.4C1196.37,-52.25 1287.82,-39.06 1353.25,-29.63"/>
<polygon fill="#0000ff" stroke="#0000ff" points="1353.44,-33.14 1362.83,-28.25 1352.44,-26.21 1353.44,-33.14"/>
<text text-anchor="middle" x="1296.55" y="-43.45" font-family="Times New Roman,serif" font-size="14.00">no, missing</text>
</g>
</g>
</svg>
